<svg xmlns="http://www.w3.org/2000/svg" xmlns:xlink="http://www.w3.org/1999/xlink" width="500" zoomAndPan="magnify" viewBox="0 0 375 374.999991" height="500" preserveAspectRatio="xMidYMid meet" version="1.0"><defs><clipPath id="4aaa189994"><path d="M 16 49 L 359.429688 49 L 359.429688 365.707031 L 16 365.707031 Z M 16 49 " clip-rule="nonzero"/></clipPath><clipPath id="29730b1003"><path d="M 68 9.457031 L 96 9.457031 L 96 76 L 68 76 Z M 68 9.457031 " clip-rule="nonzero"/></clipPath><clipPath id="3cb10e4261"><path d="M 280 9.457031 L 307 9.457031 L 307 76 L 280 76 Z M 280 9.457031 " clip-rule="nonzero"/></clipPath><clipPath id="d9704281de"><path d="M 16 107 L 359.429688 107 L 359.429688 135 L 16 135 Z M 16 107 " clip-rule="nonzero"/></clipPath></defs><g clip-path="url(#4aaa189994)"><path fill="#efa038" d="M 346.109375 365.707031 L 29.253906 365.707031 C 28.386719 365.707031 27.527344 365.621094 26.675781 365.453125 C 25.828125 365.285156 25 365.035156 24.199219 364.703125 C 23.398438 364.371094 22.640625 363.964844 21.917969 363.484375 C 21.199219 363 20.53125 362.453125 19.917969 361.84375 C 19.304688 361.230469 18.757812 360.5625 18.277344 359.84375 C 17.792969 359.121094 17.386719 358.363281 17.054688 357.5625 C 16.722656 356.761719 16.472656 355.9375 16.304688 355.085938 C 16.136719 354.238281 16.050781 353.378906 16.050781 352.511719 L 16.050781 62.234375 C 16.050781 61.367188 16.136719 60.511719 16.304688 59.660156 C 16.472656 58.808594 16.722656 57.984375 17.054688 57.183594 C 17.386719 56.382812 17.792969 55.625 18.277344 54.902344 C 18.757812 54.183594 19.304688 53.515625 19.917969 52.90625 C 20.53125 52.292969 21.199219 51.746094 21.917969 51.261719 C 22.640625 50.78125 23.398438 50.375 24.199219 50.042969 C 25 49.710938 25.828125 49.460938 26.675781 49.292969 C 27.527344 49.125 28.386719 49.039062 29.253906 49.039062 L 346.109375 49.039062 C 346.976562 49.039062 347.835938 49.125 348.683594 49.292969 C 349.535156 49.460938 350.359375 49.710938 351.160156 50.042969 C 351.960938 50.375 352.722656 50.78125 353.445312 51.261719 C 354.164062 51.746094 354.832031 52.292969 355.445312 52.90625 C 356.058594 53.515625 356.605469 54.183594 357.085938 54.902344 C 357.566406 55.625 357.972656 56.382812 358.304688 57.183594 C 358.636719 57.984375 358.886719 58.808594 359.058594 59.660156 C 359.226562 60.511719 359.3125 61.367188 359.3125 62.234375 L 359.3125 352.511719 C 359.3125 353.378906 359.226562 354.238281 359.058594 355.085938 C 358.886719 355.9375 358.636719 356.761719 358.304688 357.5625 C 357.972656 358.363281 357.566406 359.121094 357.085938 359.84375 C 356.605469 360.5625 356.058594 361.230469 355.445312 361.84375 C 354.832031 362.453125 354.164062 363 353.445312 363.484375 C 352.722656 363.964844 351.960938 364.371094 351.160156 364.703125 C 350.359375 365.035156 349.535156 365.285156 348.683594 365.453125 C 347.835938 365.621094 346.976562 365.707031 346.109375 365.707031 Z M 42.457031 339.316406 L 332.90625 339.316406 L 332.90625 75.429688 L 42.457031 75.429688 Z M 42.457031 339.316406 " fill-opacity="1" fill-rule="nonzero"/></g><g clip-path="url(#29730b1003)"><path fill="#efa038" d="M 82.0625 75.429688 C 81.195312 75.429688 80.335938 75.34375 79.488281 75.175781 C 78.636719 75.007812 77.8125 74.757812 77.011719 74.425781 C 76.210938 74.09375 75.449219 73.6875 74.726562 73.207031 C 74.007812 72.722656 73.339844 72.175781 72.726562 71.5625 C 72.113281 70.953125 71.566406 70.285156 71.085938 69.566406 C 70.601562 68.84375 70.195312 68.085938 69.863281 67.285156 C 69.53125 66.484375 69.28125 65.65625 69.113281 64.808594 C 68.945312 63.957031 68.859375 63.101562 68.859375 62.234375 L 68.859375 22.652344 C 68.859375 21.785156 68.945312 20.925781 69.113281 20.078125 C 69.28125 19.226562 69.53125 18.402344 69.863281 17.601562 C 70.195312 16.800781 70.601562 16.039062 71.085938 15.320312 C 71.566406 14.601562 72.113281 13.933594 72.726562 13.320312 C 73.339844 12.707031 74.007812 12.160156 74.726562 11.679688 C 75.449219 11.199219 76.210938 10.792969 77.011719 10.460938 C 77.8125 10.128906 78.636719 9.878906 79.488281 9.710938 C 80.335938 9.542969 81.195312 9.457031 82.0625 9.457031 C 82.929688 9.457031 83.789062 9.542969 84.636719 9.710938 C 85.488281 9.878906 86.3125 10.128906 87.113281 10.460938 C 87.914062 10.792969 88.675781 11.199219 89.398438 11.679688 C 90.117188 12.160156 90.785156 12.707031 91.398438 13.320312 C 92.011719 13.933594 92.558594 14.601562 93.039062 15.320312 C 93.519531 16.039062 93.929688 16.800781 94.257812 17.601562 C 94.589844 18.402344 94.839844 19.226562 95.011719 20.078125 C 95.179688 20.925781 95.265625 21.785156 95.265625 22.652344 L 95.265625 62.234375 C 95.265625 63.101562 95.179688 63.957031 95.011719 64.808594 C 94.839844 65.65625 94.589844 66.484375 94.257812 67.285156 C 93.929688 68.085938 93.519531 68.84375 93.039062 69.566406 C 92.558594 70.285156 92.011719 70.953125 91.398438 71.5625 C 90.785156 72.175781 90.117188 72.722656 89.398438 73.207031 C 88.675781 73.6875 87.914062 74.09375 87.113281 74.425781 C 86.3125 74.757812 85.488281 75.007812 84.636719 75.175781 C 83.789062 75.34375 82.929688 75.429688 82.0625 75.429688 Z M 82.0625 75.429688 " fill-opacity="1" fill-rule="nonzero"/></g><g clip-path="url(#3cb10e4261)"><path fill="#efa038" d="M 293.300781 75.429688 C 292.433594 75.429688 291.574219 75.34375 290.722656 75.175781 C 289.875 75.007812 289.046875 74.757812 288.246094 74.425781 C 287.445312 74.09375 286.683594 73.6875 285.964844 73.207031 C 285.242188 72.722656 284.578125 72.175781 283.964844 71.5625 C 283.351562 70.953125 282.804688 70.285156 282.320312 69.566406 C 281.839844 68.84375 281.433594 68.085938 281.101562 67.285156 C 280.769531 66.484375 280.519531 65.65625 280.351562 64.808594 C 280.183594 63.957031 280.097656 63.101562 280.097656 62.234375 L 280.097656 22.652344 C 280.097656 21.785156 280.183594 20.925781 280.351562 20.078125 C 280.519531 19.226562 280.769531 18.402344 281.101562 17.601562 C 281.433594 16.800781 281.839844 16.039062 282.320312 15.320312 C 282.804688 14.601562 283.351562 13.933594 283.964844 13.320312 C 284.578125 12.707031 285.242188 12.160156 285.964844 11.679688 C 286.683594 11.199219 287.445312 10.792969 288.246094 10.460938 C 289.046875 10.128906 289.875 9.878906 290.722656 9.710938 C 291.574219 9.542969 292.433594 9.457031 293.300781 9.457031 C 294.167969 9.457031 295.023438 9.542969 295.875 9.710938 C 296.726562 9.878906 297.550781 10.128906 298.351562 10.460938 C 299.152344 10.792969 299.914062 11.199219 300.632812 11.679688 C 301.355469 12.160156 302.023438 12.707031 302.636719 13.320312 C 303.246094 13.933594 303.796875 14.601562 304.277344 15.320312 C 304.757812 16.039062 305.164062 16.800781 305.496094 17.601562 C 305.828125 18.402344 306.078125 19.226562 306.25 20.078125 C 306.417969 20.925781 306.5 21.785156 306.5 22.652344 L 306.5 62.234375 C 306.5 63.101562 306.417969 63.957031 306.25 64.808594 C 306.078125 65.65625 305.828125 66.484375 305.496094 67.285156 C 305.164062 68.085938 304.757812 68.84375 304.277344 69.566406 C 303.796875 70.285156 303.246094 70.953125 302.636719 71.5625 C 302.023438 72.175781 301.355469 72.722656 300.632812 73.207031 C 299.914062 73.6875 299.152344 74.09375 298.351562 74.425781 C 297.550781 74.757812 296.726562 75.007812 295.875 75.175781 C 295.023438 75.34375 294.167969 75.429688 293.300781 75.429688 Z M 293.300781 75.429688 " fill-opacity="1" fill-rule="nonzero"/></g><path fill="#efa038" d="M 95.265625 154.59375 L 121.667969 154.59375 L 121.667969 180.984375 L 95.265625 180.984375 Z M 95.265625 154.59375 " fill-opacity="1" fill-rule="nonzero"/><path fill="#efa038" d="M 174.480469 154.59375 L 200.882812 154.59375 L 200.882812 180.984375 L 174.480469 180.984375 Z M 174.480469 154.59375 " fill-opacity="1" fill-rule="nonzero"/><path fill="#efa038" d="M 253.691406 154.59375 L 280.097656 154.59375 L 280.097656 180.984375 L 253.691406 180.984375 Z M 253.691406 154.59375 " fill-opacity="1" fill-rule="nonzero"/><path fill="#efa038" d="M 95.265625 220.566406 L 121.667969 220.566406 L 121.667969 246.957031 L 95.265625 246.957031 Z M 95.265625 220.566406 " fill-opacity="1" fill-rule="nonzero"/><path fill="#efa038" d="M 174.480469 220.566406 L 200.882812 220.566406 L 200.882812 246.957031 L 174.480469 246.957031 Z M 174.480469 220.566406 " fill-opacity="1" fill-rule="nonzero"/><path fill="#efa038" d="M 253.691406 220.566406 L 280.097656 220.566406 L 280.097656 246.957031 L 253.691406 246.957031 Z M 253.691406 220.566406 " fill-opacity="1" fill-rule="nonzero"/><path fill="#efa038" d="M 95.265625 286.539062 L 121.667969 286.539062 L 121.667969 312.929688 L 95.265625 312.929688 Z M 95.265625 286.539062 " fill-opacity="1" fill-rule="nonzero"/><path fill="#efa038" d="M 174.480469 286.539062 L 200.882812 286.539062 L 200.882812 312.929688 L 174.480469 312.929688 Z M 174.480469 286.539062 " fill-opacity="1" fill-rule="nonzero"/><path fill="#efa038" d="M 253.691406 286.539062 L 280.097656 286.539062 L 280.097656 312.929688 L 253.691406 312.929688 Z M 253.691406 286.539062 " fill-opacity="1" fill-rule="nonzero"/><g clip-path="url(#d9704281de)"><path fill="#efa038" d="M 346.109375 134.277344 L 29.253906 134.277344 C 28.386719 134.277344 27.527344 134.191406 26.675781 134.023438 C 25.828125 133.851562 25 133.601562 24.199219 133.273438 C 23.398438 132.941406 22.640625 132.535156 21.917969 132.050781 C 21.199219 131.570312 20.53125 131.023438 19.917969 130.410156 C 19.304688 129.796875 18.757812 129.132812 18.277344 128.410156 C 17.792969 127.691406 17.386719 126.929688 17.054688 126.128906 C 16.722656 125.332031 16.472656 124.503906 16.304688 123.65625 C 16.136719 122.804688 16.050781 121.949219 16.050781 121.082031 C 16.050781 120.214844 16.136719 119.355469 16.304688 118.507812 C 16.472656 117.65625 16.722656 116.832031 17.054688 116.03125 C 17.386719 115.230469 17.792969 114.472656 18.277344 113.75 C 18.757812 113.03125 19.304688 112.363281 19.917969 111.75 C 20.53125 111.140625 21.199219 110.59375 21.917969 110.109375 C 22.640625 109.628906 23.398438 109.222656 24.199219 108.890625 C 25 108.558594 25.828125 108.308594 26.675781 108.140625 C 27.527344 107.972656 28.386719 107.886719 29.253906 107.886719 L 346.109375 107.886719 C 346.976562 107.886719 347.835938 107.972656 348.683594 108.140625 C 349.535156 108.308594 350.359375 108.558594 351.160156 108.890625 C 351.960938 109.222656 352.722656 109.628906 353.445312 110.109375 C 354.164062 110.59375 354.832031 111.140625 355.445312 111.75 C 356.058594 112.363281 356.605469 113.03125 357.085938 113.75 C 357.566406 114.472656 357.972656 115.230469 358.304688 116.03125 C 358.636719 116.832031 358.886719 117.65625 359.058594 118.507812 C 359.226562 119.355469 359.3125 120.214844 359.3125 121.082031 C 359.3125 121.949219 359.226562 122.804688 359.058594 123.65625 C 358.886719 124.503906 358.636719 125.332031 358.304688 126.128906 C 357.972656 126.929688 357.566406 127.691406 357.085938 128.410156 C 356.605469 129.132812 356.058594 129.796875 355.445312 130.410156 C 354.832031 131.023438 354.164062 131.570312 353.445312 132.050781 C 352.722656 132.535156 351.960938 132.941406 351.160156 133.273438 C 350.359375 133.601562 349.535156 133.851562 348.683594 134.023438 C 347.835938 134.191406 346.976562 134.277344 346.109375 134.277344 Z M 346.109375 134.277344 " fill-opacity="1" fill-rule="nonzero"/></g></svg>