<svg xmlns="http://www.w3.org/2000/svg" xmlns:xlink="http://www.w3.org/1999/xlink" width="500" zoomAndPan="magnify" viewBox="0 0 375 374.999991" height="500" preserveAspectRatio="xMidYMid meet" version="1.0"><defs><clipPath id="58e4007b2d"><path d="M 140 5.113281 L 179 5.113281 L 179 58 L 140 58 Z M 140 5.113281 " clip-rule="nonzero"/></clipPath><clipPath id="8d8e466559"><path d="M 49.570312 75 L 60 75 L 60 92 L 49.570312 92 Z M 49.570312 75 " clip-rule="nonzero"/></clipPath><clipPath id="d4a6273234"><path d="M 200 152 L 308 152 L 308 369.613281 L 200 369.613281 Z M 200 152 " clip-rule="nonzero"/></clipPath><clipPath id="4d579a7407"><path d="M 315 166 L 325.570312 166 L 325.570312 183 L 315 183 Z M 315 166 " clip-rule="nonzero"/></clipPath></defs><g clip-path="url(#58e4007b2d)"><path fill="#56a495" d="M 160.097656 5.113281 L 162.902344 5.113281 C 185.660156 12.878906 183.246094 50.832031 160.523438 57.519531 C 156.628906 57.90625 152.101562 56.457031 149.453125 53.402344 C 133.222656 40.039062 141.910156 11.25 160.097656 5.113281 Z M 160.097656 5.113281 " fill-opacity="1" fill-rule="nonzero"/></g><path fill="#56a495" d="M 123.121094 18.839844 C 136.71875 22.238281 133 48.210938 119.261719 48.976562 C 106.59375 43.3125 110.957031 23.242188 123.121094 18.839844 Z M 123.121094 18.839844 " fill-opacity="1" fill-rule="nonzero"/><path fill="#56a495" d="M 95.023438 30.921875 C 105.375 30.75 106.191406 46.746094 99.628906 52.535156 C 97.902344 58.386719 87.039062 57.21875 88.070312 50.160156 C 84.003906 44.03125 89.65625 35.203125 95.023438 30.921875 Z M 95.023438 30.921875 " fill-opacity="1" fill-rule="nonzero"/><path fill="#56a495" d="M 71.816406 50.871094 C 84.136719 52.570312 79 74.472656 67.847656 74.265625 C 60.886719 68.25 63.324219 54.441406 71.816406 50.871094 Z M 71.816406 50.871094 " fill-opacity="1" fill-rule="nonzero"/><path fill="#56a495" d="M 118.804688 61.792969 C 144.53125 57.636719 170.6875 78.066406 174.824219 103.265625 C 172.265625 127.261719 148.433594 143.535156 143.921875 166.742188 C 139.335938 192.507812 156.507812 213.261719 163.722656 236.402344 C 168.578125 248.578125 168.386719 267.289062 154.199219 273.410156 C 145.550781 282.109375 130.402344 279.558594 123.800781 269.277344 C 110.347656 250.386719 112.910156 226.867188 103.554688 206.28125 C 92.503906 180.265625 75.074219 156.679688 69.070312 128.683594 C 61.664062 108.261719 74.054688 85.085938 92.109375 73.785156 C 100.398438 68.507812 109.300781 64.8125 118.804688 61.792969 Z M 118.804688 61.792969 " fill-opacity="1" fill-rule="nonzero"/><g clip-path="url(#8d8e466559)"><path fill="#56a495" d="M 49.667969 81.195312 C 50.996094 78.269531 52.554688 73.816406 56.871094 75.757812 C 64.792969 79.652344 55.179688 99.660156 49.667969 87.929688 Z M 49.667969 81.195312 " fill-opacity="1" fill-rule="nonzero"/></g><path fill="#56a495" d="M 210.53125 97.089844 C 235.160156 96.65625 242.058594 136.789062 220.839844 147.5 C 209.351562 150.625 198.269531 139.113281 197.269531 128.148438 C 192.835938 117.878906 197.640625 100.28125 210.53125 97.089844 Z M 210.53125 97.089844 " fill-opacity="1" fill-rule="nonzero"/><path fill="#56a495" d="M 250.175781 109.964844 C 263.324219 110.714844 268.574219 137.539062 253.089844 139.652344 C 242.523438 135.269531 237.976562 114.820312 250.175781 109.964844 Z M 250.175781 109.964844 " fill-opacity="1" fill-rule="nonzero"/><path fill="#56a495" d="M 275.980469 122.527344 C 288.269531 121.722656 292.816406 144.75 279.976562 147.992188 C 271.855469 143.066406 266.570312 128.78125 275.980469 122.527344 Z M 275.980469 122.527344 " fill-opacity="1" fill-rule="nonzero"/><path fill="#56a495" d="M 300.308594 141.777344 C 311.289062 140.933594 314.476562 159.636719 305.851562 165.089844 C 295.734375 164.050781 292.027344 147.429688 300.308594 141.777344 Z M 300.308594 141.777344 " fill-opacity="1" fill-rule="nonzero"/><g clip-path="url(#d4a6273234)"><path fill="#56a495" d="M 219.394531 161.804688 C 253.300781 136.691406 309.429688 168.0625 307.519531 209.824219 C 302.289062 243.480469 281.367188 271.683594 268.679688 302.710938 C 264.058594 317.867188 261.964844 333.578125 257.019531 348.640625 C 252.914062 358.082031 245.535156 368.582031 234.4375 369.613281 L 233.269531 369.613281 C 216.324219 367.019531 201.597656 348.589844 209.851562 331.480469 C 215.203125 308.378906 233.25 288.816406 230.621094 263.964844 C 231.164062 239.339844 208.359375 223.507812 201.085938 201.597656 C 198.691406 186.332031 207.441406 170.9375 219.394531 161.804688 Z M 219.394531 161.804688 " fill-opacity="1" fill-rule="nonzero"/></g><g clip-path="url(#4d579a7407)"><path fill="#56a495" d="M 325.472656 179.527344 C 318.28125 188.792969 309.972656 169.644531 318.839844 166.183594 C 322.667969 166.421875 323.195312 170.152344 325.472656 172.214844 Z M 325.472656 179.527344 " fill-opacity="1" fill-rule="nonzero"/></g></svg>