<svg xmlns="http://www.w3.org/2000/svg" xmlns:xlink="http://www.w3.org/1999/xlink" width="500" zoomAndPan="magnify" viewBox="0 0 375 374.999991" height="500" preserveAspectRatio="xMidYMid meet" version="1.0"><defs><clipPath id="1b6700d191"><path d="M 28.417969 10 L 346 10 L 346 364.707031 L 28.417969 364.707031 Z M 28.417969 10 " clip-rule="nonzero"/></clipPath></defs><g clip-path="url(#1b6700d191)"><path fill="#383551" d="M 174.589844 10.496094 C 161.691406 12.226562 151.425781 15.902344 147.890625 19.921875 C 145.601562 22.484375 145.324219 24.152344 146.78125 26.921875 C 148.375 29.90625 155.449219 36.417969 160.375 39.402344 C 164.605469 41.96875 164.878906 42.3125 165.089844 44.878906 C 165.226562 46.539062 164.953125 47.929688 164.394531 48.34375 C 163.910156 48.691406 159.957031 49.734375 155.660156 50.5625 C 114.953125 58.535156 77.851562 83.625 54.832031 118.839844 C 41.933594 138.523438 33.890625 159.597656 30.285156 183.027344 C 28.550781 194.117188 28.550781 217.683594 30.285156 228.773438 C 35.761719 264.261719 51.710938 295.25 77.300781 319.996094 C 101.359375 343.214844 130.832031 357.773438 164.535156 362.972656 C 175.632812 364.703125 199.207031 364.703125 210.304688 362.972656 C 246.085938 357.425781 277.636719 341.066406 302.324219 315.140625 C 325.765625 290.605469 340.1875 260.382812 344.972656 225.996094 C 346.289062 216.433594 346.082031 192.863281 344.625 183.371094 C 340.601562 157.929688 332.902344 138.242188 318.621094 116.894531 L 312.171875 107.191406 L 316.472656 102.894531 C 320.632812 98.734375 320.839844 98.597656 325.277344 98.113281 C 327.773438 97.832031 330.550781 97.347656 331.308594 97.070312 C 337.757812 94.644531 335.886719 86.257812 326.730469 76.070312 C 316.257812 64.421875 305.441406 59.433594 301.769531 64.496094 C 301.074219 65.464844 300.171875 68.582031 299.6875 71.429688 C 298.996094 76.421875 298.789062 76.765625 295.042969 80.578125 C 292.890625 82.796875 290.878906 84.597656 290.605469 84.597656 C 290.328125 84.597656 286.929688 82.308594 283.183594 79.46875 C 263.558594 64.910156 241.089844 54.722656 219.320312 50.558594 C 214.949219 49.730469 210.925781 48.6875 210.511719 48.339844 C 210.027344 47.992188 209.613281 46.46875 209.613281 45.015625 C 209.613281 42.589844 209.890625 42.175781 212.25 40.996094 C 220.292969 36.90625 229.03125 28.035156 229.03125 24.015625 C 228.964844 16.457031 212.664062 10.636719 190.195312 10.082031 C 184.300781 9.941406 177.292969 10.078125 174.589844 10.496094 Z M 200.386719 78.078125 C 230.136719 80.226562 263.074219 97.140625 283.878906 120.917969 C 318.066406 159.941406 325.625 215.257812 303.226562 261.769531 C 284.433594 300.726562 247.539062 327.414062 204.0625 333.511719 C 196.574219 334.550781 178.40625 334.550781 170.773438 333.511719 C 157.042969 331.636719 144.285156 327.757812 131.597656 321.65625 C 89.851562 301.554688 62.457031 261.214844 59.199219 214.773438 C 54.96875 156.410156 91.234375 102.339844 146.851562 83.972656 C 164.953125 78.011719 178.609375 76.484375 200.386719 78.078125 Z M 200.386719 78.078125 " fill-opacity="1" fill-rule="nonzero"/></g><path fill="#383551" d="M 188.878906 99.773438 L 187.417969 101.230469 L 187.417969 194.257812 L 189.429688 196.265625 L 191.511719 198.277344 L 241.578125 198.140625 L 291.644531 197.933594 L 293.027344 195.992188 C 294.414062 194.191406 294.414062 193.773438 293.652344 188.296875 C 291.710938 174.707031 285.195312 158.625 276.316406 145.25 C 270.558594 136.519531 257.523438 123.347656 248.785156 117.453125 C 232.910156 106.640625 214.113281 99.914062 196.710938 98.738281 C 190.886719 98.320312 190.261719 98.390625 188.878906 99.773438 Z M 188.878906 99.773438 " fill-opacity="1" fill-rule="nonzero"/></svg>