<svg xmlns="http://www.w3.org/2000/svg" xmlns:xlink="http://www.w3.org/1999/xlink" width="1920" zoomAndPan="magnify" viewBox="0 0 1440 809.999993" height="1080" preserveAspectRatio="xMidYMid meet" version="1.0"><defs><clipPath id="07ed56bc9a"><path d="M 245 200.183594 L 308 200.183594 L 308 235 L 245 235 Z M 245 200.183594 " clip-rule="nonzero"/></clipPath><clipPath id="49e5426d93"><path d="M 18 382 L 418 382 L 418 609.683594 L 18 609.683594 Z M 18 382 " clip-rule="nonzero"/></clipPath></defs><g clip-path="url(#07ed56bc9a)"><path fill="#011e41" d="M 307.34375 210.507812 L 245.890625 200.183594 L 251.300781 234.59375 Z M 307.34375 210.507812 " fill-opacity="1" fill-rule="nonzero"/></g><path fill="#0082ca" d="M 330.941406 263.597656 L 299.480469 278.839844 L 186.898438 262.617188 L 307.34375 210.507812 Z M 330.941406 263.597656 " fill-opacity="1" fill-rule="nonzero"/><path fill="#011e41" d="M 186.898438 262.617188 L 340.285156 285.230469 L 231.144531 341.273438 L 179.03125 338.320312 Z M 186.898438 262.617188 " fill-opacity="1" fill-rule="nonzero"/><path fill="#0082ca" d="M 369.289062 349.628906 L 320.128906 378.140625 L 175.589844 369.785156 L 340.285156 285.230469 Z M 369.289062 349.628906 " fill-opacity="1" fill-rule="nonzero"/><path fill="#011e41" d="M 175.589844 369.785156 L 383.546875 382.074219 L 249.824219 465.152344 L 165.265625 469.085938 Z M 175.589844 369.785156 " fill-opacity="1" fill-rule="nonzero"/><g clip-path="url(#49e5426d93)"><path fill="#0082ca" d="M 417.46875 458.273438 L 383.546875 382.074219 L 18.269531 609.683594 L 238.519531 586.578125 Z M 417.46875 458.273438 " fill-opacity="1" fill-rule="nonzero"/></g><path fill="#19233e" d="M 524.152344 270.972656 C 518.253906 270.972656 512.351562 271.957031 506.453125 274.90625 C 501.535156 277.363281 497.113281 280.804688 494.164062 285.230469 L 494.164062 369.785156 L 475.972656 369.785156 L 475.972656 257.699219 L 494.164062 257.699219 L 494.164062 266.550781 C 498.09375 263.109375 503.011719 260.160156 507.929688 258.191406 C 513.828125 255.734375 520.21875 254.75 526.609375 254.75 C 539.390625 254.257812 551.683594 258.683594 560.53125 267.53125 C 568.890625 275.890625 572.824219 288.671875 572.824219 305.875 L 572.824219 369.292969 L 554.632812 369.292969 L 554.632812 305.386719 C 554.632812 293.09375 552.175781 284.246094 546.765625 278.839844 C 540.867188 272.941406 532.507812 269.988281 524.152344 270.972656 Z M 636.734375 372.242188 C 630.835938 372.242188 624.933594 371.75 619.527344 369.785156 C 614.609375 368.308594 609.695312 365.851562 605.761719 362.902344 C 601.828125 359.953125 598.878906 356.019531 596.910156 352.085938 C 594.453125 347.171875 593.46875 341.761719 593.46875 336.355469 C 592.980469 325.539062 597.894531 315.707031 606.253906 309.316406 C 614.609375 302.4375 626.902344 299.484375 642.632812 299.484375 L 670.65625 299.484375 L 670.65625 291.621094 C 671.148438 285.230469 668.6875 279.332031 663.773438 275.398438 C 656.890625 271.957031 649.515625 270.480469 641.648438 270.972656 C 635.257812 270.972656 628.867188 271.957031 622.476562 273.429688 C 616.085938 274.90625 610.1875 276.871094 604.777344 279.820312 L 602.8125 263.597656 C 608.710938 260.648438 614.609375 258.683594 621 257.207031 C 627.882812 255.734375 634.765625 254.75 641.648438 254.75 C 648.53125 254.75 654.921875 255.242188 661.804688 256.71875 C 667.214844 257.699219 672.128906 260.160156 676.554688 263.597656 C 680.488281 267.039062 683.929688 271.464844 685.40625 276.382812 C 687.371094 282.773438 688.355469 289.164062 688.355469 295.554688 L 688.355469 368.800781 L 670.164062 368.800781 L 670.164062 359.953125 C 665.738281 363.886719 660.824219 366.835938 655.414062 368.308594 C 649.515625 371.257812 643.125 372.242188 636.734375 372.242188 Z M 638.207031 356.019531 C 644.601562 356.019531 650.992188 355.035156 657.382812 352.578125 C 662.789062 350.613281 667.214844 346.679688 670.65625 342.253906 L 670.65625 315.21875 L 643.125 315.21875 C 634.765625 314.726562 626.410156 316.691406 619.527344 321.117188 C 614.609375 324.558594 611.660156 330.457031 612.152344 336.847656 C 611.660156 342.746094 614.609375 348.644531 619.527344 352.085938 C 624.933594 354.542969 631.816406 356.511719 638.207031 356.019531 Z M 703.59375 257.699219 L 723.75 257.699219 L 723.75 223.78125 L 741.941406 223.78125 L 741.941406 257.207031 L 775.863281 257.207031 L 775.863281 272.941406 L 741.941406 272.941406 L 741.941406 326.523438 C 741.941406 331.441406 742.433594 336.847656 742.925781 341.761719 C 743.417969 345.203125 744.890625 348.152344 746.859375 350.613281 C 748.332031 352.578125 750.789062 354.054688 753.25 355.035156 C 756.199219 356.019531 759.640625 356.019531 762.589844 356.019531 C 766.03125 356.019531 769.964844 355.527344 773.40625 354.542969 L 775.371094 370.765625 C 772.914062 371.257812 770.457031 371.75 767.503906 371.75 C 764.554688 371.75 762.589844 372.242188 760.621094 372.242188 C 750.789062 373.226562 740.464844 369.785156 733.09375 362.902344 C 726.699219 356.511719 723.75 347.171875 723.75 333.898438 L 723.75 272.941406 L 703.59375 272.941406 Z M 792.085938 223.289062 C 792.085938 216.898438 797.003906 211.980469 803.394531 211.980469 C 809.785156 211.980469 814.703125 216.898438 814.703125 223.289062 C 814.703125 229.679688 809.785156 234.59375 803.394531 234.59375 C 797.003906 234.59375 792.085938 229.1875 792.085938 223.289062 Z M 794.546875 257.699219 L 812.734375 257.699219 L 812.734375 369.785156 L 794.546875 369.785156 Z M 834.859375 313.742188 C 834.859375 305.875 835.839844 298.011719 838.792969 290.144531 C 841.25 283.261719 844.691406 276.871094 849.605469 271.464844 C 854.523438 266.058594 859.929688 262.125 866.8125 259.175781 C 881.070312 253.277344 897.292969 253.277344 911.550781 259.175781 C 917.941406 262.125 923.84375 266.058594 928.265625 271.464844 C 933.183594 276.871094 936.625 283.261719 939.082031 290.144531 C 944 305.386719 944 321.609375 939.082031 336.847656 C 936.625 343.730469 933.183594 350.121094 928.265625 355.527344 C 923.351562 360.933594 917.941406 365.359375 911.058594 367.816406 C 896.804688 373.71875 880.578125 373.71875 866.324219 367.816406 C 859.929688 364.867188 854.03125 360.933594 849.117188 355.527344 C 844.199219 350.121094 840.757812 343.730469 838.300781 336.847656 C 836.332031 329.472656 834.859375 321.609375 834.859375 313.742188 Z M 853.539062 313.742188 C 853.046875 325.050781 856 335.863281 862.882812 344.710938 C 876.15625 358.96875 898.769531 359.953125 913.027344 346.679688 C 913.519531 346.1875 914.5 345.203125 914.992188 344.710938 C 921.382812 335.863281 924.824219 324.558594 924.332031 313.742188 C 924.824219 302.4375 921.875 291.621094 914.992188 282.773438 C 901.71875 268.515625 879.105469 267.53125 864.847656 280.804688 C 864.355469 281.296875 863.371094 282.28125 862.882812 282.773438 C 856.488281 291.128906 853.046875 302.4375 853.539062 313.742188 Z M 1013.808594 270.972656 C 1007.910156 270.972656 1002.011719 271.957031 996.601562 274.90625 C 991.6875 277.363281 987.261719 280.804688 984.3125 285.230469 L 984.3125 369.785156 L 966.121094 369.785156 L 966.121094 257.699219 L 984.3125 257.699219 L 984.3125 266.550781 C 988.246094 263.109375 993.160156 260.160156 998.078125 258.191406 C 1003.976562 255.734375 1010.367188 254.75 1016.757812 254.75 C 1029.542969 254.257812 1041.832031 258.683594 1050.679688 267.53125 C 1059.039062 275.890625 1062.972656 288.671875 1062.972656 305.875 L 1062.972656 369.292969 L 1044.78125 369.292969 L 1044.78125 305.386719 C 1044.78125 293.09375 1042.324219 284.246094 1036.914062 278.839844 C 1030.523438 273.429688 1022.167969 270.480469 1013.808594 270.972656 Z M 1124.917969 372.242188 C 1119.015625 372.242188 1113.117188 371.75 1107.710938 369.785156 C 1102.792969 368.308594 1097.878906 366.34375 1093.945312 362.902344 C 1090.011719 359.953125 1087.0625 356.019531 1084.605469 352.085938 C 1082.144531 347.171875 1081.164062 341.761719 1081.164062 336.355469 C 1080.671875 325.539062 1085.585938 315.707031 1093.945312 309.316406 C 1102.300781 302.4375 1114.59375 299.484375 1130.324219 299.484375 L 1158.347656 299.484375 L 1158.347656 291.621094 C 1158.839844 285.230469 1156.378906 279.332031 1151.464844 275.398438 C 1144.582031 271.957031 1137.207031 270.480469 1129.339844 270.972656 C 1122.949219 270.972656 1116.558594 271.957031 1110.167969 273.429688 C 1103.777344 274.90625 1097.878906 276.871094 1092.46875 279.820312 L 1090.503906 263.597656 C 1096.402344 260.648438 1102.300781 258.683594 1108.691406 257.207031 C 1115.574219 255.734375 1122.457031 254.75 1129.339844 254.75 C 1136.222656 254.75 1142.617188 255.242188 1149.007812 256.71875 C 1154.414062 257.699219 1159.332031 260.160156 1163.753906 263.597656 C 1167.6875 267.039062 1171.128906 271.464844 1172.605469 276.382812 C 1174.570312 282.773438 1175.554688 289.164062 1175.554688 295.554688 L 1175.554688 368.800781 L 1158.839844 368.800781 L 1158.839844 359.953125 C 1154.414062 363.886719 1149.5 366.835938 1144.089844 368.308594 C 1137.699219 371.257812 1131.308594 372.242188 1124.917969 372.242188 Z M 1126.882812 356.019531 C 1133.273438 356.019531 1139.664062 355.035156 1146.054688 352.578125 C 1151.464844 350.613281 1155.890625 346.679688 1159.332031 342.253906 L 1159.332031 314.726562 L 1132.292969 314.726562 C 1123.933594 314.234375 1115.574219 316.199219 1108.691406 320.625 C 1103.777344 324.066406 1100.828125 329.964844 1101.320312 336.355469 C 1100.828125 342.253906 1103.777344 348.152344 1108.691406 351.59375 C 1113.609375 354.542969 1120 356.511719 1126.882812 356.019531 Z M 1205.050781 211.488281 L 1223.242188 211.488281 L 1223.242188 369.292969 L 1205.050781 369.292969 Z M 528.578125 459.746094 C 520.710938 459.746094 513.828125 462.695312 508.417969 468.105469 L 508.417969 551.183594 L 475.972656 551.183594 L 475.972656 393.382812 L 508.417969 393.382812 L 508.417969 446.472656 C 512.351562 443.523438 516.285156 441.066406 521.203125 439.589844 C 526.609375 437.625 532.019531 436.640625 537.425781 436.640625 C 550.207031 436.148438 562.5 440.574219 570.855469 449.914062 C 578.722656 458.761719 582.65625 472.035156 582.65625 489.242188 L 582.65625 551.183594 L 550.207031 551.183594 L 550.207031 489.734375 C 550.699219 481.867188 548.734375 473.511719 544.800781 466.628906 C 541.359375 462.203125 534.96875 459.253906 528.578125 459.746094 Z M 605.269531 409.605469 C 604.777344 405.179688 606.253906 400.753906 609.695312 397.3125 C 613.628906 394.363281 618.542969 392.890625 623.953125 393.382812 C 628.867188 392.890625 634.277344 394.363281 638.207031 397.3125 C 643.617188 404.6875 643.617188 414.519531 638.207031 421.402344 C 634.277344 424.351562 628.867188 425.828125 623.953125 425.335938 C 619.035156 425.828125 613.628906 424.351562 609.695312 421.402344 C 606.746094 418.453125 604.777344 414.027344 605.269531 409.605469 Z M 607.726562 439.097656 L 640.175781 439.097656 L 640.175781 551.183594 L 607.726562 551.183594 Z M 659.347656 494.160156 C 659.347656 486.292969 660.332031 477.933594 663.28125 470.5625 C 665.738281 463.679688 669.179688 457.78125 674.097656 452.371094 C 678.523438 447.457031 683.929688 443.523438 689.828125 441.066406 C 695.726562 438.609375 702.609375 437.132812 709.003906 437.132812 C 714.410156 437.132812 719.816406 438.117188 724.734375 440.082031 C 729.160156 441.558594 733.09375 444.015625 736.535156 447.457031 L 736.535156 440.082031 L 768.980469 440.082031 L 768.980469 541.351562 C 768.980469 549.707031 767.996094 558.066406 765.539062 565.929688 C 763.574219 572.320312 760.132812 578.222656 755.214844 582.644531 C 749.808594 587.5625 743.90625 590.511719 737.023438 592.476562 C 728.175781 594.9375 719.328125 595.917969 709.984375 595.425781 C 703.101562 595.425781 695.726562 594.9375 688.847656 593.460938 C 682.453125 592.476562 676.0625 590.019531 670.65625 587.070312 L 672.621094 561.507812 C 677.539062 564.949219 683.4375 567.898438 689.335938 569.863281 C 695.238281 571.832031 701.628906 572.8125 708.019531 572.8125 C 715.394531 573.304688 722.769531 570.847656 728.667969 566.914062 C 734.074219 562 737.023438 554.625 736.535156 547.25 L 736.535156 542.335938 C 733.09375 545.777344 729.160156 548.234375 724.734375 549.707031 C 719.816406 551.675781 714.410156 552.660156 709.003906 552.660156 C 702.121094 552.660156 695.726562 551.183594 689.828125 548.726562 C 683.929688 546.265625 678.523438 542.335938 674.097656 537.417969 C 669.179688 532.011719 665.738281 526.113281 663.28125 519.230469 C 660.332031 510.871094 658.855469 502.515625 659.347656 494.160156 Z M 691.796875 494.160156 C 691.304688 503.5 693.761719 512.347656 698.679688 519.722656 C 702.609375 525.128906 709.003906 528.078125 715.886719 528.078125 C 719.816406 528.078125 723.75 527.585938 727.191406 526.113281 C 730.632812 524.636719 733.582031 522.671875 736.535156 519.722656 L 736.535156 468.59375 C 734.074219 466.136719 730.632812 463.679688 727.191406 462.203125 C 723.75 460.730469 719.816406 459.746094 715.886719 459.746094 C 709.003906 459.746094 702.609375 462.695312 698.679688 468.105469 C 694.253906 474.003906 691.796875 482.359375 691.796875 494.160156 Z M 846.65625 459.746094 C 842.722656 459.746094 838.792969 460.730469 834.859375 462.203125 C 831.417969 463.679688 828.46875 465.644531 826.007812 468.105469 L 826.007812 551.183594 L 793.5625 551.183594 L 793.5625 393.871094 L 826.007812 393.871094 L 826.007812 446.964844 C 829.941406 444.015625 833.875 441.558594 838.792969 440.082031 C 844.199219 438.117188 849.605469 437.132812 855.015625 437.132812 C 867.796875 436.640625 880.085938 441.066406 888.445312 450.40625 C 896.3125 459.253906 900.246094 472.527344 900.246094 489.734375 L 900.246094 551.675781 L 868.78125 551.675781 L 868.78125 489.734375 C 868.78125 478.917969 866.8125 471.542969 863.371094 466.628906 C 859.441406 462.203125 853.046875 459.253906 846.65625 459.746094 Z M 1013.316406 439.097656 L 1033.476562 513.332031 L 1054.121094 439.097656 L 1087.0625 439.097656 L 1050.679688 551.183594 L 1017.742188 551.183594 L 998.570312 478.917969 L 979.394531 551.183594 L 946.457031 551.183594 L 910.078125 439.097656 L 943.015625 439.097656 L 963.664062 513.332031 L 983.820312 439.097656 Z M 1133.273438 553.640625 C 1127.867188 553.640625 1122.457031 552.660156 1117.050781 551.183594 C 1112.132812 549.707031 1107.710938 547.25 1103.777344 544.300781 C 1099.84375 541.351562 1096.894531 537.417969 1094.925781 532.996094 C 1092.46875 528.078125 1091.484375 523.164062 1091.484375 517.753906 C 1090.996094 506.941406 1095.910156 496.617188 1104.761719 489.734375 C 1113.609375 482.851562 1126.390625 479.410156 1143.105469 479.410156 L 1163.753906 479.410156 L 1163.753906 474.496094 C 1164.246094 470.070312 1162.28125 465.644531 1158.839844 463.1875 C 1153.921875 460.730469 1148.023438 459.746094 1142.125 459.746094 C 1135.242188 459.746094 1128.359375 460.730469 1121.96875 462.203125 C 1115.574219 463.679688 1109.675781 466.136719 1103.777344 469.085938 L 1100.828125 445.980469 C 1107.21875 443.03125 1114.101562 440.574219 1120.984375 439.097656 C 1128.851562 437.132812 1137.207031 436.148438 1145.566406 436.148438 C 1162.773438 436.148438 1175.554688 439.589844 1183.910156 445.980469 C 1191.777344 452.371094 1196.203125 463.679688 1196.203125 478.917969 L 1196.203125 550.691406 L 1163.753906 550.691406 L 1163.753906 543.316406 C 1159.332031 546.757812 1154.90625 549.21875 1149.988281 551.183594 C 1144.582031 553.640625 1139.175781 554.132812 1133.273438 553.640625 Z M 1141.140625 531.519531 C 1145.566406 531.519531 1149.988281 530.535156 1153.921875 529.0625 C 1157.855469 527.585938 1161.296875 525.128906 1164.246094 522.179688 L 1164.246094 501.53125 L 1144.582031 501.53125 C 1139.175781 501.039062 1133.273438 502.515625 1128.851562 505.957031 C 1125.898438 508.90625 1123.933594 513.332031 1124.425781 517.261719 C 1123.933594 521.195312 1125.898438 525.621094 1128.851562 528.078125 C 1132.292969 530.535156 1136.714844 532.011719 1141.140625 531.519531 Z M 1249.789062 551.183594 L 1205.050781 439.097656 L 1238.972656 439.097656 L 1265.519531 513.332031 L 1292.070312 439.097656 L 1325.992188 439.097656 L 1268.472656 592.96875 L 1234.550781 592.96875 Z M 1374.660156 553.640625 C 1367.289062 553.640625 1359.914062 553.148438 1352.539062 551.675781 C 1345.65625 550.199219 1339.265625 548.234375 1332.875 544.792969 L 1334.347656 518.738281 C 1339.757812 522.671875 1345.65625 525.128906 1352.046875 527.585938 C 1358.4375 529.554688 1364.828125 530.535156 1371.710938 530.535156 C 1383.511719 530.535156 1389.410156 526.605469 1389.410156 519.230469 C 1389.410156 517.753906 1388.917969 516.28125 1388.425781 514.804688 C 1387.445312 513.332031 1386.460938 511.855469 1384.984375 510.871094 C 1383.019531 509.398438 1380.5625 508.414062 1378.101562 507.429688 C 1375.152344 506.449219 1371.710938 504.972656 1367.289062 503.5 C 1357.453125 501.53125 1349.097656 496.617188 1341.722656 489.734375 C 1336.316406 484.328125 1333.367188 476.953125 1333.855469 469.085938 C 1333.367188 459.253906 1337.789062 449.914062 1345.65625 444.507812 C 1353.523438 438.609375 1364.828125 436.148438 1379.578125 436.148438 C 1392.359375 436.148438 1405.140625 438.609375 1416.941406 443.523438 L 1414.484375 467.121094 C 1409.566406 464.664062 1404.652344 462.695312 1399.242188 461.222656 C 1393.835938 459.746094 1388.425781 459.253906 1382.527344 459.253906 C 1378.101562 458.761719 1373.679688 459.746094 1369.746094 461.710938 C 1367.289062 463.1875 1366.304688 465.644531 1366.304688 468.105469 C 1366.304688 471.542969 1367.777344 474.496094 1370.730469 476.460938 C 1376.136719 479.902344 1381.542969 482.359375 1387.445312 483.34375 C 1393.34375 485.308594 1398.75 487.277344 1403.667969 490.226562 C 1407.601562 492.191406 1411.042969 495.140625 1414.484375 498.089844 C 1416.941406 500.550781 1418.90625 503.988281 1420.382812 507.429688 C 1424.808594 520.703125 1420.875 534.960938 1410.550781 544.300781 C 1401.703125 551.183594 1389.902344 554.132812 1374.660156 553.640625 Z M 1374.660156 553.640625 " fill-opacity="1" fill-rule="nonzero"/></svg>