<svg xmlns="http://www.w3.org/2000/svg" xmlns:xlink="http://www.w3.org/1999/xlink" width="1920" zoomAndPan="magnify" viewBox="0 0 1440 809.999993" height="1080" preserveAspectRatio="xMidYMid meet" version="1.0"><defs><clipPath id="48a143539b"><path d="M 329.019531 14.019531 L 1111.269531 14.019531 L 1111.269531 796.269531 L 329.019531 796.269531 Z M 329.019531 14.019531 " clip-rule="nonzero"/></clipPath></defs><rect x="-144" width="1728" fill="#ffffff" y="-80.999999" height="971.999992" fill-opacity="1"/><rect x="-144" width="1728" fill="#ffffff" y="-80.999999" height="971.999992" fill-opacity="1"/><rect x="-144" width="1728" fill="#ffffff" y="-80.999999" height="971.999992" fill-opacity="1"/><g clip-path="url(#48a143539b)"><path fill="#1c97c6" d="M 1083.726562 377.558594 C 1081.421875 377.558594 1079.289062 377.8125 1077.160156 378.324219 C 1065.132812 381.308594 1056.179688 392.140625 1056.179688 405.101562 C 1056.179688 590.324219 905.496094 741.09375 720.1875 741.09375 C 534.964844 741.09375 384.195312 590.410156 384.195312 405.101562 C 384.195312 219.792969 534.878906 69.109375 720.1875 69.109375 C 797.277344 69.109375 870.789062 95.117188 930.3125 142.875 L 888.695312 176.046875 L 1042.28125 236.507812 L 1017.890625 73.289062 L 974.3125 107.910156 C 961.097656 96.652344 947.195312 86.164062 932.613281 76.785156 C 912.148438 63.480469 890.316406 52.054688 867.71875 42.84375 C 844.691406 33.460938 820.730469 26.300781 796.339844 21.4375 C 771.523438 16.492188 745.769531 14.019531 720.1875 14.019531 C 693.664062 14.019531 667.144531 16.664062 641.390625 21.949219 C 616.234375 27.066406 591.589844 34.742188 567.96875 44.71875 C 544.769531 54.527344 522.429688 66.636719 501.535156 80.792969 C 480.8125 94.777344 461.371094 110.808594 443.632812 128.546875 C 425.980469 146.199219 409.863281 165.726562 395.878906 186.449219 C 381.722656 207.34375 369.613281 229.6875 359.804688 252.882812 C 349.828125 276.503906 342.152344 301.234375 337.035156 326.304688 C 331.664062 352.144531 329.019531 378.664062 329.019531 405.1875 C 329.019531 431.707031 331.664062 458.230469 336.949219 483.984375 C 342.066406 509.140625 349.742188 533.785156 359.71875 557.40625 C 369.527344 580.601562 381.636719 602.945312 395.792969 623.839844 C 409.777344 644.5625 425.808594 664.003906 443.546875 681.742188 C 461.199219 699.394531 480.726562 715.511719 501.449219 729.496094 C 522.34375 743.652344 544.6875 755.761719 567.882812 765.570312 C 591.503906 775.546875 616.234375 783.222656 641.304688 788.339844 C 667.058594 793.625 693.582031 796.269531 720.101562 796.269531 C 746.625 796.269531 773.144531 793.625 798.898438 788.339844 C 824.054688 783.222656 848.699219 775.546875 872.320312 765.570312 C 895.515625 755.761719 917.859375 743.652344 938.753906 729.496094 C 959.476562 715.511719 978.917969 699.480469 996.65625 681.742188 C 1014.308594 664.089844 1030.425781 644.5625 1044.410156 623.839844 C 1058.566406 602.945312 1070.675781 580.601562 1080.484375 557.40625 C 1090.460938 533.785156 1098.136719 509.054688 1103.253906 483.984375 C 1108.539062 458.230469 1111.183594 431.707031 1111.183594 405.1875 C 1111.269531 389.921875 1098.902344 377.558594 1083.726562 377.558594 Z M 1083.726562 377.558594 " fill-opacity="1" fill-rule="nonzero"/></g><path fill="#1c97c6" d="M 514.582031 291.085938 L 449.941406 481.511719 L 490.449219 481.511719 L 505.289062 437.507812 L 574.875 437.507812 L 590.566406 481.511719 L 633.886719 481.511719 L 566.433594 291.085938 Z M 513.902344 403.738281 C 524.730469 369.371094 534.28125 339.523438 538.972656 320.761719 L 539.226562 320.761719 C 543.832031 337.902344 552.445312 363.570312 566.003906 403.738281 Z M 513.902344 403.738281 " fill-opacity="1" fill-rule="nonzero"/><path fill="#1c97c6" d="M 738.863281 320.59375 C 766.75 320.59375 776.8125 335.6875 780.734375 348.390625 L 821.921875 348.390625 C 817.316406 315.902344 788.496094 288.273438 739.460938 288.273438 C 679.425781 288.273438 646.167969 331.421875 646.167969 388.644531 C 646.167969 442.878906 677.035156 484.664062 732.296875 484.664062 C 758.734375 484.664062 777.324219 476.90625 787.898438 462.664062 C 788.410156 469.058594 789.433594 475.625 791.050781 481.425781 L 821.242188 481.425781 L 821.242188 375 L 739.117188 375 L 739.117188 408.769531 L 780.90625 408.769531 L 780.90625 410.472656 C 780.90625 427.53125 774.421875 451.917969 739.203125 451.917969 C 701.425781 451.917969 688.71875 419.683594 688.71875 386.851562 C 688.632812 353.339844 699.71875 320.59375 738.863281 320.59375 Z M 738.863281 320.59375 " fill-opacity="1" fill-rule="nonzero"/><path fill="#1c97c6" d="M 903.191406 447.742188 L 903.191406 399.386719 L 994.269531 399.386719 L 994.269531 365.617188 L 903.191406 365.617188 L 903.191406 324.855469 L 998.277344 324.855469 L 998.277344 291.085938 L 863.199219 291.085938 L 863.199219 481.511719 L 998.703125 481.511719 L 1003.648438 447.742188 Z M 903.191406 447.742188 " fill-opacity="1" fill-rule="nonzero"/></svg>