<svg xmlns="http://www.w3.org/2000/svg" xmlns:xlink="http://www.w3.org/1999/xlink" width="1920" zoomAndPan="magnify" viewBox="0 0 1440 809.999993" height="1080" preserveAspectRatio="xMidYMid meet" version="1.0"><defs><g/><clipPath id="529743788e"><path d="M 352.507812 223.933594 L 1087.921875 223.933594 L 1087.921875 801.039062 L 352.507812 801.039062 Z M 352.507812 223.933594 " clip-rule="nonzero"/></clipPath><clipPath id="01d243eaf6"><path d="M 352.507812 74.757812 L 1087.921875 74.757812 L 1087.921875 224 L 352.507812 224 Z M 352.507812 74.757812 " clip-rule="nonzero"/></clipPath><clipPath id="1b809c7262"><path d="M 536 10.914062 L 608 10.914062 L 608 153 L 536 153 Z M 536 10.914062 " clip-rule="nonzero"/></clipPath><clipPath id="ec09290698"><path d="M 571 10.914062 L 608 10.914062 L 608 153 L 571 153 Z M 571 10.914062 " clip-rule="nonzero"/></clipPath><clipPath id="79093edda0"><path d="M 828 10.914062 L 899 10.914062 L 899 153 L 828 153 Z M 828 10.914062 " clip-rule="nonzero"/></clipPath><clipPath id="8ba18b4efc"><path d="M 863 10.914062 L 899 10.914062 L 899 153 L 863 153 Z M 863 10.914062 " clip-rule="nonzero"/></clipPath></defs><rect x="-144" width="1728" fill="#ffffff" y="-80.999999" height="971.999992" fill-opacity="1"/><rect x="-144" width="1728" fill="#ffffff" y="-80.999999" height="971.999992" fill-opacity="1"/><rect x="-144" width="1728" fill="#ffffff" y="-80.999999" height="971.999992" fill-opacity="1"/><g clip-path="url(#529743788e)"><path fill="#f9f9f9" d="M 394.878906 808.246094 L 1045.550781 808.246094 C 1068.949219 808.246094 1087.921875 789.332031 1087.921875 766 L 1087.921875 223.949219 L 352.507812 223.949219 L 352.507812 766 C 352.507812 789.332031 371.476562 808.246094 394.878906 808.246094 " fill-opacity="1" fill-rule="nonzero"/></g><g clip-path="url(#01d243eaf6)"><path fill="#e60012" d="M 352.507812 117.195312 L 352.507812 223.949219 L 1087.921875 223.949219 L 1087.921875 117.195312 C 1087.921875 93.863281 1068.949219 74.945312 1045.550781 74.945312 L 394.878906 74.945312 C 371.476562 74.945312 352.507812 93.863281 352.507812 117.195312 " fill-opacity="1" fill-rule="nonzero"/></g><g clip-path="url(#1b809c7262)"><path fill="#ffffff" d="M 571.851562 152.691406 C 552.347656 152.691406 536.542969 136.929688 536.542969 117.484375 L 536.542969 35.097656 C 536.542969 15.652344 552.347656 -0.109375 571.851562 -0.109375 C 591.355469 -0.109375 607.160156 15.652344 607.160156 35.097656 L 607.160156 117.484375 C 607.160156 136.929688 591.355469 152.691406 571.851562 152.691406 " fill-opacity="1" fill-rule="nonzero"/></g><g clip-path="url(#ec09290698)"><path fill="#efefef" d="M 571.851562 -0.109375 C 591.355469 -0.109375 607.160156 15.652344 607.160156 35.097656 L 607.160156 117.484375 C 607.160156 136.929688 591.355469 152.691406 571.851562 152.691406 L 571.851562 -0.109375 " fill-opacity="1" fill-rule="nonzero"/></g><g clip-path="url(#79093edda0)"><path fill="#ffffff" d="M 863.355469 152.691406 C 843.855469 152.691406 828.050781 136.933594 828.050781 117.488281 L 828.050781 35.101562 C 828.050781 15.65625 843.855469 -0.105469 863.355469 -0.105469 C 882.859375 -0.105469 898.667969 15.65625 898.667969 35.101562 L 898.667969 117.488281 C 898.667969 136.933594 882.859375 152.691406 863.355469 152.691406 " fill-opacity="1" fill-rule="nonzero"/></g><g clip-path="url(#8ba18b4efc)"><path fill="#efefef" d="M 863.355469 -0.105469 C 882.859375 -0.105469 898.667969 15.65625 898.667969 35.101562 L 898.667969 117.488281 C 898.667969 136.933594 882.859375 152.691406 863.355469 152.691406 L 863.355469 -0.105469 " fill-opacity="1" fill-rule="nonzero"/></g><g fill="#000000" fill-opacity="1"><g transform="translate(635.148488, 658.913483)"><g><path d="M 60.765625 -160.53125 L 60.765625 0 L 38.0625 0 L 38.0625 -140.578125 L 1.828125 -140.578125 L 1.828125 -160.53125 Z M 60.765625 -160.53125 "/></g></g></g><g fill="#000000" fill-opacity="1"><g transform="translate(720.002293, 658.913483)"><g><path d="M 60.765625 -160.53125 L 60.765625 0 L 38.0625 0 L 38.0625 -140.578125 L 1.828125 -140.578125 L 1.828125 -160.53125 Z M 60.765625 -160.53125 "/></g></g></g><g fill="#1c97c6" fill-opacity="1"><g transform="translate(526.59009, 387.390176)"><g><path d="M 92.875 -29.5 L 30.171875 -29.5 L 17.1875 0 L -0.171875 0 L 53.265625 -118 L 69.953125 -118 L 123.5625 0 L 105.859375 0 Z M 86.984375 -42.984375 L 61.53125 -100.796875 L 36.078125 -42.984375 Z M 86.984375 -42.984375 "/></g></g></g><g fill="#1c97c6" fill-opacity="1"><g transform="translate(649.969215, 387.390176)"><g><path d="M 66.578125 1.34375 C 50.847656 1.34375 38.597656 -3.148438 29.828125 -12.140625 C 21.066406 -21.128906 16.6875 -34.050781 16.6875 -50.90625 L 16.6875 -118 L 33.546875 -118 L 33.546875 -51.578125 C 33.546875 -26.296875 44.613281 -13.65625 66.75 -13.65625 C 77.539062 -13.65625 85.800781 -16.769531 91.53125 -23 C 97.257812 -29.238281 100.125 -38.765625 100.125 -51.578125 L 100.125 -118 L 116.484375 -118 L 116.484375 -50.90625 C 116.484375 -33.9375 112.097656 -20.984375 103.328125 -12.046875 C 94.566406 -3.117188 82.316406 1.34375 66.578125 1.34375 Z M 66.578125 1.34375 "/></g></g></g><g fill="#1c97c6" fill-opacity="1"><g transform="translate(783.292823, 387.390176)"><g><path d="M 99.453125 -59.671875 L 115.640625 -59.671875 L 115.640625 -13.65625 C 109.796875 -8.820312 102.992188 -5.113281 95.234375 -2.53125 C 87.484375 0.0507812 79.394531 1.34375 70.96875 1.34375 C 59.050781 1.34375 48.316406 -1.265625 38.765625 -6.484375 C 29.210938 -11.710938 21.710938 -18.90625 16.265625 -28.0625 C 10.816406 -37.21875 8.09375 -47.53125 8.09375 -59 C 8.09375 -70.457031 10.816406 -80.789062 16.265625 -90 C 21.710938 -99.21875 29.238281 -106.410156 38.84375 -111.578125 C 48.457031 -116.753906 59.273438 -119.34375 71.296875 -119.34375 C 80.742188 -119.34375 89.3125 -117.796875 97 -114.703125 C 104.695312 -111.617188 111.242188 -107.097656 116.640625 -101.140625 L 106.1875 -90.6875 C 96.75 -99.789062 85.34375 -104.34375 71.96875 -104.34375 C 62.976562 -104.34375 54.914062 -102.398438 47.78125 -98.515625 C 40.644531 -94.640625 35.054688 -89.242188 31.015625 -82.328125 C 26.972656 -75.421875 24.953125 -67.644531 24.953125 -59 C 24.953125 -50.457031 26.972656 -42.726562 31.015625 -35.8125 C 35.054688 -28.90625 40.644531 -23.484375 47.78125 -19.546875 C 54.914062 -15.617188 62.925781 -13.65625 71.8125 -13.65625 C 82.375 -13.65625 91.585938 -16.179688 99.453125 -21.234375 Z M 99.453125 -59.671875 "/></g></g></g></svg>