<svg xmlns="http://www.w3.org/2000/svg" xmlns:xlink="http://www.w3.org/1999/xlink" width="1920" zoomAndPan="magnify" viewBox="0 0 1440 809.999993" height="1080" preserveAspectRatio="xMidYMid meet" version="1.0"><defs><g/><clipPath id="a7cfa40936"><path d="M 370.457031 232.777344 L 1069.953125 232.777344 L 1069.953125 788.554688 L 370.457031 788.554688 Z M 370.457031 232.777344 " clip-rule="nonzero"/></clipPath><clipPath id="90684be18d"><path d="M 370.457031 91 L 1069.953125 91 L 1069.953125 232.957031 L 370.457031 232.957031 Z M 370.457031 91 " clip-rule="nonzero"/></clipPath><clipPath id="4b7c56eb61"><path d="M 545 19.675781 L 613 19.675781 L 613 166 L 545 166 Z M 545 19.675781 " clip-rule="nonzero"/></clipPath><clipPath id="b8981c3254"><path d="M 579 19.675781 L 613 19.675781 L 613 166 L 579 166 Z M 579 19.675781 " clip-rule="nonzero"/></clipPath><clipPath id="266ed81161"><path d="M 822 19.675781 L 890 19.675781 L 890 166 L 822 166 Z M 822 19.675781 " clip-rule="nonzero"/></clipPath><clipPath id="445024bc5f"><path d="M 856 19.675781 L 890 19.675781 L 890 166 L 856 166 Z M 856 19.675781 " clip-rule="nonzero"/></clipPath></defs><rect x="-144" width="1728" fill="#ffffff" y="-80.999999" height="971.999992" fill-opacity="1"/><rect x="-144" width="1728" fill="#ffffff" y="-80.999999" height="971.999992" fill-opacity="1"/><rect x="-144" width="1728" fill="#ffffff" y="-80.999999" height="971.999992" fill-opacity="1"/><g clip-path="url(#a7cfa40936)"><path fill="#f9f9f9" d="M 410.757812 788.554688 L 1029.652344 788.554688 C 1051.90625 788.554688 1069.953125 770.5625 1069.953125 748.367188 L 1069.953125 232.792969 L 370.457031 232.792969 L 370.457031 748.367188 C 370.457031 770.5625 388.5 788.554688 410.757812 788.554688 " fill-opacity="1" fill-rule="nonzero"/></g><g clip-path="url(#90684be18d)"><path fill="#e60012" d="M 370.457031 131.25 L 370.457031 232.792969 L 1069.953125 232.792969 L 1069.953125 131.25 C 1069.953125 109.058594 1051.90625 91.066406 1029.652344 91.066406 L 410.757812 91.066406 C 388.5 91.066406 370.457031 109.058594 370.457031 131.25 " fill-opacity="1" fill-rule="nonzero"/></g><g clip-path="url(#4b7c56eb61)"><path fill="#ffffff" d="M 579.085938 165.011719 C 560.535156 165.011719 545.503906 150.019531 545.503906 131.527344 L 545.503906 53.160156 C 545.503906 34.664062 560.535156 19.675781 579.085938 19.675781 C 597.636719 19.675781 612.671875 34.664062 612.671875 53.160156 L 612.671875 131.527344 C 612.671875 150.019531 597.636719 165.011719 579.085938 165.011719 " fill-opacity="1" fill-rule="nonzero"/></g><g clip-path="url(#b8981c3254)"><path fill="#efefef" d="M 579.085938 19.675781 C 597.636719 19.675781 612.671875 34.664062 612.671875 53.160156 L 612.671875 131.527344 C 612.671875 150.019531 597.636719 165.011719 579.085938 165.011719 L 579.085938 19.675781 " fill-opacity="1" fill-rule="nonzero"/></g><g clip-path="url(#266ed81161)"><path fill="#ffffff" d="M 856.355469 165.015625 C 837.804688 165.015625 822.773438 150.023438 822.773438 131.527344 L 822.773438 53.164062 C 822.773438 34.667969 837.804688 19.679688 856.355469 19.679688 C 874.90625 19.679688 889.941406 34.667969 889.941406 53.164062 L 889.941406 131.527344 C 889.941406 150.023438 874.90625 165.015625 856.355469 165.015625 " fill-opacity="1" fill-rule="nonzero"/></g><g clip-path="url(#445024bc5f)"><path fill="#efefef" d="M 856.355469 19.679688 C 874.90625 19.679688 889.941406 34.667969 889.941406 53.164062 L 889.941406 131.527344 C 889.941406 150.023438 874.90625 165.015625 856.355469 165.015625 L 856.355469 19.679688 " fill-opacity="1" fill-rule="nonzero"/></g><g fill="#000000" fill-opacity="1"><g transform="translate(590.127217, 686.361111)"><g><path d="M 117.78125 -18.984375 L 117.78125 0 L 8.078125 0 L 8.078125 -14.828125 L 70.234375 -74.8125 C 77.796875 -82.082031 82.882812 -88.367188 85.5 -93.671875 C 88.125 -98.984375 89.4375 -104.332031 89.4375 -109.71875 C 89.4375 -117.71875 86.632812 -123.929688 81.03125 -128.359375 C 75.4375 -132.796875 67.40625 -135.015625 56.9375 -135.015625 C 40.0625 -135.015625 27.046875 -129.488281 17.890625 -118.4375 L 3.046875 -131.3125 C 9.015625 -138.582031 16.832031 -144.253906 26.5 -148.328125 C 36.164062 -152.398438 46.960938 -154.4375 58.890625 -154.4375 C 74.890625 -154.4375 87.613281 -150.617188 97.0625 -142.984375 C 106.519531 -135.347656 111.25 -124.984375 111.25 -111.890625 C 111.25 -103.753906 109.503906 -96.050781 106.015625 -88.78125 C 102.523438 -81.507812 95.90625 -73.21875 86.15625 -63.90625 L 39.484375 -18.984375 Z M 117.78125 -18.984375 "/></g></g></g><g fill="#000000" fill-opacity="1"><g transform="translate(715.290088, 686.361111)"><g><path d="M 59.984375 -154.4375 C 80.484375 -154.4375 96.296875 -147.816406 107.421875 -134.578125 C 118.546875 -121.347656 124.109375 -102.59375 124.109375 -78.3125 C 124.109375 -61.289062 121.09375 -46.78125 115.0625 -34.78125 C 109.03125 -22.789062 100.597656 -13.703125 89.765625 -7.515625 C 78.929688 -1.335938 66.3125 1.75 51.90625 1.75 C 44.5 1.75 37.519531 0.988281 30.96875 -0.53125 C 24.425781 -2.0625 18.753906 -4.285156 13.953125 -7.203125 L 22.25 -24.21875 C 29.664062 -19.414062 39.484375 -17.015625 51.703125 -17.015625 C 67.546875 -17.015625 79.9375 -21.921875 88.875 -31.734375 C 97.820312 -41.546875 102.296875 -55.832031 102.296875 -74.59375 L 102.296875 -80.046875 C 97.929688 -73.503906 91.894531 -68.523438 84.1875 -65.109375 C 76.488281 -61.691406 67.835938 -59.984375 58.234375 -59.984375 C 48.203125 -59.984375 39.222656 -61.875 31.296875 -65.65625 C 23.367188 -69.4375 17.1875 -74.851562 12.75 -81.90625 C 8.320312 -88.957031 6.109375 -97.066406 6.109375 -106.234375 C 6.109375 -115.828125 8.46875 -124.257812 13.1875 -131.53125 C 17.914062 -138.800781 24.351562 -144.4375 32.5 -148.4375 C 40.644531 -152.4375 49.804688 -154.4375 59.984375 -154.4375 Z M 61.953125 -77.65625 C 68.785156 -77.65625 74.890625 -78.960938 80.265625 -81.578125 C 85.648438 -84.191406 89.832031 -87.753906 92.8125 -92.265625 C 95.789062 -96.773438 97.28125 -101.789062 97.28125 -107.3125 C 97.28125 -112.695312 95.863281 -117.601562 93.03125 -122.03125 C 90.195312 -126.46875 86.050781 -130.03125 80.59375 -132.71875 C 75.144531 -135.414062 68.566406 -136.765625 60.859375 -136.765625 C 50.828125 -136.765625 42.71875 -134.070312 36.53125 -128.6875 C 30.351562 -123.3125 27.265625 -116.113281 27.265625 -107.09375 C 27.265625 -98.082031 30.390625 -90.921875 36.640625 -85.609375 C 42.898438 -80.304688 51.335938 -77.65625 61.953125 -77.65625 Z M 61.953125 -77.65625 "/></g></g></g><g fill="#1c97c6" fill-opacity="1"><g transform="translate(505.970957, 426.747499)"><g><path d="M 138.3125 0 L 138.125 -93.546875 L 91.71875 -15.59375 L 83.28125 -15.59375 L 36.875 -93 L 36.875 0 L 19.265625 0 L 19.265625 -128.40625 L 34.296875 -128.40625 L 87.859375 -38.15625 L 140.703125 -128.40625 L 155.734375 -128.40625 L 155.921875 0 Z M 138.3125 0 "/></g></g></g><g fill="#1c97c6" fill-opacity="1"><g transform="translate(681.0867, 426.747499)"><g><path d="M 101.078125 -32.109375 L 32.828125 -32.109375 L 18.703125 0 L -0.1875 0 L 57.96875 -128.40625 L 76.125 -128.40625 L 134.453125 0 L 115.203125 0 Z M 94.65625 -46.78125 L 66.953125 -109.703125 L 39.25 -46.78125 Z M 94.65625 -46.78125 "/></g></g></g><g fill="#1c97c6" fill-opacity="1"><g transform="translate(815.311556, 426.747499)"><g><path d="M 68.421875 -44.390625 L 68.421875 0 L 50.265625 0 L 50.265625 -44.765625 L -0.734375 -128.40625 L 18.890625 -128.40625 L 59.984375 -60.71875 L 101.25 -128.40625 L 119.421875 -128.40625 Z M 68.421875 -44.390625 "/></g></g></g></svg>