<svg xmlns="http://www.w3.org/2000/svg" xmlns:xlink="http://www.w3.org/1999/xlink" width="1920" zoomAndPan="magnify" viewBox="0 0 1440 809.999993" height="1080" preserveAspectRatio="xMidYMid meet" version="1.0"><defs><g/><clipPath id="19c7279322"><path d="M 383.851562 239.351562 L 1056.503906 239.351562 L 1056.503906 773.820312 L 383.851562 773.820312 Z M 383.851562 239.351562 " clip-rule="nonzero"/></clipPath><clipPath id="e176e6bde1"><path d="M 383.851562 103 L 1056.503906 103 L 1056.503906 239.523438 L 383.851562 239.523438 Z M 383.851562 103 " clip-rule="nonzero"/></clipPath><clipPath id="0de03391a0"><path d="M 552 34.421875 L 617 34.421875 L 617 175 L 552 175 Z M 552 34.421875 " clip-rule="nonzero"/></clipPath><clipPath id="110f09b3d5"><path d="M 584 34.421875 L 617 34.421875 L 617 175 L 584 175 Z M 584 34.421875 " clip-rule="nonzero"/></clipPath><clipPath id="5f1f42a62d"><path d="M 818 34.421875 L 884 34.421875 L 884 175 L 818 175 Z M 818 34.421875 " clip-rule="nonzero"/></clipPath><clipPath id="891b81f3c1"><path d="M 851 34.421875 L 884 34.421875 L 884 175 L 851 175 Z M 851 34.421875 " clip-rule="nonzero"/></clipPath></defs><rect x="-144" width="1728" fill="#ffffff" y="-80.999999" height="971.999992" fill-opacity="1"/><rect x="-144" width="1728" fill="#ffffff" y="-80.999999" height="971.999992" fill-opacity="1"/><rect x="-144" width="1728" fill="#ffffff" y="-80.999999" height="971.999992" fill-opacity="1"/><g clip-path="url(#19c7279322)"><path fill="#f9f9f9" d="M 422.589844 773.820312 L 1017.75 773.820312 C 1039.152344 773.820312 1056.503906 756.515625 1056.503906 735.175781 L 1056.503906 239.367188 L 383.835938 239.367188 L 383.835938 735.175781 C 383.835938 756.515625 401.1875 773.820312 422.589844 773.820312 " fill-opacity="1" fill-rule="nonzero"/></g><g clip-path="url(#e176e6bde1)"><path fill="#e60012" d="M 383.835938 141.714844 L 383.835938 239.367188 L 1056.503906 239.367188 L 1056.503906 141.714844 C 1056.503906 120.375 1039.152344 103.074219 1017.75 103.074219 L 422.589844 103.074219 C 401.1875 103.074219 383.835938 120.375 383.835938 141.714844 " fill-opacity="1" fill-rule="nonzero"/></g><g clip-path="url(#0de03391a0)"><path fill="#ffffff" d="M 584.464844 174.183594 C 566.625 174.183594 552.167969 159.769531 552.167969 141.980469 L 552.167969 66.621094 C 552.167969 48.835938 566.625 34.421875 584.464844 34.421875 C 602.304688 34.421875 616.761719 48.835938 616.761719 66.621094 L 616.761719 141.980469 C 616.761719 159.769531 602.304688 174.183594 584.464844 174.183594 " fill-opacity="1" fill-rule="nonzero"/></g><g clip-path="url(#110f09b3d5)"><path fill="#efefef" d="M 584.464844 34.421875 C 602.304688 34.421875 616.761719 48.835938 616.761719 66.621094 L 616.761719 141.980469 C 616.761719 159.769531 602.304688 174.183594 584.464844 174.183594 L 584.464844 34.421875 " fill-opacity="1" fill-rule="nonzero"/></g><g clip-path="url(#5f1f42a62d)"><path fill="#ffffff" d="M 851.097656 174.1875 C 833.261719 174.1875 818.804688 159.769531 818.804688 141.984375 L 818.804688 66.625 C 818.804688 48.839844 833.261719 34.421875 851.097656 34.421875 C 868.9375 34.421875 883.398438 48.839844 883.398438 66.625 L 883.398438 141.984375 C 883.398438 159.769531 868.9375 174.1875 851.097656 174.1875 " fill-opacity="1" fill-rule="nonzero"/></g><g clip-path="url(#891b81f3c1)"><path fill="#efefef" d="M 851.097656 34.421875 C 868.9375 34.421875 883.398438 48.839844 883.398438 66.625 L 883.398438 141.984375 C 883.398438 159.769531 868.9375 174.1875 851.097656 174.1875 L 851.097656 34.421875 " fill-opacity="1" fill-rule="nonzero"/></g><g fill="#000000" fill-opacity="1"><g transform="translate(621.031285, 647.126468)"><g><path d="M 55.578125 -146.828125 L 55.578125 0 L 34.8125 0 L 34.8125 -128.578125 L 1.671875 -128.578125 L 1.671875 -146.828125 Z M 55.578125 -146.828125 "/></g></g></g><g fill="#000000" fill-opacity="1"><g transform="translate(698.617774, 647.126468)"><g><path d="M 113.265625 -18.25 L 113.265625 0 L 7.765625 0 L 7.765625 -14.265625 L 67.546875 -71.9375 C 74.816406 -78.9375 79.707031 -84.988281 82.21875 -90.09375 C 84.738281 -95.195312 86 -100.332031 86 -105.5 C 86 -113.195312 83.304688 -119.175781 77.921875 -123.4375 C 72.535156 -127.695312 64.8125 -129.828125 54.75 -129.828125 C 38.519531 -129.828125 26.003906 -124.515625 17.203125 -113.890625 L 2.9375 -126.265625 C 8.664062 -133.253906 16.179688 -138.707031 25.484375 -142.625 C 34.785156 -146.539062 45.164062 -148.5 56.625 -148.5 C 72.007812 -148.5 84.242188 -144.828125 93.328125 -137.484375 C 102.421875 -130.148438 106.96875 -120.191406 106.96875 -107.609375 C 106.96875 -99.773438 105.289062 -92.359375 101.9375 -85.359375 C 98.582031 -78.367188 92.21875 -70.398438 82.84375 -61.453125 L 37.96875 -18.25 Z M 113.265625 -18.25 "/></g></g></g><g fill="#1c97c6" fill-opacity="1"><g transform="translate(524.330838, 397.428348)"><g><path d="M 18.515625 -123.484375 L 70.5625 -123.484375 C 83.613281 -123.484375 95.195312 -120.894531 105.3125 -115.71875 C 115.425781 -110.539062 123.273438 -103.273438 128.859375 -93.921875 C 134.453125 -84.578125 137.25 -73.847656 137.25 -61.734375 C 137.25 -49.628906 134.453125 -38.898438 128.859375 -29.546875 C 123.273438 -20.203125 115.425781 -12.941406 105.3125 -7.765625 C 95.195312 -2.585938 83.613281 0 70.5625 0 L 18.515625 0 Z M 69.5 -15.34375 C 79.5 -15.34375 88.289062 -17.28125 95.875 -21.15625 C 103.457031 -25.039062 109.304688 -30.484375 113.421875 -37.484375 C 117.546875 -44.484375 119.609375 -52.566406 119.609375 -61.734375 C 119.609375 -70.910156 117.546875 -79 113.421875 -86 C 109.304688 -93 103.457031 -98.4375 95.875 -102.3125 C 88.289062 -106.195312 79.5 -108.140625 69.5 -108.140625 L 36.15625 -108.140625 L 36.15625 -15.34375 Z M 69.5 -15.34375 "/></g></g></g><g fill="#1c97c6" fill-opacity="1"><g transform="translate(669.984933, 397.428348)"><g><path d="M 108.140625 -15.34375 L 108.140625 0 L 18.515625 0 L 18.515625 -123.484375 L 105.671875 -123.484375 L 105.671875 -108.140625 L 36.15625 -108.140625 L 36.15625 -70.203125 L 98.078125 -70.203125 L 98.078125 -55.21875 L 36.15625 -55.21875 L 36.15625 -15.34375 Z M 108.140625 -15.34375 "/></g></g></g><g fill="#1c97c6" fill-opacity="1"><g transform="translate(788.130518, 397.428348)"><g><path d="M 73.734375 1.40625 C 61.390625 1.40625 50.25 -1.328125 40.3125 -6.796875 C 30.375 -12.265625 22.582031 -19.789062 16.9375 -29.375 C 11.289062 -38.957031 8.46875 -49.742188 8.46875 -61.734375 C 8.46875 -73.734375 11.289062 -84.523438 16.9375 -94.109375 C 22.582031 -103.691406 30.398438 -111.21875 40.390625 -116.6875 C 50.390625 -122.15625 61.566406 -124.890625 73.921875 -124.890625 C 83.554688 -124.890625 92.375 -123.269531 100.375 -120.03125 C 108.375 -116.800781 115.195312 -112.015625 120.84375 -105.671875 L 109.375 -94.546875 C 100.082031 -104.316406 88.5 -109.203125 74.625 -109.203125 C 65.445312 -109.203125 57.15625 -107.140625 49.75 -103.015625 C 42.34375 -98.898438 36.550781 -93.226562 32.375 -86 C 28.195312 -78.769531 26.109375 -70.679688 26.109375 -61.734375 C 26.109375 -52.796875 28.195312 -44.710938 32.375 -37.484375 C 36.550781 -30.253906 42.34375 -24.578125 49.75 -20.453125 C 57.15625 -16.335938 65.445312 -14.28125 74.625 -14.28125 C 88.382812 -14.28125 99.96875 -19.222656 109.375 -29.109375 L 120.84375 -18 C 115.195312 -11.644531 108.34375 -6.820312 100.28125 -3.53125 C 92.226562 -0.238281 83.378906 1.40625 73.734375 1.40625 Z M 73.734375 1.40625 "/></g></g></g></svg>