<svg xmlns="http://www.w3.org/2000/svg" xmlns:xlink="http://www.w3.org/1999/xlink" width="1920" zoomAndPan="magnify" viewBox="0 0 1440 809.999993" height="1080" preserveAspectRatio="xMidYMid meet" version="1.0"><defs><clipPath id="926d0ef89a"><path d="M 353.605469 351 L 837 351 L 837 780.710938 L 353.605469 780.710938 Z M 353.605469 351 " clip-rule="nonzero"/></clipPath><clipPath id="40a90ed2c3"><path d="M 450 29.210938 L 1081 29.210938 L 1081 708 L 450 708 Z M 450 29.210938 " clip-rule="nonzero"/></clipPath></defs><g clip-path="url(#926d0ef89a)"><path fill="#1c97c6" d="M 448.304688 351.917969 C 436.367188 351.761719 424.96875 356.875 417.148438 365.894531 C 404.066406 380.558594 392.695312 396.78125 383.332031 414.269531 C 364.605469 449.25 353.949219 489.351562 353.949219 531.628906 C 353.949219 668.71875 466.019531 780.789062 603.117188 780.789062 C 671.667969 780.789062 734.246094 752.839844 779.296875 707.796875 C 801.820312 685.277344 820.03125 658.4375 832.660156 628.601562 C 838.683594 615.199219 836.980469 599.585938 828.210938 587.796875 C 819.4375 576.003906 804.972656 569.886719 790.40625 571.800781 C 775.835938 573.714844 763.445312 583.367188 758.019531 597.023438 C 749.523438 617.105469 737.207031 635.230469 721.964844 650.46875 C 691.484375 680.949219 649.746094 699.734375 603.125 699.734375 C 509.882812 699.734375 435.011719 624.871094 435.011719 531.628906 C 435.011719 502.882812 442.144531 476.101562 454.769531 452.519531 C 461.082031 440.726562 468.800781 429.765625 477.652344 419.84375 C 488.453125 408.066406 491.328125 391.042969 484.992188 376.375 C 478.652344 361.703125 464.289062 352.128906 448.308594 351.917969 Z M 448.304688 351.917969 " fill-opacity="1" fill-rule="evenodd"/></g><g clip-path="url(#40a90ed2c3)"><path fill="#1c97c6" d="M 533.496094 29.265625 C 487.425781 29.265625 450.03125 66.660156 450.03125 112.722656 C 450.011719 116.980469 450.394531 121.222656 451.003906 125.429688 C 451.007812 125.457031 450.996094 125.488281 451.003906 125.515625 L 501.324219 435.761719 C 504.5 455.289062 521.308594 469.667969 541.09375 469.785156 L 804.867188 471.433594 L 896.015625 682.96875 C 904.476562 702.566406 926.691406 712.238281 946.804688 705.089844 L 1053.867188 667.011719 C 1074.957031 659.503906 1085.984375 636.300781 1078.480469 615.210938 C 1070.972656 594.125 1047.769531 583.136719 1026.679688 590.640625 L 955.414062 616.011719 L 868.871094 415.027344 C 862.5 400.246094 847.984375 390.636719 831.886719 390.542969 L 575.882812 388.9375 L 571.914062 364.582031 L 752.984375 364.582031 C 767.597656 364.789062 781.203125 357.109375 788.574219 344.488281 C 795.941406 331.863281 795.941406 316.246094 788.574219 303.621094 C 781.203125 291 767.597656 283.320312 752.984375 283.527344 L 558.785156 283.527344 L 544.472656 195.425781 C 585.355469 190.042969 616.917969 155.066406 616.917969 112.722656 C 616.917969 66.660156 579.5625 29.265625 533.496094 29.265625 Z M 533.496094 29.265625 " fill-opacity="1" fill-rule="evenodd"/></g></svg>