<svg xmlns="http://www.w3.org/2000/svg" xmlns:xlink="http://www.w3.org/1999/xlink" width="1920" zoomAndPan="magnify" viewBox="0 0 1440 809.999993" height="1080" preserveAspectRatio="xMidYMid meet" version="1.0"><defs><clipPath id="9433f4f5e9"><path d="M 339.324219 349 L 841 349 L 841 795.3125 L 339.324219 795.3125 Z M 339.324219 349 " clip-rule="nonzero"/></clipPath><clipPath id="ffe4240d0c"><path d="M 439 14.5625 L 1095 14.5625 L 1095 720 L 439 720 Z M 439 14.5625 " clip-rule="nonzero"/></clipPath></defs><rect x="-144" width="1728" fill="#ffffff" y="-80.999999" height="971.999992" fill-opacity="1"/><rect x="-144" width="1728" fill="#ffffff" y="-80.999999" height="971.999992" fill-opacity="1"/><rect x="-144" width="1728" fill="#ffffff" y="-80.999999" height="971.999992" fill-opacity="1"/><g clip-path="url(#9433f4f5e9)"><path fill="#1c97c6" d="M 437.699219 349.828125 C 425.300781 349.667969 413.457031 354.976562 405.332031 364.347656 C 391.742188 379.582031 379.929688 396.4375 370.203125 414.609375 C 350.746094 450.949219 339.675781 492.613281 339.675781 536.535156 C 339.675781 678.957031 456.105469 795.390625 598.539062 795.390625 C 669.753906 795.390625 734.765625 766.355469 781.570312 719.558594 C 804.96875 696.160156 823.890625 668.277344 837.007812 637.28125 C 843.265625 623.355469 841.5 607.136719 832.386719 594.886719 C 823.273438 582.636719 808.246094 576.28125 793.109375 578.269531 C 777.976562 580.257812 765.101562 590.285156 759.464844 604.476562 C 750.636719 625.335938 737.84375 644.167969 722.007812 660 C 690.34375 691.664062 646.976562 711.183594 598.542969 711.183594 C 501.675781 711.183594 423.890625 633.402344 423.890625 536.535156 C 423.890625 506.671875 431.300781 478.84375 444.417969 454.34375 C 450.976562 442.09375 458.996094 430.707031 468.191406 420.398438 C 479.414062 408.164062 482.398438 390.476562 475.816406 375.238281 C 469.230469 359.996094 454.308594 350.046875 437.707031 349.828125 Z M 437.699219 349.828125 " fill-opacity="1" fill-rule="evenodd"/></g><g clip-path="url(#ffe4240d0c)"><path fill="#1c97c6" d="M 526.207031 14.617188 C 478.347656 14.617188 439.496094 53.464844 439.496094 101.324219 C 439.476562 105.746094 439.875 110.152344 440.503906 114.527344 C 440.511719 114.554688 440.5 114.585938 440.503906 114.613281 L 492.785156 436.933594 C 496.085938 457.222656 513.546875 472.164062 534.101562 472.285156 L 808.136719 473.996094 L 902.828125 693.765625 C 911.621094 714.125 934.699219 724.171875 955.59375 716.746094 L 1066.820312 677.183594 C 1088.730469 669.386719 1100.191406 645.28125 1092.390625 623.371094 C 1084.59375 601.460938 1060.484375 590.046875 1038.574219 597.84375 L 964.539062 624.203125 L 874.628906 415.394531 C 868.007812 400.039062 852.929688 390.054688 836.207031 389.957031 L 570.242188 388.289062 L 566.121094 362.984375 L 754.234375 362.984375 C 769.417969 363.199219 783.550781 355.222656 791.207031 342.109375 C 798.863281 328.992188 798.863281 312.769531 791.207031 299.652344 C 783.550781 286.539062 769.417969 278.5625 754.234375 278.777344 L 552.480469 278.777344 L 537.609375 187.242188 C 580.082031 181.652344 612.875 145.316406 612.875 101.324219 C 612.875 53.464844 574.066406 14.617188 526.207031 14.617188 Z M 526.207031 14.617188 " fill-opacity="1" fill-rule="evenodd"/></g></svg>