<svg xmlns="http://www.w3.org/2000/svg" xmlns:xlink="http://www.w3.org/1999/xlink" width="1920" zoomAndPan="magnify" viewBox="0 0 1440 809.999993" height="1080" preserveAspectRatio="xMidYMid meet" version="1.0"><defs><clipPath id="3ed7e9530b"><path d="M 325.390625 483 L 944 483 L 944 799.390625 L 325.390625 799.390625 Z M 325.390625 483 " clip-rule="nonzero"/></clipPath><clipPath id="c9525e72a6"><path d="M 325.390625 10.390625 L 1114.390625 10.390625 L 1114.390625 471 L 325.390625 471 Z M 325.390625 10.390625 " clip-rule="nonzero"/></clipPath></defs><rect x="-144" width="1728" fill="#ffffff" y="-80.999999" height="971.999992" fill-opacity="1"/><rect x="-144" width="1728" fill="#ffffff" y="-80.999999" height="971.999992" fill-opacity="1"/><rect x="-144" width="1728" fill="#ffffff" y="-80.999999" height="971.999992" fill-opacity="1"/><g clip-path="url(#3ed7e9530b)"><path fill="#1c97c6" d="M 351.691406 510.089844 L 404.289062 510.089844 L 404.289062 773.089844 L 351.691406 773.089844 Z M 468.304688 536.390625 C 476.097656 538.582031 482.625 541.925781 487.671875 546.277344 C 488.816406 547.320312 492.382812 550.953125 499.175781 557.8125 L 501.789062 560.441406 C 512.503906 571.28125 513.007812 571.757812 514.035156 572.636719 C 522.585938 580.027344 533.230469 585.378906 545.679688 588.578125 L 688.328125 588.988281 C 698.300781 588.988281 706.738281 601.03125 706.738281 615.289062 C 706.738281 629.546875 698.300781 641.589844 688.328125 641.589844 L 614.691406 641.589844 C 607.417969 641.589844 601.539062 647.476562 601.539062 654.738281 C 601.539062 662.003906 607.417969 667.890625 614.691406 667.890625 L 719.890625 667.890625 L 879.226562 618.523438 L 880.640625 617.988281 C 893.910156 612.089844 909.472656 618.066406 915.382812 631.316406 C 918.234375 637.726562 918.425781 644.878906 915.90625 651.425781 C 913.386719 657.988281 908.46875 663.175781 901.824219 666.148438 L 730.097656 746.789062 L 430.589844 746.789062 L 430.589844 536.390625 Z M 339.867188 799.390625 L 416.128906 799.390625 C 424.101562 799.390625 430.589844 792.90625 430.589844 784.933594 L 430.589844 773.089844 L 735.96875 773.089844 L 912.746094 690.054688 C 925.589844 684.355469 935.425781 673.980469 940.457031 660.851562 C 945.496094 647.726562 945.109375 633.4375 939.398438 620.605469 C 927.699219 594.371094 897.003906 582.402344 870.675781 593.636719 L 728.339844 638.300781 C 731.25 631.324219 733.039062 623.582031 733.039062 615.289062 C 733.039062 586.277344 712.984375 562.691406 688.328125 562.691406 L 550.667969 562.691406 C 542.882812 560.496094 536.339844 557.15625 531.230469 552.742188 C 530.320312 551.9375 529.902344 551.488281 520.480469 541.949219 L 517.875 539.320312 C 509.980469 531.332031 505.96875 527.335938 504.941406 526.441406 C 496.394531 519.050781 485.75 513.703125 473.300781 510.5 L 430.589844 510.1875 L 430.589844 498.246094 C 430.589844 490.273438 424.101562 483.789062 416.128906 483.789062 L 339.867188 483.789062 C 331.886719 483.789062 325.390625 490.273438 325.390625 498.246094 L 325.390625 784.933594 C 325.390625 792.90625 331.886719 799.390625 339.867188 799.390625 " fill-opacity="1" fill-rule="nonzero"/></g><g clip-path="url(#c9525e72a6)"><path fill="#1c97c6" d="M 1088.089844 299.691406 L 1035.488281 299.691406 L 1035.488281 36.691406 L 1088.089844 36.691406 Z M 991.464844 274.210938 C 978.109375 279.167969 971.136719 288.785156 964.988281 297.289062 C 963.289062 299.636719 961.519531 302.089844 959.539062 304.542969 C 959.386719 304.726562 944.480469 322.664062 918.207031 334.539062 C 907.085938 339.605469 889.164062 344.441406 864.539062 341.203125 L 864.539062 269.027344 C 916.589844 245.976562 937.34375 200.0625 942.605469 185.941406 C 945.148438 179.132812 941.695312 171.558594 934.890625 169.023438 C 928.097656 166.507812 920.507812 169.933594 917.976562 176.738281 C 914.726562 185.449219 896.015625 229.789062 846.84375 247.898438 C 792.640625 267.855469 745.339844 239.335938 740.097656 235.996094 C 739.761719 235.777344 739.363281 235.757812 739.003906 235.570312 C 738.191406 235.152344 737.382812 234.855469 736.511719 234.609375 C 735.730469 234.398438 734.980469 234.21875 734.1875 234.160156 C 733.296875 234.078125 732.449219 234.125 731.570312 234.226562 C 730.78125 234.316406 730.039062 234.4375 729.269531 234.667969 C 728.433594 234.921875 727.679688 235.277344 726.894531 235.695312 C 726.140625 236.105469 725.445312 236.550781 724.773438 237.109375 C 724.449219 237.375 724.050781 237.480469 723.753906 237.777344 L 646.167969 315.101562 C 636.222656 325.027344 618.898438 325.046875 608.964844 315.101562 C 598.714844 304.839844 598.714844 288.15625 608.964844 277.898438 L 709.359375 177.515625 C 714.496094 172.378906 714.496094 164.054688 709.359375 158.917969 C 705.953125 155.511719 701.1875 154.582031 696.835938 155.695312 C 695.769531 155.417969 694.742188 155.039062 693.589844 155.039062 L 588.382812 155.039062 L 711.121094 62.988281 L 1009.191406 62.988281 L 1009.191406 271.320312 C 1002.984375 271.234375 997.046875 272.144531 991.464844 274.210938 Z M 838.238281 444.339844 L 817.050781 444.339844 C 820.417969 433.902344 828.210938 425.382812 838.238281 421.121094 Z M 351.691406 444.339844 L 351.691406 419.816406 C 357.375 421.613281 362.59375 424.753906 366.933594 429.09375 C 371.277344 433.4375 374.417969 438.652344 376.21875 444.339844 Z M 351.691406 181.339844 L 374.90625 181.339844 C 370.644531 191.367188 362.128906 199.164062 351.691406 202.53125 Z M 590.363281 333.691406 C 600.308594 343.632812 613.511719 349.101562 627.554688 349.101562 C 641.425781 349.101562 654.425781 343.738281 664.308594 334.070312 C 655 367.28125 624.53125 391.738281 588.390625 391.738281 C 544.882812 391.738281 509.488281 356.347656 509.488281 312.839844 C 509.488281 269.332031 544.882812 233.941406 588.390625 233.941406 C 596.457031 233.941406 604.382812 235.292969 611.992188 237.679688 L 590.363281 259.296875 C 569.871094 279.8125 569.871094 313.183594 590.363281 333.691406 Z M 668.335938 181.339844 L 632.292969 217.382812 C 618.574219 211.074219 603.632812 207.640625 588.390625 207.640625 C 530.382812 207.640625 483.191406 254.832031 483.191406 312.839844 C 483.191406 370.847656 530.382812 418.039062 588.390625 418.039062 C 646.398438 418.039062 693.589844 370.847656 693.589844 312.839844 C 693.589844 310.386719 693.238281 307.941406 693.066406 305.484375 L 735.242188 263.460938 C 749.085938 270.660156 774.960938 281.335938 806.957031 281.335938 C 816.851562 281.335938 827.371094 280.164062 838.238281 277.691406 L 838.238281 393.542969 C 813.617188 399.34375 794.613281 419.433594 790.035156 444.339844 L 403.242188 444.339844 C 400.949219 431.582031 394.890625 419.875 385.527344 410.503906 C 376.140625 401.117188 364.5 395.046875 351.691406 392.765625 L 351.691406 229.503906 C 376.597656 224.917969 396.675781 205.964844 402.472656 181.339844 Z M 1099.925781 10.390625 L 1023.660156 10.390625 C 1015.683594 10.390625 1009.191406 16.871094 1009.191406 24.851562 L 1009.191406 36.691406 L 702.359375 36.691406 L 544.566406 155.039062 L 339.851562 155.039062 C 331.878906 155.039062 325.390625 161.523438 325.390625 169.503906 L 325.390625 456.183594 C 325.390625 464.15625 331.878906 470.640625 339.851562 470.640625 L 850.078125 470.640625 C 858.058594 470.640625 864.539062 464.15625 864.539062 456.183594 L 864.539062 367.671875 C 869.976562 368.261719 875.179688 368.5625 880.101562 368.5625 C 901.410156 368.5625 917.84375 363.589844 929.058594 358.507812 C 961.277344 343.9375 979.21875 322.03125 979.960938 321.113281 C 982.273438 318.25 984.328125 315.417969 986.296875 312.714844 C 991.835938 305.046875 995 300.949219 1000.621094 298.867188 C 1003.203125 297.914062 1006.066406 297.488281 1009.191406 297.570312 L 1009.191406 311.527344 C 1009.191406 319.507812 1015.683594 325.988281 1023.660156 325.988281 L 1099.925781 325.988281 C 1107.90625 325.988281 1114.390625 319.507812 1114.390625 311.527344 L 1114.390625 24.851562 C 1114.390625 16.871094 1107.90625 10.390625 1099.925781 10.390625 " fill-opacity="1" fill-rule="nonzero"/></g><path fill="#1c97c6" d="M 404.355469 326.117188 L 417.507812 326.117188 L 430.714844 326.054688 L 430.65625 299.691406 L 404.289062 299.757812 L 404.355469 326.117188 " fill-opacity="1" fill-rule="nonzero"/><path fill="#1c97c6" d="M 772.554688 326.117188 L 785.765625 326.054688 L 785.707031 299.691406 L 759.339844 299.757812 L 759.40625 326.117188 L 772.554688 326.117188 " fill-opacity="1" fill-rule="nonzero"/></svg>