<svg xmlns="http://www.w3.org/2000/svg" xmlns:xlink="http://www.w3.org/1999/xlink" width="1920" zoomAndPan="magnify" viewBox="0 0 1440 809.999993" height="1080" preserveAspectRatio="xMidYMid meet" version="1.0"><defs><clipPath id="7b38c7d403"><path d="M 718 11.109375 L 1121 11.109375 L 1121 386 L 718 386 Z M 718 11.109375 " clip-rule="nonzero"/></clipPath><clipPath id="3420804329"><path d="M 325 397 L 707 397 L 707 798.609375 L 325 798.609375 Z M 325 397 " clip-rule="nonzero"/></clipPath></defs><rect x="-144" width="1728" fill="#ffffff" y="-80.999999" height="971.999992" fill-opacity="1"/><rect x="-144" width="1728" fill="#ffffff" y="-80.999999" height="971.999992" fill-opacity="1"/><rect x="-144" width="1728" fill="#ffffff" y="-80.999999" height="971.999992" fill-opacity="1"/><path fill="#1c97c6" d="M 1073.863281 712.535156 C 1062.503906 739.40625 1022.429688 775.042969 1003.570312 775.039062 C 1001.136719 775.039062 999.316406 774.402344 998.011719 773.101562 C 990.925781 766.007812 983.167969 758.453125 974.949219 750.449219 C 953.132812 729.207031 928.398438 705.121094 909.75 683.03125 C 908.820312 681.933594 908.785156 678.699219 911.480469 672.90625 C 923.515625 647.023438 969.839844 606.925781 983.828125 606.925781 C 984.519531 606.925781 984.953125 607.050781 985.074219 607.179688 C 1005.902344 628.007812 1020.921875 642.875 1032.996094 654.816406 C 1034.023438 655.835938 1034.984375 656.792969 1035.976562 657.777344 C 1034.074219 657.082031 1031.863281 657.65625 1030.582031 659.367188 C 1029.007812 661.457031 1029.4375 664.417969 1031.527344 665.980469 C 1031.679688 666.101562 1032.453125 666.703125 1032.34375 667.214844 C 1031.824219 669.773438 1033.484375 672.269531 1036.046875 672.785156 C 1036.359375 672.847656 1036.679688 672.882812 1036.988281 672.882812 C 1039.191406 672.882812 1041.164062 671.332031 1041.625 669.089844 C 1042.09375 666.753906 1041.703125 664.433594 1040.605469 662.359375 C 1052.917969 674.554688 1062.949219 684.550781 1074.570312 696.496094 C 1078.253906 700.285156 1075.707031 708.167969 1073.863281 712.535156 Z M 888.144531 639.808594 C 903.738281 612.960938 929.058594 594.878906 941.84375 586.890625 C 947.363281 594.339844 953.554688 601.601562 959.566406 608.152344 C 941.539062 620.507812 920.582031 641.347656 909.007812 658.417969 C 901.515625 651.332031 894.574219 645.179688 888.144531 639.808594 Z M 933.25 574.082031 C 934.566406 576.289062 935.96875 578.503906 937.472656 580.714844 C 924.527344 588.871094 899.21875 607.332031 882.71875 635.355469 C 880.414062 633.503906 878.1875 631.761719 876.023438 630.101562 C 892.628906 600.464844 921.394531 581.199219 933.25 574.082031 Z M 823.859375 596.742188 C 798.039062 578.050781 780.621094 562.8125 768.335938 551.617188 C 760.03125 544.054688 748.484375 535.867188 738.289062 528.652344 C 729.519531 522.445312 720.457031 516.027344 718.074219 513.039062 C 715.8125 510.195312 715.59375 507.265625 716.386719 505.625 C 716.921875 504.519531 717.914062 503.980469 719.425781 503.980469 C 720.492188 503.980469 721.726562 504.253906 723.085938 504.789062 C 726.964844 506.3125 740.417969 514.46875 752.292969 521.664062 C 763.753906 528.609375 774.570312 535.167969 779.519531 537.53125 C 782.390625 538.902344 785.3125 539.691406 787.5625 539.691406 C 791.699219 539.691406 793.207031 537.164062 793.671875 536.078125 C 795.351562 532.089844 791.898438 528.558594 790.765625 527.402344 C 787.023438 523.570312 775.269531 513.574219 761.667969 501.996094 C 745.328125 488.085938 726.804688 472.316406 720.890625 466.089844 C 715.199219 460.101562 714.175781 455.851562 715.117188 453.863281 C 715.605469 452.835938 717.210938 450.886719 719.816406 450.886719 C 720.714844 450.886719 721.703125 451.117188 722.738281 451.558594 C 732.929688 455.902344 752.832031 473.507812 767.351562 486.363281 C 774.363281 492.5625 780.410156 497.917969 784.550781 501.113281 C 789.210938 504.710938 792.566406 506.320312 795.417969 506.320312 L 795.425781 506.320312 C 798.125 506.316406 800.402344 504.820312 801.375 502.40625 C 803.09375 498.132812 800.039062 492.425781 797.417969 489.917969 C 776.214844 469.53125 730.777344 417.855469 730.246094 417.253906 C 730.207031 417.210938 726.292969 412.828125 728.390625 409.671875 C 729.992188 407.269531 731.730469 406.054688 733.558594 406.054688 C 735.164062 406.054688 737.074219 406.9375 738.941406 408.550781 C 752.21875 420 780.058594 444.75 800.21875 464.894531 C 813.394531 478.066406 818.878906 479.753906 822.1875 479.753906 L 822.191406 479.753906 C 824.847656 479.753906 827.136719 478.414062 828.3125 476.171875 C 830.152344 472.640625 828.773438 467.886719 826.585938 464.742188 C 817.324219 451.417969 806.851562 438.769531 797.621094 427.605469 C 787.75 415.675781 776.566406 402.160156 776.191406 397.875 C 776.023438 395.957031 776.265625 394.476562 776.867188 393.824219 C 777.371094 393.277344 778.347656 393.160156 779.085938 393.160156 C 782.378906 393.160156 786.894531 395.378906 790.058594 398.550781 C 797.578125 406.0625 805.527344 414.160156 813.496094 422.269531 C 856.117188 465.675781 875.679688 484.695312 884.164062 484.695312 C 886.039062 484.695312 887.722656 483.972656 888.90625 482.652344 C 890.265625 481.148438 890.820312 479.070312 890.542969 476.5 C 888.148438 453.84375 889.539062 439.234375 894.667969 433.074219 C 896.660156 430.691406 899.265625 429.496094 903.128906 429.199219 L 903.441406 429.183594 C 906.070312 429.183594 907.429688 438.617188 908.871094 448.609375 C 910.171875 457.640625 911.796875 468.867188 915.097656 482.257812 C 917.425781 491.648438 919.71875 498.65625 921.558594 504.289062 C 926.03125 517.933594 928.066406 524.160156 924.257812 542.613281 C 922.773438 549.804688 925.113281 558.414062 929.617188 567.445312 C 917.996094 574.363281 888.398438 594.203125 870.425781 625.921875 C 856.34375 615.625 845.433594 609.472656 837.082031 604.765625 C 831.679688 601.71875 827.402344 599.3125 823.859375 596.742188 Z M 1039.652344 648.101562 C 1027.582031 636.164062 1012.578125 621.304688 991.773438 600.496094 C 990.398438 599.113281 987.898438 597.46875 983.828125 597.46875 C 979.5625 597.46875 974.003906 599.535156 967.789062 603.003906 C 949.441406 583.179688 930.640625 558.484375 933.527344 544.515625 C 937.839844 523.609375 935.101562 515.230469 930.550781 501.351562 C 928.664062 495.582031 926.527344 489.042969 924.292969 479.992188 C 921.089844 467.058594 919.507812 456.082031 918.234375 447.261719 C 915.839844 430.679688 914.265625 419.730469 903.441406 419.730469 C 903.105469 419.730469 902.757812 419.738281 902.398438 419.765625 C 895.960938 420.261719 891.054688 422.640625 887.394531 427.023438 C 880.757812 434.996094 878.613281 449.78125 880.730469 473.375 C 869.464844 465.769531 841.425781 437.210938 820.246094 415.648438 C 812.261719 407.515625 804.289062 399.394531 796.75 391.863281 C 791.71875 386.832031 784.949219 383.707031 779.085938 383.707031 C 775.304688 383.707031 772.121094 384.996094 769.886719 387.4375 C 767.390625 390.15625 766.34375 393.945312 766.761719 398.710938 C 767.375 405.601562 775.265625 415.425781 790.324219 433.632812 C 798.675781 443.726562 808.042969 455.054688 816.511719 466.875 C 814.191406 465.074219 811.058594 462.351562 806.90625 458.203125 C 781.855469 433.164062 748.808594 404.5625 745.121094 401.386719 C 741.488281 398.25 737.484375 396.597656 733.558594 396.597656 C 729.984375 396.597656 724.820312 397.957031 720.515625 404.4375 C 715.527344 411.917969 719.921875 420.050781 723.210938 423.574219 C 724.675781 425.25 752.195312 456.542969 774.375 479.941406 C 774.125 479.722656 773.878906 479.503906 773.628906 479.28125 C 757.78125 465.261719 738.054688 447.808594 726.453125 442.855469 C 724.234375 441.90625 722 441.429688 719.816406 441.429688 C 713.402344 441.429688 708.539062 445.640625 706.5625 449.820312 C 704.410156 454.359375 703.957031 462 714.03125 472.601562 C 720.289062 479.195312 738.207031 494.445312 755.535156 509.191406 C 760.277344 513.230469 764.925781 517.183594 769.074219 520.746094 C 765.3125 518.492188 761.226562 516.019531 757.199219 513.578125 C 743.816406 505.46875 731.179688 497.804688 726.546875 495.984375 C 724.078125 495.019531 721.683594 494.523438 719.425781 494.523438 C 714.292969 494.523438 709.976562 497.136719 707.867188 501.515625 C 705.328125 506.777344 706.433594 513.609375 710.671875 518.929688 C 713.734375 522.769531 721.078125 528.058594 732.816406 536.367188 C 742.789062 543.433594 754.09375 551.4375 761.957031 558.605469 C 774.429688 569.96875 792.105469 585.4375 818.308594 604.40625 C 822.296875 607.289062 826.992188 609.9375 832.441406 613.007812 C 847.964844 621.757812 869.980469 634.171875 904.011719 666.675781 C 903.613281 667.441406 903.238281 668.191406 902.894531 668.925781 C 898.785156 677.761719 898.65625 684.5625 902.515625 689.132812 C 921.464844 711.578125 946.371094 735.828125 968.351562 757.222656 C 976.539062 765.199219 984.277344 772.730469 991.316406 779.78125 C 994.4375 782.910156 998.558594 784.496094 1003.570312 784.496094 C 1027.785156 784.496094 1070.65625 744.417969 1082.574219 716.214844 C 1088.679688 701.785156 1085.273438 693.941406 1081.347656 689.902344 C 1067.355469 675.515625 1055.734375 664.015625 1039.652344 648.101562 " fill-opacity="1" fill-rule="nonzero"/><path fill="#1c97c6" d="M 924.183594 679.351562 C 922.335938 681.199219 922.335938 684.195312 924.183594 686.039062 C 926.179688 688.027344 926.316406 689.21875 926.1875 690.113281 C 925.8125 692.699219 927.609375 695.097656 930.191406 695.472656 C 930.421875 695.5 930.648438 695.519531 930.871094 695.519531 C 933.183594 695.519531 935.210938 693.824219 935.550781 691.46875 C 936.171875 687.148438 934.601562 683.070312 930.878906 679.34375 C 929.027344 677.5 926.035156 677.507812 924.183594 679.351562 " fill-opacity="1" fill-rule="nonzero"/><path fill="#1c97c6" d="M 942.050781 651.835938 C 939.929688 650.3125 936.96875 650.800781 935.453125 652.929688 C 933.929688 655.046875 934.417969 658.003906 936.542969 659.527344 C 936.933594 659.804688 937.1875 660.265625 937.1875 660.695312 C 937.191406 663.308594 939.304688 665.417969 941.917969 665.417969 L 941.929688 665.417969 C 944.539062 665.414062 946.65625 663.289062 946.652344 660.679688 C 946.644531 657.199219 944.925781 653.890625 942.050781 651.835938 " fill-opacity="1" fill-rule="nonzero"/><path fill="#1c97c6" d="M 977.613281 642.644531 C 975.773438 640.796875 972.773438 640.804688 970.929688 642.644531 C 969.074219 644.496094 969.074219 647.484375 970.921875 649.332031 L 971.003906 649.414062 C 970.410156 651.082031 970.785156 653.011719 972.125 654.347656 C 973.046875 655.265625 974.25 655.726562 975.460938 655.726562 C 976.675781 655.726562 977.890625 655.261719 978.8125 654.335938 C 981.894531 651.246094 981.40625 646.4375 977.613281 642.644531 " fill-opacity="1" fill-rule="nonzero"/><path fill="#1c97c6" d="M 983.53125 623.746094 C 984.167969 624.238281 984.464844 625.132812 984.25 625.921875 C 983.566406 628.441406 985.054688 631.039062 987.574219 631.726562 C 987.988281 631.839844 988.40625 631.894531 988.820312 631.894531 C 990.902344 631.894531 992.8125 630.507812 993.378906 628.40625 C 994.589844 623.96875 992.960938 619.09375 989.339844 616.277344 C 987.269531 614.675781 984.300781 615.050781 982.699219 617.109375 C 981.09375 619.167969 981.460938 622.140625 983.53125 623.746094 " fill-opacity="1" fill-rule="nonzero"/><path fill="#1c97c6" d="M 968.398438 667.253906 L 967.726562 666.601562 C 965.882812 664.757812 962.886719 664.75 961.039062 666.59375 C 959.1875 668.441406 959.183594 671.429688 961.027344 673.285156 L 961.828125 674.066406 C 962.605469 674.808594 963.671875 675.839844 963.710938 676.324219 C 963.933594 678.777344 965.996094 680.628906 968.421875 680.628906 L 968.847656 680.613281 C 971.449219 680.378906 973.371094 678.082031 973.136719 675.476562 C 972.78125 671.472656 970.140625 668.9375 968.398438 667.253906 " fill-opacity="1" fill-rule="nonzero"/><path fill="#1c97c6" d="M 956.148438 706.019531 L 956.152344 706.019531 C 958.761719 706.019531 960.878906 703.898438 960.878906 701.289062 C 960.875 698.011719 959.117188 694.875 956.042969 692.671875 C 953.921875 691.15625 950.964844 691.640625 949.441406 693.765625 C 947.921875 695.882812 948.410156 698.84375 950.535156 700.363281 C 951.179688 700.824219 951.386719 701.210938 951.414062 701.304688 C 951.425781 703.914062 953.539062 706.019531 956.148438 706.019531 " fill-opacity="1" fill-rule="nonzero"/><path fill="#1c97c6" d="M 959.097656 716.785156 C 956.976562 715.261719 954.019531 715.75 952.496094 717.875 C 950.976562 720 951.464844 722.949219 953.582031 724.472656 C 954.246094 724.945312 954.632812 725.507812 954.714844 725.742188 C 954.769531 728.308594 956.863281 730.371094 959.441406 730.371094 L 959.453125 730.371094 C 962.066406 730.367188 964.179688 728.25 964.175781 725.636719 C 964.175781 722.371094 962.273438 719.058594 959.097656 716.785156 " fill-opacity="1" fill-rule="nonzero"/><path fill="#1c97c6" d="M 982.734375 703.878906 C 980.609375 705.394531 980.117188 708.347656 981.632812 710.472656 L 981.734375 710.652344 C 980.386719 712.761719 980.917969 715.582031 982.976562 717.054688 C 983.808594 717.648438 984.765625 717.929688 985.71875 717.929688 C 987.195312 717.929688 988.648438 717.242188 989.574219 715.949219 C 991.882812 712.71875 991.789062 708.40625 989.332031 704.972656 C 987.8125 702.851562 984.859375 702.359375 982.734375 703.878906 " fill-opacity="1" fill-rule="nonzero"/><path fill="#1c97c6" d="M 1001.421875 683.375 C 1003.113281 679.171875 1001.726562 674.449219 997.964844 671.625 C 995.875 670.066406 992.910156 670.484375 991.339844 672.566406 C 989.769531 674.660156 990.195312 677.625 992.28125 679.195312 C 992.5 679.355469 992.742188 679.601562 992.640625 679.84375 C 991.667969 682.265625 992.835938 685.023438 995.265625 685.996094 C 995.84375 686.226562 996.441406 686.339844 997.03125 686.339844 C 998.902344 686.339844 1000.675781 685.21875 1001.421875 683.375 " fill-opacity="1" fill-rule="nonzero"/><path fill="#1c97c6" d="M 1000.640625 657.902344 C 1001.410156 659.691406 1003.148438 660.769531 1004.992188 660.769531 C 1005.613281 660.769531 1006.242188 660.644531 1006.851562 660.390625 C 1009.253906 659.355469 1010.363281 656.578125 1009.332031 654.175781 C 1008.386719 651.957031 1007.082031 650.019531 1005.464844 648.410156 C 1003.617188 646.558594 1000.625 646.570312 998.777344 648.417969 C 996.933594 650.265625 996.9375 653.261719 998.785156 655.105469 C 999.546875 655.859375 1000.164062 656.800781 1000.640625 657.902344 " fill-opacity="1" fill-rule="nonzero"/><path fill="#1c97c6" d="M 1030.605469 694.757812 C 1031.371094 690.117188 1028.453125 685.753906 1023.167969 683.636719 C 1020.742188 682.664062 1017.984375 683.839844 1017.019531 686.265625 C 1016.042969 688.6875 1017.21875 691.441406 1019.644531 692.410156 C 1020.464844 692.742188 1021.023438 693.203125 1021.238281 693.460938 C 1020.957031 695.941406 1022.671875 698.234375 1025.164062 698.648438 C 1025.421875 698.691406 1025.683594 698.710938 1025.941406 698.710938 C 1028.214844 698.710938 1030.222656 697.070312 1030.605469 694.757812 " fill-opacity="1" fill-rule="nonzero"/><path fill="#1c97c6" d="M 1010.703125 714.328125 C 1008.542969 712.890625 1005.640625 713.476562 1004.179688 715.628906 C 1002.769531 717.710938 1003.265625 720.519531 1005.21875 722.035156 C 1005.234375 722.144531 1005.25 722.316406 1005.25 722.558594 C 1005.25 725.167969 1007.367188 727.28125 1009.984375 727.28125 C 1012.597656 727.28125 1014.714844 725.164062 1014.714844 722.554688 C 1014.710938 718.875 1013.359375 716.105469 1010.703125 714.328125 " fill-opacity="1" fill-rule="nonzero"/><path fill="#1c97c6" d="M 983.765625 733.039062 C 981.671875 731.476562 978.703125 731.90625 977.140625 733.996094 C 975.574219 736.085938 976.003906 739.050781 978.09375 740.617188 C 978.3125 740.773438 978.820312 741.15625 978.820312 742.78125 C 978.820312 745.390625 980.933594 747.507812 983.546875 747.507812 C 986.164062 747.507812 988.277344 745.390625 988.277344 742.78125 C 988.277344 737.519531 985.824219 734.582031 983.765625 733.039062 " fill-opacity="1" fill-rule="nonzero"/><path fill="#1c97c6" d="M 1046.277344 686.496094 C 1044.433594 688.34375 1044.433594 691.335938 1046.277344 693.183594 C 1046.953125 693.855469 1047.046875 694.375 1047.042969 694.84375 C 1047.042969 697.453125 1049.15625 699.570312 1051.773438 699.574219 L 1051.777344 699.574219 C 1054.382812 699.574219 1056.503906 697.464844 1056.507812 694.851562 C 1056.511719 691.699219 1055.289062 688.816406 1052.976562 686.496094 C 1051.128906 684.652344 1048.125 684.652344 1046.277344 686.496094 " fill-opacity="1" fill-rule="nonzero"/><path fill="#1c97c6" d="M 1002.558594 736.714844 C 1000.46875 738.277344 1000.039062 741.242188 1001.605469 743.332031 C 1001.894531 743.710938 1002.183594 744.246094 1001.964844 744.648438 C 1000.699219 746.929688 1001.53125 749.808594 1003.820312 751.074219 C 1004.546875 751.472656 1005.332031 751.660156 1006.101562 751.660156 C 1007.769531 751.660156 1009.386719 750.777344 1010.25 749.21875 C 1012.265625 745.566406 1011.863281 741.242188 1009.179688 737.660156 C 1007.613281 735.566406 1004.644531 735.144531 1002.558594 736.714844 " fill-opacity="1" fill-rule="nonzero"/><path fill="#1c97c6" d="M 1030.304688 712.484375 C 1028.453125 714.328125 1028.453125 717.324219 1030.304688 719.175781 L 1030.375 719.246094 C 1029.054688 721.3125 1029.53125 724.078125 1031.53125 725.566406 C 1032.386719 726.207031 1033.375 726.515625 1034.363281 726.515625 C 1035.800781 726.515625 1037.226562 725.859375 1038.15625 724.617188 C 1040.921875 720.921875 1040.445312 715.925781 1036.992188 712.480469 C 1035.144531 710.636719 1032.148438 710.632812 1030.304688 712.484375 " fill-opacity="1" fill-rule="nonzero"/><g clip-path="url(#7b38c7d403)"><path fill="#1c97c6" d="M 1111.375 97.28125 C 1107.546875 101.023438 1103.652344 104.855469 1099.738281 108.730469 C 1083.023438 98.097656 1051.628906 74.289062 1023.191406 31.511719 C 1026.949219 27.96875 1030.726562 24.441406 1034.585938 20.855469 C 1034.863281 20.597656 1035.582031 20.566406 1035.875 20.566406 C 1049.140625 20.566406 1089.839844 57.214844 1106.109375 83.808594 C 1111.507812 92.632812 1111.6875 96.636719 1111.375 97.28125 Z M 1084.5625 123.75 C 1083.269531 125.03125 1081.976562 126.320312 1080.683594 127.605469 C 1064.425781 117.445312 1032.457031 93.753906 1003.445312 50.414062 C 1007.796875 46.195312 1012.035156 42.125 1016.238281 38.109375 C 1044.496094 80.261719 1075.070312 104.144531 1092.785156 115.601562 C 1090.054688 118.308594 1087.3125 121.023438 1084.5625 123.75 Z M 1061.347656 146.710938 C 1045.019531 136.484375 1013.0625 112.734375 984.09375 69.367188 C 988.425781 65.089844 992.566406 61.023438 996.566406 57.113281 C 1025.328125 99.691406 1056.355469 123.441406 1073.742188 134.488281 C 1069.601562 138.582031 1065.46875 142.667969 1061.347656 146.710938 Z M 1041.777344 165.65625 C 1025.332031 155.300781 993.609375 131.554688 964.839844 88.460938 C 969.183594 84.140625 973.308594 80.042969 977.253906 76.136719 C 1005.941406 118.648438 1036.894531 142.429688 1054.34375 153.554688 C 1050.117188 157.667969 1045.921875 161.714844 1041.777344 165.65625 Z M 1021.710938 184.285156 C 1005.027344 173.644531 973.898438 149.980469 945.625 107.621094 C 949.949219 103.300781 954.082031 99.1875 958.015625 95.261719 C 986.4375 137.410156 1017.09375 161.144531 1034.636719 172.40625 C 1030.238281 176.527344 1025.914062 180.507812 1021.710938 184.285156 Z M 1009.332031 195.082031 C 1009.164062 195.21875 1008.660156 195.648438 1007.195312 195.648438 C 991.140625 195.648438 945.105469 152.105469 934.761719 127.128906 C 932.65625 122.039062 933.175781 120.046875 933.4375 119.792969 C 935.273438 117.957031 937.066406 116.164062 938.835938 114.398438 C 966.652344 155.636719 996.578125 179.292969 1014.289062 190.839844 C 1012.617188 192.289062 1010.957031 193.714844 1009.332031 195.082031 Z M 934.980469 261.332031 L 933.597656 263.746094 C 920.871094 285.769531 905.535156 302.117188 893.21875 315.25 C 890.882812 317.734375 888.6875 320.066406 886.6875 322.269531 C 879.117188 330.566406 870.929688 342.121094 863.699219 352.316406 C 857.492188 361.074219 851.078125 370.128906 848.085938 372.507812 C 846.390625 373.859375 844.476562 374.605469 842.707031 374.605469 C 841.296875 374.605469 840.160156 374.121094 839.582031 373.277344 C 838.765625 372.082031 838.859375 369.972656 839.835938 367.488281 C 841.363281 363.613281 849.523438 350.152344 856.730469 338.273438 C 863.671875 326.839844 870.230469 316.035156 872.59375 311.089844 C 873.988281 308.179688 875.996094 302.75 873.734375 299.164062 C 872.683594 297.5 870.890625 296.511719 868.925781 296.511719 C 866.21875 296.511719 864.050781 298.296875 862.457031 299.851562 C 858.625 303.59375 848.59375 315.367188 836.984375 328.984375 C 823.085938 345.300781 807.335938 363.78125 801.121094 369.683594 C 796.136719 374.40625 791.433594 376.667969 788.886719 375.460938 C 788.699219 375.375 784.28125 373.207031 786.578125 367.832031 C 790.925781 357.65625 808.527344 337.785156 821.378906 323.273438 C 827.585938 316.265625 832.957031 310.207031 836.152344 306.066406 C 839.582031 301.636719 842.804688 296.523438 840.703125 292.25 C 839.625 290.050781 837.375 288.738281 834.683594 288.738281 C 831.121094 288.738281 827.09375 290.976562 824.960938 293.191406 C 804.554688 314.390625 752.855469 359.804688 752.234375 360.355469 C 751.667969 360.878906 749.09375 362.832031 746.730469 362.832031 C 745.980469 362.832031 745.324219 362.628906 744.671875 362.195312 C 742.511719 360.761719 741.308594 359.222656 741.089844 357.617188 C 740.847656 355.882812 741.71875 353.761719 743.542969 351.648438 C 744.800781 350.195312 774.578125 315.722656 799.917969 290.394531 C 815.242188 275.085938 815.765625 269.289062 814.253906 265.644531 C 813.167969 263.023438 810.636719 261.464844 807.480469 261.464844 C 804.972656 261.464844 802.085938 262.429688 799.761719 264.050781 C 786.429688 273.316406 773.761719 283.785156 762.582031 293.019531 C 750.660156 302.871094 737.148438 314.039062 732.867188 314.417969 C 732.472656 314.453125 732.097656 314.472656 731.742188 314.472656 C 728.960938 314.472656 728.554688 313.480469 728.417969 313.152344 C 727.375 310.652344 729.230469 304.863281 733.542969 300.554688 C 741.058594 293.039062 749.160156 285.09375 757.273438 277.132812 C 809.671875 225.738281 822.4375 211.769531 819.257812 203.980469 C 818.769531 202.804688 817.171875 200.054688 812.789062 200.054688 C 812.402344 200.054688 811.984375 200.078125 811.53125 200.121094 C 804.367188 200.878906 797.941406 201.257812 792.421875 201.257812 C 765.253906 201.257812 764.570312 192.335938 764.199219 187.546875 C 763.988281 184.769531 771.082031 183.609375 783.640625 181.800781 C 792.664062 180.503906 803.894531 178.878906 817.28125 175.574219 C 826.6875 173.253906 833.707031 170.964844 839.34375 169.121094 C 847.960938 166.308594 853.648438 164.445312 861.394531 164.445312 C 865.949219 164.445312 871.113281 165.078125 877.671875 166.429688 C 879.925781 166.890625 882.300781 167.128906 884.710938 167.128906 C 902.511719 167.128906 921.304688 154.402344 933.570312 144.148438 C 945.355469 161.609375 966.160156 183.320312 984.292969 195.558594 C 956.246094 224.433594 945.027344 243.902344 934.980469 261.332031 Z M 1035.875 11.109375 C 1031.996094 11.109375 1029.53125 12.640625 1028.148438 13.925781 C 998.878906 41.070312 974.773438 65.144531 926.75 113.101562 C 922.972656 116.871094 922.730469 122.808594 926.019531 130.746094 C 926.695312 132.378906 927.554688 134.132812 928.546875 135.96875 C 917.429688 145.445312 900.113281 157.667969 884.710938 157.667969 C 882.9375 157.667969 881.210938 157.5 879.585938 157.164062 C 872.382812 155.683594 866.605469 154.988281 861.394531 154.988281 C 852.136719 154.988281 845.539062 157.144531 836.402344 160.136719 C 830.625 162.019531 824.082031 164.164062 815.019531 166.398438 C 802.082031 169.585938 791.105469 171.171875 782.285156 172.441406 C 765.78125 174.820312 753.863281 176.539062 754.769531 188.273438 C 756.308594 208.390625 776.996094 210.71875 792.421875 210.71875 C 797.175781 210.71875 802.542969 210.453125 808.40625 209.933594 C 800.800781 221.195312 772.222656 249.222656 750.648438 270.382812 C 742.511719 278.363281 734.386719 286.335938 726.851562 293.867188 C 720.996094 299.71875 716.648438 309.464844 719.675781 316.773438 C 721.558594 321.316406 725.953125 323.929688 731.742188 323.929688 C 732.359375 323.929688 733.015625 323.898438 733.703125 323.839844 C 740.585938 323.230469 750.40625 315.347656 768.617188 300.304688 C 778.71875 291.960938 790.058594 282.589844 801.886719 274.125 C 800.09375 276.4375 797.371094 279.570312 793.230469 283.707031 C 767.648438 309.28125 737.644531 344.015625 736.375 345.476562 C 732.757812 349.667969 731.105469 354.4375 731.710938 358.898438 C 732.128906 361.933594 733.800781 366.332031 739.425781 370.066406 C 741.640625 371.542969 744.101562 372.289062 746.730469 372.289062 C 753.117188 372.289062 758.136719 367.789062 758.582031 367.367188 C 760.253906 365.902344 791.578125 338.378906 814.996094 316.207031 C 814.765625 316.476562 814.53125 316.734375 814.292969 317.003906 C 800.273438 332.835938 782.824219 352.535156 777.867188 364.121094 C 774.050781 373.082031 778.605469 381.058594 784.832031 384.007812 C 786.5625 384.828125 788.449219 385.242188 790.441406 385.242188 C 795.769531 385.242188 801.546875 382.316406 807.640625 376.546875 C 814.214844 370.296875 829.457031 352.414062 844.1875 335.117188 C 848.25 330.359375 852.222656 325.699219 855.792969 321.539062 C 853.542969 325.292969 851.078125 329.359375 848.644531 333.371094 C 840.519531 346.757812 832.851562 359.402344 831.03125 364.03125 C 828.855469 369.554688 829.117188 374.730469 831.761719 378.601562 C 834.128906 382.078125 838.109375 384.066406 842.707031 384.066406 C 846.605469 384.066406 850.613281 382.585938 853.992188 379.902344 C 857.828125 376.84375 863.117188 369.503906 871.421875 357.785156 C 878.492188 347.8125 886.507812 336.511719 893.683594 328.640625 C 895.660156 326.472656 897.824219 324.167969 900.113281 321.714844 C 912.105469 308.945312 928.519531 291.441406 941.785156 268.476562 L 943.183594 266.050781 C 953.117188 248.8125 964.242188 229.515625 992.613281 200.578125 C 998.070312 203.433594 1003.0625 205.109375 1007.195312 205.109375 C 1010.464844 205.109375 1013.238281 204.164062 1015.433594 202.308594 C 1038.09375 183.203125 1065.109375 156.394531 1091.230469 130.46875 C 1100.296875 121.46875 1109.285156 112.542969 1117.988281 104.050781 C 1121.535156 100.582031 1121.828125 95.15625 1118.871094 87.894531 C 1109.046875 63.796875 1058.074219 11.109375 1035.875 11.109375 " fill-opacity="1" fill-rule="nonzero"/></g><g clip-path="url(#3420804329)"><path fill="#1c97c6" d="M 620.667969 541.535156 C 619.53125 542.699219 616.078125 546.226562 617.761719 550.222656 C 618.21875 551.304688 619.726562 553.824219 623.863281 553.824219 C 626.105469 553.824219 629.039062 553.039062 631.90625 551.667969 C 636.863281 549.300781 647.6875 542.742188 659.144531 535.792969 C 671.011719 528.605469 684.464844 520.449219 688.339844 518.921875 C 691.632812 517.632812 694.136719 517.875 695.042969 519.761719 C 695.832031 521.398438 695.617188 524.324219 693.347656 527.167969 C 690.964844 530.164062 681.890625 536.589844 673.113281 542.808594 C 662.929688 550.019531 651.386719 558.199219 643.089844 565.753906 C 630.847656 576.914062 613.472656 592.121094 587.566406 610.875 C 582.625 614.453125 577.519531 617.226562 571.605469 620.429688 C 561.511719 625.902344 549.554688 632.410156 533.355469 645.601562 C 530.367188 640.613281 526.519531 635.273438 522.066406 629.875 C 520.660156 628.167969 519.191406 626.457031 517.679688 624.75 L 517.289062 624.3125 C 515.828125 622.671875 514.320312 621.035156 512.777344 619.410156 L 512.558594 619.175781 C 510.941406 617.484375 509.289062 615.804688 507.609375 614.148438 L 507.414062 613.960938 C 505.746094 612.324219 504.058594 610.714844 502.34375 609.140625 L 502.171875 608.980469 C 495.054688 602.433594 487.648438 596.503906 480.628906 591.871094 C 486.042969 582.558594 490.003906 570.472656 487.167969 556.738281 C 483.359375 538.289062 485.398438 532.0625 489.863281 518.417969 C 491.710938 512.785156 494.003906 505.773438 496.324219 496.386719 C 499.632812 483.007812 501.25 471.777344 502.554688 462.753906 C 504.058594 452.324219 505.355469 443.320312 507.992188 443.320312 L 508.300781 443.332031 C 512.15625 443.625 514.765625 444.820312 516.753906 447.210938 C 521.886719 453.371094 523.273438 467.980469 520.878906 490.632812 C 520.609375 493.207031 521.160156 495.277344 522.519531 496.789062 C 523.703125 498.109375 525.386719 498.832031 527.261719 498.832031 C 535.746094 498.832031 555.3125 479.804688 597.9375 436.394531 C 605.898438 428.285156 613.851562 420.1875 621.363281 412.679688 C 624.535156 409.511719 629.046875 407.296875 632.339844 407.296875 C 633.074219 407.296875 634.0625 407.414062 634.5625 407.960938 C 635.160156 408.613281 635.40625 410.09375 635.234375 412.015625 C 634.859375 416.296875 623.679688 429.808594 613.820312 441.730469 C 604.582031 452.898438 594.109375 465.550781 584.847656 478.875 C 582.65625 482.019531 581.269531 486.769531 583.117188 490.304688 C 584.289062 492.546875 586.578125 493.894531 589.238281 493.894531 C 592.542969 493.894531 598.027344 492.203125 611.207031 479.027344 C 635.75 454.503906 668.800781 425.859375 672.488281 422.679688 C 674.347656 421.074219 676.261719 420.1875 677.871094 420.1875 C 679.703125 420.1875 681.441406 421.402344 683.039062 423.808594 C 685.140625 426.964844 681.222656 431.34375 681.109375 431.472656 C 680.652344 431.988281 635.21875 483.664062 614.007812 504.054688 C 611.394531 506.554688 608.328125 512.257812 610.050781 516.539062 C 611.019531 518.949219 613.304688 520.453125 616.003906 520.453125 C 618.863281 520.453125 622.21875 518.847656 626.882812 515.246094 C 628.988281 513.617188 631.59375 511.429688 634.5625 508.855469 C 639.273438 513.007812 642.535156 517.480469 644.5 520.601562 C 633.203125 530.230469 623.914062 538.214844 620.667969 541.535156 Z M 436.664062 764.097656 C 428.347656 772.351562 420.464844 780.175781 413.414062 787.238281 C 412.125 788.53125 410.324219 789.15625 407.90625 789.15625 C 388.894531 789.15625 347.847656 752.464844 337.070312 725.832031 C 335.027344 720.785156 333.316406 714.070312 336.765625 710.734375 C 357.484375 690.699219 375.769531 671.960938 396.945312 650.265625 C 404.804688 642.214844 413.191406 633.621094 422.308594 624.34375 C 422.222656 624.609375 422.140625 624.871094 422.082031 625.101562 C 421.539062 627.371094 421.917969 629.570312 423.175781 631.464844 C 426.320312 636.199219 433.917969 637.457031 441.960938 638.785156 C 443.792969 639.085938 446.207031 639.484375 448.027344 639.902344 C 447.597656 640.820312 447.148438 641.789062 446.6875 642.789062 C 443.945312 648.726562 440.527344 656.125 438.074219 660.417969 C 435.675781 664.613281 436.414062 667.742188 437.457031 669.625 C 440.292969 674.753906 447.890625 675.425781 454.476562 675.730469 C 453.398438 677.230469 452.144531 678.886719 451.078125 680.300781 C 445.878906 687.171875 439.414062 695.71875 437.210938 703.410156 C 436.695312 705.207031 437.03125 707.09375 438.148438 708.566406 C 440.011719 711.046875 443.484375 712.011719 450.527344 712.011719 C 451.507812 712.011719 452.503906 711.992188 453.46875 711.960938 C 451.402344 714.972656 448.667969 718.675781 446.554688 721.539062 C 441.25 728.707031 436.242188 735.480469 434.242188 739.914062 C 433.394531 741.8125 433.53125 743.867188 434.621094 745.554688 C 436.660156 748.699219 441.125 749.34375 447.203125 749.34375 C 448.632812 749.34375 450.132812 749.296875 451.625 749.230469 C 446.523438 754.308594 441.496094 759.300781 436.664062 764.097656 Z M 644.085938 500.484375 C 658.609375 487.640625 678.5 470.039062 688.683594 465.691406 C 689.726562 465.246094 690.707031 465.019531 691.605469 465.019531 C 694.210938 465.019531 695.828125 466.972656 696.3125 468 C 697.253906 469.984375 696.226562 474.234375 690.539062 480.230469 C 684.628906 486.449219 666.125 502.195312 649.796875 516.097656 C 649.417969 516.417969 649.042969 516.734375 648.664062 517.058594 C 646.4375 513.808594 643.117188 509.507812 638.628906 505.308594 C 640.371094 503.777344 642.1875 502.167969 644.085938 500.484375 Z M 697.402344 486.742188 C 707.46875 476.136719 707.015625 468.496094 704.867188 463.953125 C 702.890625 459.777344 698.019531 455.566406 691.605469 455.566406 C 689.425781 455.566406 687.195312 456.042969 684.96875 456.996094 C 673.375 461.945312 653.65625 479.386719 637.8125 493.40625 C 637.5625 493.628906 637.308594 493.851562 637.058594 494.074219 C 659.238281 470.671875 686.730469 439.402344 688.125 437.816406 C 691.507812 434.191406 695.902344 426.058594 690.917969 418.570312 C 686.605469 412.09375 681.441406 410.730469 677.871094 410.730469 C 673.9375 410.730469 669.9375 412.386719 666.300781 415.519531 C 662.589844 418.726562 629.296875 447.578125 604.515625 472.339844 C 600.371094 476.488281 597.238281 479.210938 594.925781 481.003906 C 603.386719 469.183594 612.761719 457.851562 621.113281 447.753906 C 636.167969 429.550781 644.054688 419.734375 644.660156 412.851562 C 645.082031 408.089844 644.035156 404.296875 641.542969 401.570312 C 639.304688 399.128906 636.121094 397.839844 632.339844 397.839844 C 626.46875 397.839844 619.703125 400.964844 614.675781 405.992188 C 607.140625 413.519531 599.167969 421.640625 591.1875 429.769531 C 569.902344 451.445312 541.675781 480.191406 530.683594 487.609375 C 532.816406 463.960938 530.679688 449.144531 524.023438 441.15625 C 520.367188 436.769531 515.460938 434.394531 509.027344 433.902344 C 508.671875 433.875 508.328125 433.863281 507.992188 433.863281 C 497.164062 433.863281 495.582031 444.816406 493.191406 461.402344 C 491.914062 470.222656 490.332031 481.191406 487.136719 494.121094 C 484.902344 503.167969 482.761719 509.710938 480.871094 515.476562 C 476.328125 529.363281 473.585938 537.738281 477.902344 558.65625 C 480.132812 569.449219 476.894531 579.25 472.4375 586.960938 C 470.945312 586.171875 469.496094 585.472656 468.085938 584.851562 L 467.816406 584.738281 C 467.242188 584.488281 466.667969 584.253906 466.109375 584.039062 L 465.5625 583.828125 C 465.109375 583.65625 464.660156 583.496094 464.214844 583.351562 C 463.96875 583.265625 463.71875 583.183594 463.472656 583.105469 C 463.117188 582.988281 462.761719 582.890625 462.414062 582.796875 C 462.113281 582.707031 461.8125 582.625 461.515625 582.550781 C 461.246094 582.480469 460.980469 582.429688 460.714844 582.371094 C 460.367188 582.292969 460.019531 582.21875 459.683594 582.160156 L 459.164062 582.085938 C 458.21875 581.949219 457.304688 581.851562 456.441406 581.851562 C 455.449219 581.851562 454.554688 581.949219 453.730469 582.113281 L 453.539062 582.140625 C 453.175781 582.21875 452.839844 582.3125 452.511719 582.40625 L 452.195312 582.492188 C 451.765625 582.632812 451.359375 582.785156 450.984375 582.957031 L 450.96875 582.964844 L 450.945312 582.980469 C 449.59375 583.601562 448.574219 584.394531 447.851562 585.113281 C 424.984375 607.992188 406.488281 626.945312 390.171875 643.664062 C 369.050781 665.308594 350.808594 684 330.183594 703.9375 C 326.191406 707.796875 322.617188 715.347656 328.296875 729.382812 C 339.621094 757.347656 383.496094 798.617188 407.90625 798.617188 C 412.828125 798.617188 417.046875 796.988281 420.113281 793.914062 C 427.152344 786.863281 435.023438 779.050781 443.332031 770.804688 C 450.75 763.441406 458.601562 755.652344 466.546875 747.707031 C 467.082031 747.480469 467.574219 747.148438 468 746.726562 C 499.707031 715.160156 520.367188 693.34375 537.089844 673.773438 C 540.964844 669.238281 541.148438 662.660156 537.738281 654.246094 C 554.132812 640.683594 566.078125 634.1875 576.121094 628.742188 C 582.066406 625.519531 587.679688 622.46875 593.117188 618.53125 C 619.40625 599.507812 637.039062 584.066406 649.464844 572.742188 C 657.332031 565.578125 668.625 557.582031 678.585938 550.527344 C 690.335938 542.207031 697.691406 536.90625 700.75 533.058594 C 704.992188 527.746094 706.101562 520.914062 703.566406 515.65625 C 701.457031 511.277344 697.136719 508.660156 692 508.660156 C 689.746094 508.660156 687.347656 509.148438 684.875 510.121094 C 680.246094 511.945312 667.613281 519.601562 654.238281 527.707031 C 650.207031 530.152344 646.128906 532.621094 642.363281 534.871094 C 646.519531 531.304688 651.179688 527.34375 655.933594 523.296875 C 673.246094 508.5625 691.144531 493.324219 697.402344 486.742188 " fill-opacity="1" fill-rule="nonzero"/></g><path fill="#1c97c6" d="M 344.523438 81.796875 C 364.152344 58.183594 396.085938 35.953125 406.507812 35.953125 C 406.851562 35.953125 407.066406 35.988281 407.183594 36.011719 C 414.117188 37.683594 448.140625 73.207031 475.488281 101.757812 C 491.070312 118.027344 507.183594 134.855469 522.367188 150.015625 C 522.375 150.027344 523.28125 151.546875 521.027344 156.984375 C 510.902344 181.425781 464.085938 225.804688 448.425781 225.804688 C 447.523438 225.804688 446.863281 225.632812 446.464844 225.296875 C 399.226562 185.605469 331.898438 123.976562 329.550781 113.800781 C 328.175781 106.425781 333.492188 95.058594 344.523438 81.796875 Z M 537.359375 173.660156 C 535.875 177.921875 527.496094 189.773438 508.351562 208.40625 C 491.476562 224.828125 478.035156 235.054688 473.121094 237.40625 C 471.152344 235.101562 468.640625 232.03125 466.171875 228.96875 C 487.761719 216.273438 515.144531 187.109375 526.4375 167.257812 C 530.675781 169.898438 534.730469 172.316406 537.359375 173.660156 Z M 544.820312 179.882812 C 548.171875 180.671875 551.535156 181.140625 554.867188 181.140625 C 557.28125 181.140625 559.652344 180.902344 561.902344 180.4375 C 568.460938 179.085938 573.632812 178.453125 578.1875 178.453125 C 585.933594 178.453125 591.628906 180.316406 600.242188 183.128906 C 605.878906 184.972656 612.890625 187.265625 622.289062 189.585938 C 635.675781 192.890625 646.914062 194.511719 655.941406 195.808594 C 668.496094 197.621094 675.585938 198.777344 675.375 201.558594 C 675.007812 206.347656 674.320312 215.261719 647.179688 215.261719 C 641.65625 215.261719 635.21875 214.878906 628.039062 214.121094 C 627.589844 214.074219 627.171875 214.054688 626.789062 214.054688 C 622.398438 214.054688 620.804688 216.804688 620.316406 217.984375 C 617.136719 225.769531 629.898438 239.738281 682.320312 291.15625 C 690.425781 299.105469 698.523438 307.046875 706.03125 314.554688 C 710.347656 318.859375 712.195312 324.652344 711.15625 327.15625 C 711.023438 327.480469 710.609375 328.476562 707.835938 328.476562 C 707.476562 328.476562 707.097656 328.453125 706.699219 328.421875 C 702.425781 328.042969 688.90625 316.871094 676.976562 307.015625 C 665.804688 297.785156 653.140625 287.316406 639.816406 278.058594 C 637.484375 276.4375 634.597656 275.46875 632.09375 275.46875 C 628.9375 275.46875 626.402344 277.03125 625.320312 279.652344 C 623.808594 283.300781 624.328125 289.089844 639.648438 304.398438 C 664.4375 329.171875 692.871094 361.996094 696.03125 365.65625 C 697.851562 367.761719 698.722656 369.878906 698.484375 371.621094 C 698.269531 373.226562 697.0625 374.765625 694.910156 376.199219 C 694.257812 376.636719 693.601562 376.835938 692.847656 376.835938 C 690.582031 376.835938 688.03125 374.988281 687.234375 374.265625 C 686.714844 373.8125 635.019531 328.402344 614.613281 307.199219 C 612.484375 304.984375 608.457031 302.738281 604.890625 302.738281 C 602.199219 302.738281 599.949219 304.050781 598.871094 306.246094 C 596.769531 310.53125 599.992188 315.640625 603.421875 320.074219 C 606.613281 324.203125 611.96875 330.246094 618.164062 337.238281 C 631.027344 351.765625 648.644531 371.652344 652.996094 381.835938 C 655.292969 387.214844 650.878906 389.378906 650.695312 389.464844 C 648.117188 390.675781 643.429688 388.40625 638.449219 383.683594 C 632.21875 377.773438 616.433594 359.246094 602.507812 342.902344 C 590.941406 329.324219 580.949219 317.597656 577.125 313.867188 C 575.527344 312.304688 573.347656 310.515625 570.644531 310.515625 C 568.683594 310.515625 566.886719 311.503906 565.839844 313.164062 C 563.578125 316.757812 565.582031 322.183594 566.976562 325.097656 C 569.34375 330.042969 575.898438 340.84375 582.839844 352.277344 C 590.042969 364.15625 598.210938 377.617188 599.734375 381.492188 C 600.710938 383.980469 600.808594 386.089844 599.996094 387.28125 C 599.417969 388.128906 598.28125 388.613281 596.875 388.613281 C 595.105469 388.613281 593.191406 387.863281 591.488281 386.511719 C 588.5 384.128906 582.082031 375.074219 575.875 366.320312 C 568.648438 356.128906 560.457031 344.574219 552.882812 336.273438 C 550.875 334.066406 548.675781 331.726562 546.335938 329.226562 C 534.023438 316.097656 518.695312 299.757812 505.984375 277.753906 L 504.609375 275.363281 C 498.878906 265.417969 492.761719 254.8125 483.363281 242.167969 C 493.480469 235.355469 506.273438 223.507812 512.746094 217.3125 C 520.933594 209.472656 538.636719 191.78125 544.820312 179.882812 Z M 440.375 232.539062 C 442.527344 234.347656 445.234375 235.265625 448.425781 235.265625 C 451.113281 235.265625 454.175781 234.539062 457.484375 233.261719 C 461.082031 237.75 465.035156 242.597656 467.53125 245.394531 C 468.648438 246.652344 470.25 247.335938 472.046875 247.335938 C 472.871094 247.335938 473.863281 247.089844 474.9375 246.714844 C 484.542969 259.492188 490.675781 270.132812 496.410156 280.082031 L 497.789062 282.476562 C 511.046875 305.429688 527.453125 322.921875 539.429688 335.699219 C 541.738281 338.15625 543.910156 340.46875 545.890625 342.648438 C 553.070312 350.515625 561.085938 361.820312 568.152344 371.789062 C 576.464844 383.507812 581.75 390.84375 585.59375 393.910156 C 588.964844 396.59375 592.972656 398.066406 596.875 398.066406 C 601.460938 398.066406 605.449219 396.074219 607.8125 392.605469 C 610.453125 388.730469 610.714844 383.558594 608.542969 378.035156 C 606.847656 373.726562 600.472656 363.097656 590.929688 347.375 C 588.492188 343.355469 586.023438 339.296875 583.777344 335.535156 C 587.328125 339.675781 591.277344 344.308594 595.304688 349.039062 C 609.382812 365.5625 625.339844 384.289062 631.933594 390.542969 C 638.019531 396.316406 643.804688 399.246094 649.136719 399.246094 C 651.125 399.246094 653.007812 398.832031 654.742188 398.015625 C 660.972656 395.066406 665.53125 387.089844 661.699219 378.125 C 656.746094 366.53125 639.28125 346.8125 625.25 330.972656 C 625.03125 330.726562 624.8125 330.480469 624.597656 330.238281 C 648.011719 352.402344 679.296875 379.882812 680.886719 381.28125 C 681.4375 381.789062 686.453125 386.292969 692.847656 386.292969 C 695.480469 386.292969 697.9375 385.546875 700.152344 384.074219 C 705.773438 380.332031 707.445312 375.933594 707.859375 372.898438 C 708.472656 368.433594 706.816406 363.671875 703.195312 359.476562 C 700.011719 355.789062 671.367188 322.726562 646.335938 297.714844 C 642.191406 293.566406 639.464844 290.4375 637.671875 288.125 C 649.503906 296.585938 660.84375 305.957031 670.949219 314.304688 C 689.160156 329.351562 698.984375 337.234375 705.871094 337.839844 C 706.554688 337.902344 707.210938 337.933594 707.835938 337.933594 C 713.617188 337.933594 718.011719 335.324219 719.898438 330.78125 C 722.925781 323.46875 718.582031 313.71875 712.71875 307.863281 C 705.195312 300.34375 697.074219 292.378906 688.945312 284.402344 C 667.359375 263.234375 638.769531 235.195312 631.164062 223.929688 C 637.046875 224.453125 642.417969 224.71875 647.179688 224.71875 C 662.59375 224.71875 683.257812 222.394531 684.808594 202.28125 C 685.714844 190.542969 673.792969 188.828125 657.292969 186.449219 C 648.46875 185.175781 637.488281 183.601562 624.558594 180.402344 C 615.5 178.171875 608.957031 176.027344 603.183594 174.140625 C 594.046875 171.152344 587.445312 168.992188 578.1875 168.992188 C 572.976562 168.992188 567.191406 169.6875 559.992188 171.175781 C 558.363281 171.507812 556.640625 171.675781 554.867188 171.675781 C 552.226562 171.675781 549.53125 171.304688 546.816406 170.660156 C 546.210938 168.136719 544.484375 166.484375 542.648438 165.714844 C 540.835938 164.945312 535.925781 162.039062 530.496094 158.632812 C 532.886719 151.855469 532.425781 146.695312 529.054688 143.328125 C 513.945312 128.242188 497.871094 111.453125 482.324219 95.222656 C 441.753906 52.863281 418.359375 28.800781 409.230469 26.785156 C 408.386719 26.59375 407.46875 26.5 406.507812 26.5 C 390.5625 26.5 356.183594 52.976562 337.246094 75.75 C 324.011719 91.65625 318.292969 105.046875 320.246094 115.523438 C 323.691406 134.042969 439.210938 231.558594 440.375 232.539062 " fill-opacity="1" fill-rule="nonzero"/></svg>