<svg xmlns="http://www.w3.org/2000/svg" xmlns:xlink="http://www.w3.org/1999/xlink" width="1920" zoomAndPan="magnify" viewBox="0 0 1440 809.999993" height="1080" preserveAspectRatio="xMidYMid meet" version="1.0"><defs><clipPath id="48a6a7fa1b"><path d="M 323 23.019531 L 1115 23.019531 L 1115 787.269531 L 323 787.269531 Z M 323 23.019531 " clip-rule="nonzero"/></clipPath></defs><rect x="-144" width="1728" fill="#ffffff" y="-80.999999" height="971.999992" fill-opacity="1"/><rect x="-144" width="1728" fill="#ffffff" y="-80.999999" height="971.999992" fill-opacity="1"/><rect x="-144" width="1728" fill="#ffffff" y="-80.999999" height="971.999992" fill-opacity="1"/><g clip-path="url(#48a6a7fa1b)"><path fill="#1c97c6" d="M 476.347656 180.320312 C 497.371094 180.320312 516.394531 171.4375 530.15625 157.074219 C 543.804688 142.851562 552.246094 123.246094 552.246094 101.660156 C 552.246094 80.078125 543.804688 60.492188 530.15625 46.246094 C 516.394531 31.902344 497.371094 23.019531 476.347656 23.019531 C 455.308594 23.019531 436.285156 31.902344 422.519531 46.265625 C 408.875 60.492188 400.429688 80.097656 400.429688 101.679688 C 400.429688 123.265625 408.875 142.851562 422.519531 157.09375 C 436.285156 171.4375 455.308594 180.320312 476.347656 180.320312 Z M 440.792969 63.835938 C 449.890625 54.339844 462.464844 48.441406 476.328125 48.441406 C 490.191406 48.441406 502.769531 54.320312 511.867188 63.835938 C 521.082031 73.449219 526.796875 86.824219 526.796875 101.660156 C 526.796875 116.5 521.082031 129.871094 511.867188 139.488281 C 502.769531 148.984375 490.191406 154.878906 476.328125 154.878906 C 462.464844 154.878906 449.890625 149.003906 440.792969 139.488281 C 431.578125 129.871094 425.863281 116.5 425.863281 101.660156 C 425.863281 86.824219 431.578125 73.46875 440.792969 63.835938 Z M 605.125 217.058594 C 590.472656 202.578125 570.261719 193.578125 548.054688 193.578125 L 404.625 193.578125 C 382.414062 193.578125 362.207031 202.578125 347.550781 217.058594 C 332.820312 231.601562 323.683594 251.664062 323.683594 273.703125 L 323.683594 455.238281 C 323.683594 468.652344 328.984375 480.898438 337.546875 489.800781 C 346.207031 498.84375 358.191406 504.441406 371.402344 504.441406 C 379.429688 504.441406 387.023438 502.34375 393.667969 498.683594 L 393.667969 738.007812 C 393.667969 751.421875 398.96875 763.667969 407.53125 772.570312 C 416.191406 781.613281 428.175781 787.210938 441.386719 787.210938 C 454.578125 787.210938 466.558594 781.59375 475.222656 772.570312 C 475.617188 772.15625 475.992188 771.738281 476.367188 771.324219 C 476.746094 771.738281 477.121094 772.175781 477.515625 772.570312 C 486.175781 781.613281 498.160156 787.210938 511.371094 787.210938 C 524.5625 787.210938 536.546875 781.59375 545.207031 772.570312 C 553.75 763.648438 559.070312 751.402344 559.070312 738.007812 L 559.070312 498.703125 C 565.734375 502.363281 573.308594 504.460938 581.355469 504.460938 C 594.546875 504.460938 606.53125 498.84375 615.191406 489.820312 C 623.734375 480.898438 629.054688 468.652344 629.054688 455.257812 L 629.054688 273.722656 C 629.054688 273.703125 629.054688 273.703125 629.054688 273.683594 C 628.996094 251.644531 619.859375 231.582031 605.125 217.058594 Z M 596.878906 472.234375 C 592.867188 476.425781 587.347656 479.019531 581.296875 479.019531 C 575.265625 479.019531 569.75 476.40625 565.734375 472.234375 C 561.601562 467.917969 559.03125 461.925781 559.03125 455.257812 L 559.03125 440.0625 C 559.03125 440.0625 559.03125 440.0625 559.03125 440.042969 L 559.03125 298.195312 C 559.03125 291.171875 553.335938 285.472656 546.3125 285.472656 C 539.292969 285.472656 533.597656 291.171875 533.597656 298.195312 L 533.597656 440.042969 C 533.597656 440.042969 533.597656 440.0625 533.597656 440.0625 L 533.597656 738.027344 C 533.597656 744.695312 531.027344 750.710938 526.894531 755.023438 C 522.878906 759.21875 517.363281 761.808594 511.3125 761.808594 C 505.28125 761.808594 499.761719 759.195312 495.75 755.023438 C 491.617188 750.710938 489.042969 744.695312 489.042969 738.027344 L 489.042969 493.855469 C 489.042969 486.832031 483.347656 481.136719 476.328125 481.136719 C 469.308594 481.136719 463.613281 486.832031 463.613281 493.855469 L 463.613281 738.027344 C 463.613281 744.695312 461.042969 750.710938 456.910156 755.023438 C 452.894531 759.21875 447.378906 761.808594 441.328125 761.808594 C 435.296875 761.808594 429.777344 759.195312 425.761719 755.023438 C 421.628906 750.710938 419.058594 744.695312 419.058594 738.027344 L 419.058594 440.0625 C 419.058594 440.0625 419.058594 440.042969 419.058594 440.042969 L 419.058594 298.195312 C 419.058594 291.171875 413.363281 285.472656 406.34375 285.472656 C 399.324219 285.472656 393.628906 291.171875 393.628906 298.195312 L 393.628906 440.042969 C 393.628906 440.042969 393.628906 440.0625 393.628906 440.0625 L 393.628906 455.257812 C 393.628906 461.90625 391.058594 467.917969 386.925781 472.234375 C 382.910156 476.425781 377.394531 479.019531 371.339844 479.019531 C 365.308594 479.019531 359.792969 476.40625 355.777344 472.234375 C 351.644531 467.917969 349.074219 461.90625 349.074219 455.238281 L 349.074219 273.703125 C 349.074219 258.664062 355.285156 245.015625 365.289062 235.125 C 375.355469 225.171875 389.277344 219 404.585938 219 L 547.996094 219 C 563.320312 219 577.222656 225.171875 587.289062 235.125 C 597.296875 245.015625 603.503906 258.664062 603.503906 273.703125 L 603.503906 355.585938 C 603.503906 355.585938 603.503906 355.605469 603.503906 355.605469 L 603.503906 455.238281 C 603.5625 461.90625 600.992188 467.917969 596.878906 472.234375 Z M 927.742188 180.320312 C 948.761719 180.320312 967.808594 171.4375 981.550781 157.074219 C 995.195312 142.851562 1003.640625 123.246094 1003.640625 101.660156 C 1003.640625 80.078125 995.195312 60.492188 981.550781 46.246094 C 967.785156 31.902344 948.761719 23.019531 927.742188 23.019531 C 906.722656 23.019531 887.695312 31.902344 873.933594 46.265625 C 860.289062 60.492188 851.84375 80.097656 851.84375 101.679688 C 851.84375 123.265625 860.289062 142.851562 873.933594 157.09375 C 887.675781 171.4375 906.699219 180.320312 927.742188 180.320312 Z M 892.1875 63.835938 C 901.300781 54.339844 913.859375 48.441406 927.722656 48.441406 C 941.585938 48.441406 954.160156 54.320312 963.257812 63.835938 C 972.472656 73.449219 978.1875 86.824219 978.1875 101.660156 C 978.1875 116.5 972.472656 129.871094 963.257812 139.488281 C 954.140625 148.984375 941.585938 154.878906 927.722656 154.878906 C 913.859375 154.878906 901.28125 149.003906 892.1875 139.488281 C 882.96875 129.871094 877.253906 116.5 877.253906 101.660156 C 877.253906 86.824219 882.96875 73.46875 892.1875 63.835938 Z M 1112.660156 420.320312 C 1096.703125 364.234375 1081.871094 300.746094 1063.085938 246.378906 C 1058.160156 231.917969 1049.417969 219.355469 1038.226562 210.136719 C 1025.589844 199.75 1009.890625 193.558594 992.902344 193.558594 L 862.5625 193.558594 C 845.574219 193.558594 829.875 199.75 817.238281 210.136719 C 806.042969 219.355469 797.324219 231.898438 792.398438 246.359375 C 792.222656 246.816406 792.042969 247.269531 791.90625 247.746094 L 791.648438 248.65625 C 791.292969 249.824219 790.957031 250.988281 790.640625 252.175781 C 790.621094 252.214844 790.621094 252.257812 790.621094 252.296875 L 742.824219 420.320312 C 739.28125 432.804688 740.507812 445.839844 745.3125 456.742188 C 750.277344 468 759.15625 477.160156 770.707031 481.589844 C 771.8125 482.027344 773 482.421875 774.148438 482.777344 C 780.019531 484.457031 785.953125 484.714844 791.667969 483.785156 L 775.886719 539.28125 C 773.96875 546.027344 777.882812 553.070312 784.628906 554.96875 C 785.792969 555.304688 786.960938 555.464844 788.109375 555.464844 L 845.082031 555.464844 L 845.082031 738.007812 C 845.082031 751.421875 850.378906 763.667969 858.945312 772.570312 C 867.605469 781.613281 879.589844 787.210938 892.796875 787.210938 C 905.988281 787.210938 917.972656 781.59375 926.632812 772.550781 C 927.03125 772.136719 927.40625 771.71875 927.78125 771.304688 C 928.15625 771.71875 928.53125 772.15625 928.929688 772.550781 C 937.589844 781.574219 949.574219 787.191406 962.785156 787.191406 C 975.972656 787.191406 987.957031 781.574219 996.621094 772.550781 C 1005.164062 763.628906 1010.480469 751.382812 1010.480469 737.988281 L 1010.480469 555.445312 L 1067.453125 555.445312 C 1074.476562 555.445312 1080.171875 549.746094 1080.171875 542.722656 C 1080.171875 541.277344 1079.933594 539.894531 1079.476562 538.585938 L 1063.875 483.707031 C 1069.589844 484.636719 1075.523438 484.398438 1081.394531 482.71875 C 1082.523438 482.363281 1083.691406 481.964844 1084.777344 481.550781 C 1096.347656 477.140625 1105.226562 467.960938 1110.210938 456.683594 C 1114.976562 445.839844 1116.203125 432.804688 1112.660156 420.320312 Z M 908.324219 755.023438 C 904.308594 759.21875 898.789062 761.828125 892.757812 761.828125 C 886.726562 761.828125 881.210938 759.21875 877.195312 755.042969 C 873.0625 750.730469 870.492188 744.714844 870.492188 738.046875 L 870.492188 555.503906 L 915.027344 555.503906 L 915.027344 738.046875 C 915.027344 744.695312 912.457031 750.710938 908.324219 755.023438 Z M 984.992188 738.027344 C 984.992188 744.695312 982.421875 750.710938 978.289062 755.023438 C 974.273438 759.21875 968.757812 761.808594 962.703125 761.808594 C 956.671875 761.808594 951.15625 759.195312 947.140625 755.023438 C 943.007812 750.710938 940.4375 744.695312 940.4375 738.027344 L 940.4375 555.484375 L 984.992188 555.484375 Z M 1086.914062 446.511719 C 1084.5625 451.855469 1080.605469 456.089844 1075.660156 457.949219 L 1074.375 458.34375 C 1070.261719 459.511719 1066.011719 458.839844 1062.332031 456.761719 C 1058.257812 454.445312 1054.839844 450.410156 1052.859375 445.148438 C 1052.703125 444.652344 1052.542969 444.140625 1052.386719 443.644531 L 1009.730469 293.703125 C 1008.289062 288.636719 1003.976562 285.175781 999.070312 284.5625 C 997.429688 284.363281 995.730469 284.484375 994.046875 284.957031 C 987.304688 286.878906 983.390625 293.902344 985.308594 300.648438 C 998.992188 348.722656 1011.886719 402.613281 1027.707031 449.71875 L 1050.546875 530.039062 L 804.917969 530.039062 L 827.757812 449.738281 C 843.597656 402.632812 856.492188 348.742188 870.15625 300.648438 C 872.074219 293.902344 868.160156 286.859375 861.414062 284.957031 C 854.671875 283.058594 847.632812 286.957031 845.734375 293.703125 L 803.078125 443.644531 C 802.917969 444.140625 802.761719 444.632812 802.601562 445.128906 C 800.644531 450.390625 797.203125 454.425781 793.132812 456.742188 C 789.472656 458.839844 785.199219 459.511719 781.085938 458.324219 L 779.800781 457.929688 C 774.859375 456.070312 770.921875 451.835938 768.570312 446.492188 C 766.019531 440.738281 765.386719 433.851562 767.265625 427.242188 L 816.367188 254.667969 C 816.367188 254.648438 816.386719 254.609375 816.386719 254.589844 C 819.769531 244.597656 825.722656 235.953125 833.355469 229.664062 C 841.5 222.957031 851.644531 218.960938 862.601562 218.960938 L 992.941406 218.960938 C 1003.898438 218.960938 1014.023438 222.957031 1022.1875 229.664062 C 1029.761719 235.894531 1035.695312 244.441406 1039.097656 254.332031 L 1088.277344 427.222656 C 1090.097656 433.871094 1089.445312 440.757812 1086.914062 446.511719 Z M 713.355469 35.742188 L 713.355469 774.53125 C 713.355469 781.554688 707.660156 787.25 700.640625 787.25 C 693.621094 787.25 687.925781 781.554688 687.925781 774.53125 L 687.925781 35.742188 C 687.925781 28.71875 693.621094 23.019531 700.640625 23.019531 C 707.660156 23.019531 713.355469 28.71875 713.355469 35.742188 Z M 713.355469 35.742188 " fill-opacity="1" fill-rule="nonzero"/></g></svg>