<svg xmlns="http://www.w3.org/2000/svg" xmlns:xlink="http://www.w3.org/1999/xlink" width="1920" zoomAndPan="magnify" viewBox="0 0 1440 809.999993" height="1080" preserveAspectRatio="xMidYMid meet" version="1.0"><defs><clipPath id="dae086cbe6"><path d="M 244 199.363281 L 306 199.363281 L 306 234 L 244 234 Z M 244 199.363281 " clip-rule="nonzero"/></clipPath><clipPath id="8a1ffc08b7"><path d="M 15 381 L 417 381 L 417 610.363281 L 15 610.363281 Z M 15 381 " clip-rule="nonzero"/></clipPath></defs><rect x="-144" width="1728" fill="#ffffff" y="-80.999999" height="971.999992" fill-opacity="1"/><rect x="-144" width="1728" fill="#ffffff" y="-80.999999" height="971.999992" fill-opacity="1"/><rect x="-144" width="1728" fill="#ffffff" y="-80.999999" height="971.999992" fill-opacity="1"/><g clip-path="url(#dae086cbe6)"><path fill="#011e41" d="M 305.765625 209.722656 L 244.050781 199.363281 L 249.480469 233.898438 Z M 305.765625 209.722656 " fill-opacity="1" fill-rule="nonzero"/></g><path fill="#0082ca" d="M 329.460938 263.007812 L 297.863281 278.304688 L 184.804688 262.023438 L 305.765625 209.722656 Z M 329.460938 263.007812 " fill-opacity="1" fill-rule="nonzero"/><path fill="#011e41" d="M 184.804688 262.023438 L 338.84375 284.71875 L 229.238281 340.964844 L 176.902344 338.007812 Z M 184.804688 262.023438 " fill-opacity="1" fill-rule="nonzero"/><path fill="#0082ca" d="M 367.972656 349.355469 L 318.601562 377.972656 L 173.449219 369.582031 L 338.84375 284.71875 Z M 367.972656 349.355469 " fill-opacity="1" fill-rule="nonzero"/><path fill="#011e41" d="M 173.449219 369.582031 L 382.289062 381.917969 L 248 465.300781 L 163.078125 469.25 Z M 173.449219 369.582031 " fill-opacity="1" fill-rule="nonzero"/><g clip-path="url(#8a1ffc08b7)"><path fill="#0082ca" d="M 416.355469 458.394531 L 382.289062 381.917969 L 15.457031 610.363281 L 236.644531 587.171875 Z M 416.355469 458.394531 " fill-opacity="1" fill-rule="nonzero"/></g><path fill="#19233e" d="M 523.492188 270.410156 C 517.570312 270.410156 511.644531 271.398438 505.71875 274.359375 C 500.78125 276.824219 496.339844 280.277344 493.375 284.71875 L 493.375 369.582031 L 475.109375 369.582031 L 475.109375 257.089844 L 493.375 257.089844 L 493.375 265.96875 C 497.324219 262.515625 502.261719 259.554688 507.199219 257.582031 C 513.125 255.117188 519.542969 254.128906 525.960938 254.128906 C 538.796875 253.636719 551.140625 258.074219 560.027344 266.957031 C 568.421875 275.34375 572.371094 288.171875 572.371094 305.441406 L 572.371094 369.089844 L 554.105469 369.089844 L 554.105469 304.949219 C 554.105469 292.613281 551.636719 283.730469 546.203125 278.304688 C 540.28125 272.382812 531.886719 269.425781 523.492188 270.410156 Z M 636.554688 372.050781 C 630.628906 372.050781 624.703125 371.558594 619.273438 369.582031 C 614.335938 368.101562 609.398438 365.636719 605.449219 362.675781 C 601.5 359.714844 598.539062 355.769531 596.5625 351.820312 C 594.09375 346.886719 593.105469 341.460938 593.105469 336.03125 C 592.613281 325.175781 597.550781 315.308594 605.945312 308.894531 C 614.335938 301.988281 626.679688 299.027344 642.480469 299.027344 L 670.621094 299.027344 L 670.621094 291.132812 C 671.113281 284.71875 668.644531 278.796875 663.707031 274.851562 C 656.796875 271.398438 649.390625 269.917969 641.492188 270.410156 C 635.074219 270.410156 628.65625 271.398438 622.238281 272.878906 C 615.816406 274.359375 609.894531 276.332031 604.460938 279.292969 L 602.488281 263.007812 C 608.414062 260.050781 614.335938 258.074219 620.753906 256.59375 C 627.667969 255.117188 634.578125 254.128906 641.492188 254.128906 C 648.402344 254.128906 654.820312 254.621094 661.734375 256.101562 C 667.164062 257.089844 672.101562 259.554688 676.546875 263.007812 C 680.496094 266.464844 683.949219 270.902344 685.433594 275.839844 C 687.40625 282.253906 688.394531 288.667969 688.394531 295.082031 L 688.394531 368.597656 L 670.128906 368.597656 L 670.128906 359.714844 C 665.683594 363.664062 660.746094 366.625 655.316406 368.101562 C 649.390625 371.0625 642.972656 372.050781 636.554688 372.050781 Z M 638.035156 355.769531 C 644.453125 355.769531 650.871094 354.78125 657.289062 352.316406 C 662.722656 350.339844 667.164062 346.394531 670.621094 341.953125 L 670.621094 314.816406 L 642.972656 314.816406 C 634.578125 314.324219 626.1875 316.296875 619.273438 320.738281 C 614.335938 324.191406 611.375 330.113281 611.867188 336.527344 C 611.375 342.445312 614.335938 348.367188 619.273438 351.820312 C 624.703125 354.289062 631.617188 356.261719 638.035156 355.769531 Z M 703.699219 257.089844 L 723.941406 257.089844 L 723.941406 223.042969 L 742.210938 223.042969 L 742.210938 256.59375 L 776.277344 256.59375 L 776.277344 272.382812 L 742.210938 272.382812 L 742.210938 326.164062 C 742.210938 331.097656 742.703125 336.527344 743.195312 341.460938 C 743.691406 344.914062 745.171875 347.875 747.148438 350.339844 C 748.628906 352.316406 751.097656 353.792969 753.566406 354.78125 C 756.527344 355.769531 759.984375 355.769531 762.945312 355.769531 C 766.402344 355.769531 770.351562 355.273438 773.808594 354.289062 L 775.78125 370.570312 C 773.3125 371.0625 770.84375 371.558594 767.882812 371.558594 C 764.921875 371.558594 762.945312 372.050781 760.972656 372.050781 C 751.097656 373.039062 740.726562 369.582031 733.324219 362.675781 C 726.90625 356.261719 723.941406 346.886719 723.941406 333.566406 L 723.941406 272.382812 L 703.699219 272.382812 Z M 792.570312 222.550781 C 792.570312 216.136719 797.507812 211.203125 803.925781 211.203125 C 810.34375 211.203125 815.28125 216.136719 815.28125 222.550781 C 815.28125 228.964844 810.34375 233.898438 803.925781 233.898438 C 797.507812 233.898438 792.570312 228.472656 792.570312 222.550781 Z M 795.039062 257.089844 L 813.304688 257.089844 L 813.304688 369.582031 L 795.039062 369.582031 Z M 835.523438 313.335938 C 835.523438 305.441406 836.507812 297.546875 839.472656 289.652344 C 841.941406 282.746094 845.398438 276.332031 850.332031 270.902344 C 855.269531 265.476562 860.703125 261.53125 867.613281 258.570312 C 881.929688 252.648438 898.222656 252.648438 912.542969 258.570312 C 918.960938 261.53125 924.886719 265.476562 929.328125 270.902344 C 934.265625 276.332031 937.722656 282.746094 940.191406 289.652344 C 945.128906 304.949219 945.128906 321.230469 940.191406 336.527344 C 937.722656 343.433594 934.265625 349.847656 929.328125 355.273438 C 924.390625 360.703125 918.960938 365.144531 912.046875 367.609375 C 897.730469 373.53125 881.4375 373.53125 867.121094 367.609375 C 860.703125 364.648438 854.777344 360.703125 849.839844 355.273438 C 844.902344 349.847656 841.445312 343.433594 838.976562 336.527344 C 837.003906 329.125 835.523438 321.230469 835.523438 313.335938 Z M 854.285156 313.335938 C 853.789062 324.683594 856.75 335.539062 863.664062 344.421875 C 876.996094 358.730469 899.707031 359.714844 914.023438 346.394531 C 914.515625 345.902344 915.503906 344.914062 915.996094 344.421875 C 922.417969 335.539062 925.871094 324.191406 925.378906 313.335938 C 925.871094 301.988281 922.910156 291.132812 915.996094 282.253906 C 902.667969 267.945312 879.957031 266.957031 865.640625 280.277344 C 865.144531 280.773438 864.15625 281.757812 863.664062 282.253906 C 857.246094 290.640625 853.789062 301.988281 854.285156 313.335938 Z M 1015.234375 270.410156 C 1009.308594 270.410156 1003.386719 271.398438 997.953125 274.359375 C 993.019531 276.824219 988.574219 280.277344 985.613281 284.71875 L 985.613281 369.582031 L 967.34375 369.582031 L 967.34375 257.089844 L 985.613281 257.089844 L 985.613281 265.96875 C 989.5625 262.515625 994.5 259.554688 999.4375 257.582031 C 1005.359375 255.117188 1011.777344 254.128906 1018.199219 254.128906 C 1031.035156 253.636719 1043.378906 258.074219 1052.265625 266.957031 C 1060.65625 275.34375 1064.605469 288.171875 1064.605469 305.441406 L 1064.605469 369.089844 L 1046.339844 369.089844 L 1046.339844 304.949219 C 1046.339844 292.613281 1043.871094 283.730469 1038.441406 278.304688 C 1032.019531 272.878906 1023.628906 269.917969 1015.234375 270.410156 Z M 1126.816406 372.050781 C 1120.890625 372.050781 1114.964844 371.558594 1109.535156 369.582031 C 1104.597656 368.101562 1099.660156 366.128906 1095.710938 362.675781 C 1091.761719 359.714844 1088.800781 355.769531 1086.332031 351.820312 C 1083.863281 346.886719 1082.875 341.460938 1082.875 336.03125 C 1082.378906 325.175781 1087.316406 315.308594 1095.710938 308.894531 C 1104.105469 301.988281 1116.445312 299.027344 1132.246094 299.027344 L 1160.386719 299.027344 L 1160.386719 291.132812 C 1160.882812 284.71875 1158.414062 278.796875 1153.476562 274.851562 C 1146.5625 271.398438 1139.15625 269.917969 1131.257812 270.410156 C 1124.839844 270.410156 1118.421875 271.398438 1112.003906 272.878906 C 1105.585938 274.359375 1099.660156 276.332031 1094.230469 279.292969 L 1092.253906 263.007812 C 1098.179688 260.050781 1104.105469 258.074219 1110.523438 256.59375 C 1117.433594 255.117188 1124.347656 254.128906 1131.257812 254.128906 C 1138.171875 254.128906 1144.589844 254.621094 1151.007812 256.101562 C 1156.4375 257.089844 1161.375 259.554688 1165.820312 263.007812 C 1169.769531 266.464844 1173.222656 270.902344 1174.707031 275.839844 C 1176.679688 282.253906 1177.667969 288.667969 1177.667969 295.082031 L 1177.667969 368.597656 L 1160.882812 368.597656 L 1160.882812 359.714844 C 1156.4375 363.664062 1151.5 366.625 1146.070312 368.101562 C 1139.652344 371.0625 1133.234375 372.050781 1126.816406 372.050781 Z M 1128.789062 355.769531 C 1135.207031 355.769531 1141.625 354.78125 1148.042969 352.316406 C 1153.476562 350.339844 1157.917969 346.394531 1161.375 341.953125 L 1161.375 314.324219 L 1134.222656 314.324219 C 1125.828125 313.828125 1117.433594 315.804688 1110.523438 320.242188 C 1105.585938 323.699219 1102.621094 329.617188 1103.117188 336.03125 C 1102.621094 341.953125 1105.585938 347.875 1110.523438 351.328125 C 1115.460938 354.289062 1121.878906 356.261719 1128.789062 355.769531 Z M 1207.289062 210.710938 L 1225.558594 210.710938 L 1225.558594 369.089844 L 1207.289062 369.089844 Z M 527.9375 459.875 C 520.039062 459.875 513.125 462.835938 507.695312 468.261719 L 507.695312 551.648438 L 475.109375 551.648438 L 475.109375 393.265625 L 507.695312 393.265625 L 507.695312 446.554688 C 511.644531 443.59375 515.59375 441.125 520.53125 439.644531 C 525.960938 437.671875 531.394531 436.683594 536.824219 436.683594 C 549.660156 436.191406 562.003906 440.632812 570.394531 450.007812 C 578.296875 458.886719 582.246094 472.210938 582.246094 489.480469 L 582.246094 551.648438 L 549.660156 551.648438 L 549.660156 489.972656 C 550.152344 482.078125 548.179688 473.691406 544.230469 466.78125 C 540.773438 462.34375 534.355469 459.382812 527.9375 459.875 Z M 604.957031 409.546875 C 604.460938 405.109375 605.945312 400.667969 609.398438 397.214844 C 613.347656 394.253906 618.285156 392.773438 623.71875 393.265625 C 628.65625 392.773438 634.085938 394.253906 638.035156 397.214844 C 643.464844 404.613281 643.464844 414.484375 638.035156 421.390625 C 634.085938 424.351562 628.65625 425.832031 623.71875 425.335938 C 618.78125 425.832031 613.347656 424.351562 609.398438 421.390625 C 606.4375 418.429688 604.460938 413.988281 604.957031 409.546875 Z M 607.425781 439.152344 L 640.011719 439.152344 L 640.011719 551.648438 L 607.425781 551.648438 Z M 659.265625 494.414062 C 659.265625 486.519531 660.253906 478.132812 663.214844 470.730469 C 665.683594 463.824219 669.140625 457.902344 674.078125 452.472656 C 678.519531 447.539062 683.949219 443.59375 689.875 441.125 C 695.800781 438.660156 702.710938 437.179688 709.128906 437.179688 C 714.5625 437.179688 719.992188 438.164062 724.929688 440.140625 C 729.371094 441.621094 733.324219 444.085938 736.777344 447.539062 L 736.777344 440.140625 L 769.363281 440.140625 L 769.363281 541.777344 C 769.363281 550.167969 768.375 558.554688 765.90625 566.449219 C 763.933594 572.863281 760.476562 578.785156 755.539062 583.222656 C 750.109375 588.160156 744.183594 591.117188 737.273438 593.09375 C 728.386719 595.558594 719.5 596.546875 710.117188 596.054688 C 703.207031 596.054688 695.800781 595.558594 688.886719 594.078125 C 682.46875 593.09375 676.050781 590.625 670.621094 587.664062 L 672.59375 562.007812 C 677.53125 565.460938 683.457031 568.421875 689.382812 570.394531 C 695.304688 572.371094 701.726562 573.355469 708.144531 573.355469 C 715.546875 573.851562 722.953125 571.382812 728.878906 567.4375 C 734.308594 562.5 737.273438 555.101562 736.777344 547.699219 L 736.777344 542.765625 C 733.324219 546.21875 729.371094 548.6875 724.929688 550.167969 C 719.992188 552.140625 714.5625 553.128906 709.128906 553.128906 C 702.21875 553.128906 695.800781 551.648438 689.875 549.179688 C 683.949219 546.714844 678.519531 542.765625 674.078125 537.832031 C 669.140625 532.40625 665.683594 526.484375 663.214844 519.578125 C 660.253906 511.1875 658.773438 502.800781 659.265625 494.414062 Z M 691.851562 494.414062 C 691.355469 503.789062 693.824219 512.667969 698.761719 520.070312 C 702.710938 525.496094 709.128906 528.457031 716.042969 528.457031 C 719.992188 528.457031 723.941406 527.964844 727.398438 526.484375 C 730.855469 525.003906 733.816406 523.03125 736.777344 520.070312 L 736.777344 468.757812 C 734.308594 466.289062 730.855469 463.824219 727.398438 462.34375 C 723.941406 460.863281 719.992188 459.875 716.042969 459.875 C 709.128906 459.875 702.710938 462.835938 698.761719 468.261719 C 694.320312 474.183594 691.851562 482.570312 691.851562 494.414062 Z M 847.371094 459.875 C 843.421875 459.875 839.472656 460.863281 835.523438 462.34375 C 832.066406 463.824219 829.105469 465.796875 826.636719 468.261719 L 826.636719 551.648438 L 794.050781 551.648438 L 794.050781 393.761719 L 826.636719 393.761719 L 826.636719 447.046875 C 830.585938 444.085938 834.535156 441.621094 839.472656 440.140625 C 844.902344 438.164062 850.332031 437.179688 855.765625 437.179688 C 868.601562 436.6875 880.945312 441.125 889.335938 450.5 C 897.238281 459.382812 901.1875 472.703125 901.1875 489.972656 L 901.1875 552.140625 L 869.589844 552.140625 L 869.589844 489.972656 C 869.589844 479.117188 867.613281 471.714844 864.15625 466.78125 C 860.207031 462.34375 853.789062 459.382812 847.371094 459.875 Z M 1014.742188 439.152344 L 1034.984375 513.65625 L 1055.71875 439.152344 L 1088.796875 439.152344 L 1052.265625 551.648438 L 1019.183594 551.648438 L 999.929688 479.117188 L 980.675781 551.648438 L 947.597656 551.648438 L 911.0625 439.152344 L 944.140625 439.152344 L 964.875 513.65625 L 985.117188 439.152344 Z M 1135.207031 554.113281 C 1129.777344 554.113281 1124.347656 553.128906 1118.914062 551.648438 C 1113.976562 550.167969 1109.535156 547.699219 1105.585938 544.738281 C 1101.636719 541.777344 1098.671875 537.832031 1096.699219 533.390625 C 1094.230469 528.457031 1093.242188 523.523438 1093.242188 518.097656 C 1092.75 507.242188 1097.6875 496.878906 1106.574219 489.972656 C 1115.460938 483.066406 1128.296875 479.609375 1145.082031 479.609375 L 1165.820312 479.609375 L 1165.820312 474.675781 C 1166.3125 470.238281 1164.335938 465.796875 1160.882812 463.328125 C 1155.945312 460.863281 1150.019531 459.875 1144.09375 459.875 C 1137.183594 459.875 1130.269531 460.863281 1123.851562 462.34375 C 1117.433594 463.824219 1111.511719 466.289062 1105.585938 469.25 L 1102.621094 446.058594 C 1109.042969 443.101562 1115.953125 440.632812 1122.867188 439.152344 C 1130.765625 437.179688 1139.15625 436.191406 1147.550781 436.191406 C 1164.832031 436.191406 1177.667969 439.644531 1186.0625 446.058594 C 1193.960938 452.472656 1198.402344 463.824219 1198.402344 479.117188 L 1198.402344 551.152344 L 1165.820312 551.152344 L 1165.820312 543.753906 C 1161.375 547.207031 1156.933594 549.671875 1151.996094 551.648438 C 1146.5625 554.113281 1141.132812 554.609375 1135.207031 554.113281 Z M 1143.109375 531.910156 C 1147.550781 531.910156 1151.996094 530.925781 1155.945312 529.445312 C 1159.894531 527.964844 1163.351562 525.496094 1166.3125 522.535156 L 1166.3125 501.8125 L 1146.5625 501.8125 C 1141.132812 501.320312 1135.207031 502.800781 1130.765625 506.253906 C 1127.800781 509.214844 1125.828125 513.65625 1126.320312 517.601562 C 1125.828125 521.550781 1127.800781 525.992188 1130.765625 528.457031 C 1134.222656 530.925781 1138.664062 532.40625 1143.109375 531.910156 Z M 1252.21875 551.648438 L 1207.289062 439.152344 L 1241.355469 439.152344 L 1268.019531 513.65625 L 1294.679688 439.152344 L 1328.746094 439.152344 L 1270.980469 593.585938 L 1236.914062 593.585938 Z M 1377.625 554.113281 C 1370.21875 554.113281 1362.8125 553.621094 1355.40625 552.140625 C 1348.492188 550.660156 1342.074219 548.6875 1335.65625 545.234375 L 1337.136719 519.082031 C 1342.570312 523.03125 1348.492188 525.496094 1354.914062 527.964844 C 1361.332031 529.9375 1367.75 530.925781 1374.660156 530.925781 C 1386.511719 530.925781 1392.433594 526.976562 1392.433594 519.578125 C 1392.433594 518.097656 1391.941406 516.617188 1391.445312 515.136719 C 1390.460938 513.65625 1389.472656 512.175781 1387.992188 511.1875 C 1386.015625 509.707031 1383.546875 508.722656 1381.078125 507.734375 C 1378.117188 506.746094 1374.660156 505.269531 1370.21875 503.789062 C 1360.34375 501.8125 1351.949219 496.878906 1344.542969 489.972656 C 1339.113281 484.546875 1336.152344 477.144531 1336.644531 469.25 C 1336.152344 459.382812 1340.59375 450.007812 1348.492188 444.578125 C 1356.394531 438.660156 1367.75 436.191406 1382.558594 436.191406 C 1395.398438 436.191406 1408.234375 438.660156 1420.082031 443.59375 L 1417.613281 467.277344 C 1412.675781 464.808594 1407.738281 462.835938 1402.308594 461.355469 C 1396.878906 459.875 1391.445312 459.382812 1385.523438 459.382812 C 1381.078125 458.886719 1376.636719 459.875 1372.6875 461.847656 C 1370.21875 463.328125 1369.230469 465.796875 1369.230469 468.261719 C 1369.230469 471.714844 1370.710938 474.675781 1373.671875 476.652344 C 1379.105469 480.105469 1384.535156 482.570312 1390.460938 483.558594 C 1396.382812 485.53125 1401.816406 487.503906 1406.753906 490.464844 C 1410.703125 492.4375 1414.15625 495.398438 1417.613281 498.359375 C 1420.082031 500.828125 1422.058594 504.28125 1423.539062 507.734375 C 1427.980469 521.054688 1424.03125 535.363281 1413.664062 544.738281 C 1404.777344 551.648438 1392.929688 554.609375 1377.625 554.113281 Z M 1377.625 554.113281 " fill-opacity="1" fill-rule="nonzero"/></svg>