<svg xmlns="http://www.w3.org/2000/svg" xmlns:xlink="http://www.w3.org/1999/xlink" width="1920" zoomAndPan="magnify" viewBox="0 0 1440 809.999993" height="1080" preserveAspectRatio="xMidYMid meet" version="1.0"><defs><clipPath id="5b5a2a6c25"><path d="M 933 16.121094 L 1108.871094 16.121094 L 1108.871094 242 L 933 242 Z M 933 16.121094 " clip-rule="nonzero"/></clipPath><clipPath id="af39ea8862"><path d="M 331.121094 16.121094 L 481 16.121094 L 481 217 L 331.121094 217 Z M 331.121094 16.121094 " clip-rule="nonzero"/></clipPath><clipPath id="7f50340b15"><path d="M 331.121094 518 L 557 518 L 557 793.871094 L 331.121094 793.871094 Z M 331.121094 518 " clip-rule="nonzero"/></clipPath><clipPath id="3061317334"><path d="M 857 542 L 1108.871094 542 L 1108.871094 793.871094 L 857 793.871094 Z M 857 542 " clip-rule="nonzero"/></clipPath></defs><rect x="-144" width="1728" fill="#ffffff" y="-80.999999" height="971.999992" fill-opacity="1"/><rect x="-144" width="1728" fill="#ffffff" y="-80.999999" height="971.999992" fill-opacity="1"/><rect x="-144" width="1728" fill="#ffffff" y="-80.999999" height="971.999992" fill-opacity="1"/><g clip-path="url(#5b5a2a6c25)"><path fill="#1c97c6" d="M 1046.152344 16.121094 L 995.972656 16.121094 L 995.972656 66.300781 L 933.25 66.300781 L 933.25 116.476562 L 995.972656 116.476562 L 995.972656 241.921875 L 1046.152344 241.921875 L 1046.152344 116.476562 L 1108.871094 116.476562 L 1108.871094 66.300781 L 1046.152344 66.300781 Z M 1046.152344 16.121094 " fill-opacity="1" fill-rule="nonzero"/></g><g clip-path="url(#af39ea8862)"><path fill="#1c97c6" d="M 431.476562 216.832031 C 449.152344 216.832031 465.722656 212.226562 480.148438 204.210938 C 432.355469 203.398438 393.84375 164.460938 393.84375 116.476562 C 393.84375 68.484375 432.355469 29.558594 480.148438 28.742188 C 465.722656 20.726562 449.152344 16.121094 431.476562 16.121094 C 376.054688 16.121094 331.121094 61.054688 331.121094 116.476562 C 331.121094 171.898438 376.054688 216.832031 431.476562 216.832031 Z M 431.476562 216.832031 " fill-opacity="1" fill-rule="nonzero"/></g><path fill="#1c97c6" d="M 493.28125 103.621094 L 481.65625 78.84375 L 470.027344 103.621094 L 444.023438 107.597656 L 462.839844 126.875 L 458.398438 154.109375 L 481.65625 141.253906 L 504.910156 154.109375 L 500.472656 126.875 L 519.289062 107.597656 Z M 493.28125 103.621094 " fill-opacity="1" fill-rule="nonzero"/><g clip-path="url(#7f50340b15)"><path fill="#1c97c6" d="M 403.039062 731.152344 L 432.945312 787.238281 C 435.128906 791.324219 439.394531 793.871094 444.023438 793.871094 C 448.648438 793.871094 452.914062 791.324219 455.097656 787.238281 L 485.003906 731.152344 L 544.375 731.152344 C 548.792969 731.152344 552.867188 728.828125 555.125 725.066406 C 557.398438 721.277344 557.511719 716.585938 555.441406 712.710938 L 525.144531 655.882812 L 555.453125 599.070312 C 557.523438 595.183594 557.398438 590.492188 555.140625 586.714844 C 552.867188 582.9375 548.792969 580.617188 544.375 580.617188 L 485.003906 580.617188 L 455.097656 524.53125 C 450.734375 516.355469 437.308594 516.355469 432.945312 524.53125 L 403.039062 580.617188 L 343.667969 580.617188 C 339.25 580.617188 335.175781 582.9375 332.917969 586.703125 C 330.644531 590.492188 330.53125 595.183594 332.601562 599.058594 L 362.898438 655.882812 L 332.589844 712.699219 C 330.519531 716.585938 330.644531 721.277344 332.902344 725.054688 C 335.175781 728.828125 339.25 731.152344 343.667969 731.152344 Z M 444.023438 754.671875 L 431.476562 731.152344 L 456.566406 731.152344 Z M 523.464844 605.707031 L 510.921875 629.214844 L 498.375 605.707031 Z M 510.921875 682.554688 L 523.464844 706.0625 L 498.390625 706.0625 Z M 444.023438 557.097656 L 456.566406 580.617188 L 431.476562 580.617188 Z M 418.09375 605.707031 L 469.9375 605.707031 L 496.695312 655.882812 L 469.9375 706.0625 L 418.09375 706.0625 L 391.335938 655.882812 Z M 389.652344 605.707031 L 377.109375 629.214844 L 364.566406 605.707031 Z M 377.121094 682.554688 L 389.667969 706.0625 L 364.578125 706.0625 Z M 377.121094 682.554688 " fill-opacity="1" fill-rule="nonzero"/></g><path fill="#1c97c6" d="M 995.972656 605.707031 C 995.972656 606.53125 995.894531 607.347656 995.730469 608.152344 C 995.570312 608.960938 995.332031 609.746094 995.019531 610.507812 C 994.703125 611.269531 994.316406 611.992188 993.859375 612.675781 C 993.402344 613.359375 992.882812 613.996094 992.300781 614.578125 C 991.714844 615.160156 991.082031 615.679688 990.398438 616.136719 C 989.714844 616.59375 988.988281 616.980469 988.230469 617.296875 C 987.46875 617.613281 986.683594 617.847656 985.875 618.011719 C 985.066406 618.171875 984.253906 618.25 983.429688 618.25 C 982.605469 618.25 981.789062 618.171875 980.980469 618.011719 C 980.171875 617.847656 979.390625 617.613281 978.628906 617.296875 C 977.867188 616.980469 977.144531 616.59375 976.460938 616.136719 C 975.773438 615.679688 975.140625 615.160156 974.558594 614.578125 C 973.976562 613.996094 973.457031 613.359375 973 612.675781 C 972.539062 611.992188 972.15625 611.269531 971.839844 610.507812 C 971.523438 609.746094 971.285156 608.960938 971.125 608.152344 C 970.964844 607.347656 970.882812 606.53125 970.882812 605.707031 C 970.882812 604.882812 970.964844 604.066406 971.125 603.257812 C 971.285156 602.453125 971.523438 601.667969 971.839844 600.90625 C 972.15625 600.144531 972.539062 599.421875 973 598.738281 C 973.457031 598.054688 973.976562 597.417969 974.558594 596.835938 C 975.140625 596.253906 975.773438 595.734375 976.460938 595.277344 C 977.144531 594.820312 977.867188 594.433594 978.628906 594.117188 C 979.390625 593.800781 980.171875 593.5625 980.980469 593.402344 C 981.789062 593.242188 982.605469 593.164062 983.429688 593.164062 C 984.253906 593.164062 985.066406 593.242188 985.875 593.402344 C 986.683594 593.5625 987.46875 593.800781 988.230469 594.117188 C 988.988281 594.433594 989.714844 594.820312 990.398438 595.277344 C 991.082031 595.734375 991.714844 596.253906 992.300781 596.835938 C 992.882812 597.417969 993.402344 598.054688 993.859375 598.738281 C 994.316406 599.421875 994.703125 600.144531 995.019531 600.90625 C 995.332031 601.667969 995.570312 602.453125 995.730469 603.257812 C 995.894531 604.066406 995.972656 604.882812 995.972656 605.707031 Z M 995.972656 605.707031 " fill-opacity="1" fill-rule="nonzero"/><path fill="#1c97c6" d="M 751.410156 754.835938 C 760.152344 754.042969 768.90625 752.941406 777.4375 751.523438 L 773.375 726.773438 C 765.445312 728.078125 757.304688 729.105469 749.175781 729.847656 Z M 751.410156 754.835938 " fill-opacity="1" fill-rule="nonzero"/><path fill="#1c97c6" d="M 698.960938 755.664062 C 707.714844 756.164062 716.535156 756.351562 725.203125 756.214844 L 724.800781 731.136719 C 716.75 731.261719 708.558594 731.085938 700.429688 730.625 Z M 698.960938 755.664062 " fill-opacity="1" fill-rule="nonzero"/><path fill="#1c97c6" d="M 803.152344 746.292969 C 811.632812 744.234375 820.125 741.839844 828.417969 739.152344 L 820.714844 715.292969 C 813 717.777344 805.109375 720 797.246094 721.90625 Z M 803.152344 746.292969 " fill-opacity="1" fill-rule="nonzero"/><path fill="#1c97c6" d="M 672.84375 753.140625 L 676.191406 728.265625 C 668.125 727.175781 660.046875 725.78125 652.171875 724.113281 L 646.964844 748.648438 C 655.445312 750.445312 664.148438 751.960938 672.84375 753.140625 Z M 672.84375 753.140625 " fill-opacity="1" fill-rule="nonzero"/><path fill="#1c97c6" d="M 628.511719 718.15625 C 620.882812 715.933594 613.082031 713.324219 605.34375 710.441406 L 596.5625 733.949219 C 604.878906 737.046875 613.257812 739.84375 621.472656 742.253906 Z M 628.511719 718.15625 " fill-opacity="1" fill-rule="nonzero"/><path fill="#1c97c6" d="M 1033.066406 496.796875 L 1057.140625 503.859375 C 1059.597656 495.46875 1061.769531 486.898438 1063.601562 478.382812 L 1039.050781 473.136719 C 1037.355469 481.042969 1035.351562 489.007812 1033.066406 496.796875 Z M 1033.066406 496.796875 " fill-opacity="1" fill-rule="nonzero"/><path fill="#1c97c6" d="M 1070.636719 426.371094 L 1045.585938 424.878906 C 1045.109375 432.859375 1044.320312 441.011719 1043.226562 449.128906 L 1068.101562 452.476562 C 1069.257812 443.746094 1070.109375 434.964844 1070.636719 426.371094 Z M 1070.636719 426.371094 " fill-opacity="1" fill-rule="nonzero"/><path fill="#1c97c6" d="M 403.164062 482.570312 C 401.246094 474.65625 399.601562 466.628906 398.285156 458.6875 L 373.535156 462.777344 C 374.941406 471.320312 376.707031 479.988281 378.765625 488.492188 Z M 403.164062 482.570312 " fill-opacity="1" fill-rule="nonzero"/><path fill="#1c97c6" d="M 1069.835938 373.613281 L 1069.734375 372.570312 L 1044.746094 374.789062 L 1044.882812 376.15625 C 1045.597656 384.1875 1046.011719 392.390625 1046.152344 400.519531 L 1071.226562 400.144531 C 1071.089844 391.398438 1070.625 382.582031 1069.835938 373.613281 Z M 1069.835938 373.613281 " fill-opacity="1" fill-rule="nonzero"/><path fill="#1c97c6" d="M 370.136719 436.058594 L 370.199219 436.746094 L 395.125 433.847656 C 394.421875 425.933594 393.996094 417.957031 393.871094 410.164062 L 368.792969 410.566406 C 368.917969 418.960938 369.371094 427.539062 370.136719 436.058594 Z M 370.136719 436.058594 " fill-opacity="1" fill-rule="nonzero"/><path fill="#1c97c6" d="M 1036.679688 326.796875 C 1038.613281 334.636719 1040.265625 342.664062 1041.585938 350.644531 L 1066.335938 346.527344 C 1064.90625 337.921875 1063.121094 329.265625 1061.039062 320.800781 Z M 1036.679688 326.796875 " fill-opacity="1" fill-rule="nonzero"/><path fill="#1c97c6" d="M 396.679688 361.53125 L 371.804688 358.183594 C 370.648438 366.773438 369.808594 375.566406 369.308594 384.324219 L 394.347656 385.765625 C 394.835938 377.636719 395.613281 369.484375 396.679688 361.53125 Z M 396.679688 361.53125 " fill-opacity="1" fill-rule="nonzero"/><path fill="#1c97c6" d="M 1021.550781 280.496094 C 1024.648438 288.035156 1027.484375 295.722656 1029.992188 303.363281 L 1053.851562 295.558594 C 1051.15625 287.34375 1048.109375 279.050781 1044.769531 270.9375 Z M 1021.550781 280.496094 " fill-opacity="1" fill-rule="nonzero"/><path fill="#1c97c6" d="M 382.667969 306.800781 C 380.222656 315.21875 378.0625 323.796875 376.269531 332.316406 L 400.804688 337.496094 C 402.460938 329.605469 404.46875 321.652344 406.753906 313.851562 Z M 382.667969 306.800781 " fill-opacity="1" fill-rule="nonzero"/><path fill="#1c97c6" d="M 423.863281 268.164062 L 401.082031 257.640625 C 397.394531 265.628906 393.980469 273.785156 390.957031 281.875 L 414.441406 290.679688 C 417.265625 283.179688 420.425781 275.601562 423.863281 268.164062 Z M 423.863281 268.164062 " fill-opacity="1" fill-rule="nonzero"/><path fill="#1c97c6" d="M 867.042969 85.945312 L 856.515625 108.726562 C 863.832031 112.097656 871.15625 115.824219 878.28125 119.777344 L 890.449219 97.835938 C 882.785156 93.582031 874.921875 89.570312 867.042969 85.945312 Z M 867.042969 85.945312 " fill-opacity="1" fill-rule="nonzero"/><path fill="#1c97c6" d="M 817.832031 67.566406 L 810.84375 91.652344 C 818.621094 93.910156 826.410156 96.492188 834 99.328125 L 842.757812 75.820312 C 834.589844 72.761719 826.210938 69.988281 817.832031 67.566406 Z M 817.832031 67.566406 " fill-opacity="1" fill-rule="nonzero"/><path fill="#1c97c6" d="M 787.171875 85.742188 L 792.351562 61.207031 C 783.808594 59.414062 775.09375 57.921875 766.449219 56.777344 L 763.175781 81.640625 C 771.164062 82.695312 779.246094 84.085938 787.171875 85.742188 Z M 787.171875 85.742188 " fill-opacity="1" fill-rule="nonzero"/><path fill="#1c97c6" d="M 618.664062 94.902344 C 626.441406 92.367188 634.332031 90.132812 642.085938 88.253906 L 636.175781 63.855469 C 627.785156 65.886719 619.277344 68.308594 610.886719 71.042969 Z M 618.664062 94.902344 " fill-opacity="1" fill-rule="nonzero"/><path fill="#1c97c6" d="M 738.875 79.347656 L 740.292969 54.308594 C 731.664062 53.816406 722.832031 53.640625 714.050781 53.804688 L 714.503906 78.882812 C 722.667969 78.730469 730.859375 78.882812 738.875 79.347656 Z M 738.875 79.347656 " fill-opacity="1" fill-rule="nonzero"/><path fill="#1c97c6" d="M 665.96875 83.324219 C 674.007812 81.980469 682.136719 80.9375 690.167969 80.199219 L 687.882812 55.222656 C 679.253906 56.011719 670.511719 57.140625 661.867188 58.574219 Z M 665.96875 83.324219 " fill-opacity="1" fill-rule="nonzero"/><path fill="#1c97c6" d="M 770.175781 354.820312 C 770.175781 356.464844 770.09375 358.101562 769.933594 359.738281 C 769.773438 361.375 769.53125 362.996094 769.210938 364.609375 C 768.890625 366.222656 768.492188 367.8125 768.015625 369.386719 C 767.535156 370.957031 766.984375 372.503906 766.355469 374.023438 C 765.726562 375.539062 765.023438 377.023438 764.25 378.472656 C 763.476562 379.921875 762.632812 381.332031 761.71875 382.695312 C 760.804688 384.0625 759.828125 385.382812 758.785156 386.652344 C 757.742188 387.921875 756.640625 389.136719 755.476562 390.300781 C 754.316406 391.460938 753.101562 392.566406 751.828125 393.609375 C 750.558594 394.648438 749.242188 395.628906 747.875 396.539062 C 746.507812 397.453125 745.101562 398.296875 743.652344 399.074219 C 742.203125 399.847656 740.71875 400.550781 739.199219 401.179688 C 737.679688 401.808594 736.136719 402.359375 734.5625 402.835938 C 732.992188 403.3125 731.398438 403.710938 729.785156 404.03125 C 728.175781 404.355469 726.550781 404.59375 724.914062 404.753906 C 723.28125 404.917969 721.640625 404.996094 719.996094 404.996094 C 718.355469 404.996094 716.714844 404.917969 715.078125 404.753906 C 713.445312 404.59375 711.820312 404.355469 710.207031 404.03125 C 708.597656 403.710938 707.003906 403.3125 705.429688 402.835938 C 703.859375 402.359375 702.3125 401.808594 700.796875 401.179688 C 699.277344 400.550781 697.792969 399.847656 696.34375 399.074219 C 694.894531 398.296875 693.488281 397.453125 692.121094 396.539062 C 690.753906 395.628906 689.433594 394.648438 688.164062 393.609375 C 686.894531 392.566406 685.679688 391.460938 684.515625 390.300781 C 683.355469 389.136719 682.253906 387.921875 681.210938 386.652344 C 680.167969 385.382812 679.1875 384.0625 678.277344 382.695312 C 677.363281 381.332031 676.519531 379.921875 675.746094 378.472656 C 674.96875 377.023438 674.269531 375.539062 673.640625 374.023438 C 673.011719 372.503906 672.457031 370.957031 671.980469 369.386719 C 671.503906 367.8125 671.105469 366.222656 670.785156 364.609375 C 670.464844 362.996094 670.222656 361.375 670.0625 359.738281 C 669.902344 358.101562 669.820312 356.464844 669.820312 354.820312 C 669.820312 353.175781 669.902344 351.539062 670.0625 349.902344 C 670.222656 348.265625 670.464844 346.640625 670.785156 345.03125 C 671.105469 343.417969 671.503906 341.828125 671.980469 340.253906 C 672.457031 338.679688 673.011719 337.136719 673.640625 335.617188 C 674.269531 334.097656 674.96875 332.617188 675.746094 331.167969 C 676.519531 329.71875 677.363281 328.308594 678.277344 326.941406 C 679.1875 325.578125 680.167969 324.257812 681.210938 322.988281 C 682.253906 321.71875 683.355469 320.5 684.515625 319.339844 C 685.679688 318.175781 686.894531 317.074219 688.164062 316.03125 C 689.433594 314.988281 690.753906 314.011719 692.121094 313.097656 C 693.488281 312.1875 694.894531 311.34375 696.34375 310.566406 C 697.792969 309.792969 699.277344 309.089844 700.796875 308.460938 C 702.3125 307.832031 703.859375 307.28125 705.429688 306.804688 C 707.003906 306.324219 708.597656 305.925781 710.207031 305.605469 C 711.820312 305.285156 713.445312 305.046875 715.078125 304.882812 C 716.714844 304.722656 718.355469 304.640625 719.996094 304.640625 C 721.640625 304.640625 723.28125 304.722656 724.914062 304.882812 C 726.550781 305.046875 728.175781 305.285156 729.785156 305.605469 C 731.398438 305.925781 732.992188 306.324219 734.5625 306.804688 C 736.136719 307.28125 737.679688 307.832031 739.199219 308.460938 C 740.71875 309.089844 742.203125 309.792969 743.652344 310.566406 C 745.101562 311.34375 746.507812 312.1875 747.875 313.097656 C 749.242188 314.011719 750.558594 314.988281 751.828125 316.03125 C 753.101562 317.074219 754.316406 318.175781 755.476562 319.339844 C 756.640625 320.5 757.742188 321.71875 758.785156 322.988281 C 759.828125 324.257812 760.804688 325.578125 761.71875 326.941406 C 762.632812 328.308594 763.476562 329.71875 764.25 331.167969 C 765.023438 332.617188 765.726562 334.097656 766.355469 335.617188 C 766.984375 337.136719 767.535156 338.679688 768.015625 340.253906 C 768.492188 341.828125 768.890625 343.417969 769.210938 345.03125 C 769.53125 346.640625 769.773438 348.265625 769.933594 349.902344 C 770.09375 351.539062 770.175781 353.175781 770.175781 354.820312 Z M 770.175781 354.820312 " fill-opacity="1" fill-rule="nonzero"/><path fill="#1c97c6" d="M 908.164062 404.996094 C 908.164062 301.242188 823.75 216.832031 719.996094 216.832031 C 616.242188 216.832031 531.832031 301.242188 531.832031 404.996094 C 531.832031 508.75 616.242188 593.164062 719.996094 593.164062 C 823.75 593.164062 908.164062 508.75 908.164062 404.996094 Z M 820.351562 533.277344 L 820.351562 455.175781 C 820.351562 427.464844 797.886719 404.996094 770.175781 404.996094 L 669.820312 404.996094 C 642.109375 404.996094 619.640625 427.464844 619.640625 455.175781 L 619.640625 533.277344 C 581.53125 503.394531 556.921875 457.054688 556.921875 404.996094 C 556.921875 315.078125 630.078125 241.921875 719.996094 241.921875 C 809.914062 241.921875 883.074219 315.078125 883.074219 404.996094 C 883.074219 457.054688 858.460938 503.394531 820.351562 533.277344 Z M 820.351562 533.277344 " fill-opacity="1" fill-rule="nonzero"/><g clip-path="url(#3061317334)"><path fill="#1c97c6" d="M 983.429688 542.984375 C 914.257812 542.984375 857.984375 599.257812 857.984375 668.429688 C 857.984375 737.597656 914.257812 793.871094 983.429688 793.871094 C 1052.597656 793.871094 1108.871094 737.597656 1108.871094 668.429688 C 1108.871094 599.257812 1052.597656 542.984375 983.429688 542.984375 Z M 983.429688 743.695312 C 976.503906 743.695312 970.882812 738.074219 970.882812 731.152344 C 970.882812 724.226562 976.503906 718.605469 983.429688 718.605469 C 990.351562 718.605469 995.972656 724.226562 995.972656 731.152344 C 995.972656 738.074219 990.351562 743.695312 983.429688 743.695312 Z M 983.804688 668.417969 L 983.429688 668.464844 C 953.160156 669.496094 928.921875 694.359375 928.921875 724.878906 C 928.921875 737.847656 933.488281 749.652344 940.851562 759.175781 C 902.996094 741.335938 877.941406 700.628906 883.964844 654.894531 C 889.773438 610.761719 925.574219 575.113281 969.667969 569.027344 C 980.191406 567.570312 990.414062 567.824219 1000.148438 569.503906 C 1020.988281 573.089844 1037.769531 590.441406 1037.921875 611.589844 C 1037.921875 611.714844 1037.921875 611.855469 1037.921875 611.980469 C 1037.933594 642.375 1013.898438 667.199219 983.804688 668.417969 Z M 983.804688 668.417969 " fill-opacity="1" fill-rule="nonzero"/></g></svg>