<svg xmlns="http://www.w3.org/2000/svg" xmlns:xlink="http://www.w3.org/1999/xlink" width="1920" zoomAndPan="magnify" viewBox="0 0 1440 809.999993" height="1080" preserveAspectRatio="xMidYMid meet" version="1.0"><defs><clipPath id="a836060d47"><path d="M 418.0625 11.59375 L 1021.8125 11.59375 L 1021.8125 798.34375 L 418.0625 798.34375 Z M 418.0625 11.59375 " clip-rule="nonzero"/></clipPath></defs><rect x="-144" width="1728" fill="#ffffff" y="-80.999999" height="971.999992" fill-opacity="1"/><rect x="-144" width="1728" fill="#ffffff" y="-80.999999" height="971.999992" fill-opacity="1"/><rect x="-144" width="1728" fill="#ffffff" y="-80.999999" height="971.999992" fill-opacity="1"/><g clip-path="url(#a836060d47)"><path fill="#1c97c6" d="M 551.542969 259.910156 C 550.363281 268.824219 549.492188 277.789062 549.492188 286.957031 C 549.492188 287.828125 549.597656 288.699219 549.648438 289.570312 C 501.503906 314.105469 470.828125 363.582031 470.828125 418.082031 C 470.828125 497.628906 535.511719 562.320312 615.046875 562.320312 C 694.585938 562.320312 759.269531 497.628906 759.269531 418.082031 C 759.269531 343.195312 701.910156 281.527344 628.824219 274.5625 C 629.746094 265.648438 631.796875 257.09375 634.5625 248.898438 C 719.730469 258.683594 785.492188 331.46875 785.492188 418.082031 C 785.492188 512.070312 709.027344 588.542969 615.046875 588.542969 C 521.070312 588.542969 444.605469 512.070312 444.605469 418.082031 C 444.605469 348.472656 487.882812 285.574219 551.542969 259.910156 Z M 607.109375 426.019531 C 636.40625 455.320312 674.097656 474.527344 714.609375 481.082031 C 693.664062 514.121094 656.941406 536.09375 615.046875 536.09375 C 549.953125 536.09375 497.050781 483.132812 497.050781 418.082031 C 497.050781 377.15625 518.203125 339.613281 552.207031 318.203125 C 558.660156 358.871094 577.457031 396.363281 607.109375 426.019531 Z M 629.082031 300.992188 C 682.90625 307.394531 725.722656 350.214844 732.125 404.046875 C 678.296875 397.644531 635.484375 354.824219 629.082031 300.992188 Z M 625.648438 166.433594 C 692.074219 99.949219 800.242188 99.949219 866.664062 166.433594 C 898.878906 198.601562 916.601562 241.421875 916.601562 286.957031 C 916.601562 332.492188 898.878906 375.3125 866.664062 407.480469 C 850.429688 423.765625 830.867188 436.367188 809.664062 444.921875 C 810.839844 436.109375 811.710938 427.199219 811.710938 418.082031 C 811.710938 417.210938 811.609375 416.339844 811.558594 415.417969 C 859.546875 390.984375 890.378906 340.890625 890.378906 286.957031 C 890.378906 207.410156 825.695312 142.71875 746.15625 142.71875 C 666.621094 142.71875 601.9375 207.410156 601.9375 286.957031 C 601.9375 361.839844 659.296875 423.511719 732.382812 430.476562 C 731.460938 439.390625 729.410156 447.941406 726.644531 456.136719 C 688.542969 451.734375 652.894531 434.726562 625.648438 407.480469 C 593.4375 375.3125 575.714844 332.492188 575.714844 286.957031 C 575.714844 241.421875 593.4375 198.601562 625.648438 166.433594 Z M 928.125 86.425781 C 931.863281 82.6875 932.988281 77.054688 930.941406 72.136719 C 928.941406 67.21875 924.179688 64.042969 918.851562 64.042969 L 877.265625 64.042969 C 870.046875 64.042969 864.15625 58.152344 864.15625 50.929688 C 864.15625 43.710938 870.046875 37.820312 877.265625 37.820312 L 982.15625 37.820312 C 989.375 37.820312 995.265625 43.710938 995.265625 50.929688 L 995.265625 155.832031 C 995.265625 163.054688 989.375 168.945312 982.15625 168.945312 C 974.933594 168.945312 969.042969 163.054688 969.042969 155.832031 L 969.042969 114.242188 C 969.042969 108.964844 965.867188 104.148438 960.953125 102.152344 C 959.3125 101.433594 957.621094 101.128906 955.933594 101.128906 C 952.5 101.128906 949.171875 102.460938 946.664062 104.96875 L 895.140625 156.496094 L 876.601562 137.957031 Z M 646.546875 223.957031 C 667.492188 190.96875 704.265625 168.945312 746.15625 168.945312 C 811.25 168.945312 864.15625 221.90625 864.15625 286.957031 C 864.15625 328.136719 843.261719 365.171875 808.945312 386.683594 C 795.527344 303.960938 730.078125 237.476562 646.546875 223.957031 Z M 680.601562 667.21875 C 687.824219 667.21875 693.714844 673.109375 693.714844 680.332031 C 693.714844 687.554688 687.824219 693.445312 680.601562 693.445312 L 628.160156 693.445312 L 628.160156 759.007812 C 628.160156 766.230469 622.269531 772.117188 615.046875 772.117188 C 607.828125 772.117188 601.9375 766.230469 601.9375 759.007812 L 601.9375 693.445312 L 549.492188 693.445312 C 542.273438 693.445312 536.382812 687.554688 536.382812 680.332031 C 536.382812 673.109375 542.273438 667.21875 549.492188 667.21875 L 601.9375 667.21875 L 601.9375 614.769531 L 628.160156 614.769531 L 628.160156 667.21875 Z M 575.714844 610.824219 L 575.714844 640.992188 L 549.492188 640.992188 C 527.777344 640.992188 510.160156 658.613281 510.160156 680.332031 C 510.160156 702.050781 527.777344 719.667969 549.492188 719.667969 L 575.714844 719.667969 L 575.714844 759.007812 C 575.714844 780.722656 593.332031 798.34375 615.046875 798.34375 C 636.761719 798.34375 654.382812 780.722656 654.382812 759.007812 L 654.382812 719.667969 L 680.601562 719.667969 C 702.316406 719.667969 719.9375 702.050781 719.9375 680.332031 C 719.9375 658.613281 702.316406 640.992188 680.601562 640.992188 L 654.382812 640.992188 L 654.382812 610.824219 C 725.3125 596.328125 782.417969 543.574219 803.210938 475.140625 C 833.992188 465.871094 862.3125 448.917969 885.207031 426.019531 C 922.386719 388.886719 942.820312 339.507812 942.820312 286.957031 C 942.820312 247.773438 931.453125 210.382812 910.25 178.472656 L 942.820312 145.894531 L 942.820312 155.832031 C 942.820312 177.550781 960.441406 195.167969 982.15625 195.167969 C 1003.871094 195.167969 1021.488281 177.550781 1021.488281 155.832031 L 1021.488281 50.929688 C 1021.488281 29.214844 1003.871094 11.59375 982.15625 11.59375 L 877.265625 11.59375 C 855.550781 11.59375 837.933594 29.214844 837.933594 50.929688 C 837.933594 72.648438 855.550781 90.269531 877.265625 90.269531 L 887.203125 90.269531 L 854.628906 122.84375 C 778.320312 72.394531 674.253906 80.742188 607.109375 147.890625 C 583.808594 171.148438 567.113281 199.214844 557.894531 229.898438 C 475.695312 254.839844 418.382812 332.03125 418.382812 418.082031 C 418.382812 513.042969 486.039062 592.539062 575.714844 610.824219 " fill-opacity="1" fill-rule="nonzero"/></g></svg>