<svg xmlns="http://www.w3.org/2000/svg" xmlns:xlink="http://www.w3.org/1999/xlink" width="1920" zoomAndPan="magnify" viewBox="0 0 1440 809.999993" height="1080" preserveAspectRatio="xMidYMid meet" version="1.0"><defs><clipPath id="f722410dd3"><path d="M 329.636719 14.636719 L 1110.386719 14.636719 L 1110.386719 795.386719 L 329.636719 795.386719 Z M 329.636719 14.636719 " clip-rule="nonzero"/></clipPath></defs><rect x="-144" width="1728" fill="#ffffff" y="-80.999999" height="971.999992" fill-opacity="1"/><rect x="-144" width="1728" fill="#ffffff" y="-80.999999" height="971.999992" fill-opacity="1"/><rect x="-144" width="1728" fill="#ffffff" y="-80.999999" height="971.999992" fill-opacity="1"/><path fill="#11151c" d="M 1068.414062 404.988281 C 1068.414062 410.691406 1068.273438 416.390625 1067.996094 422.085938 C 1067.714844 427.777344 1067.296875 433.464844 1066.738281 439.136719 C 1066.179688 444.8125 1065.480469 450.46875 1064.644531 456.109375 C 1063.808594 461.75 1062.832031 467.363281 1061.722656 472.957031 C 1060.609375 478.546875 1059.359375 484.109375 1057.972656 489.640625 C 1056.589844 495.171875 1055.070312 500.664062 1053.414062 506.121094 C 1051.757812 511.578125 1049.96875 516.988281 1048.050781 522.359375 C 1046.128906 527.726562 1044.078125 533.042969 1041.894531 538.3125 C 1039.714844 543.578125 1037.402344 548.789062 1034.964844 553.945312 C 1032.527344 559.097656 1029.964844 564.191406 1027.277344 569.21875 C 1024.589844 574.246094 1021.78125 579.207031 1018.851562 584.097656 C 1015.917969 588.988281 1012.867188 593.800781 1009.703125 598.542969 C 1006.535156 603.285156 1003.25 607.945312 999.855469 612.523438 C 996.457031 617.101562 992.953125 621.597656 989.335938 626.003906 C 985.71875 630.410156 981.996094 634.726562 978.167969 638.953125 C 974.335938 643.175781 970.40625 647.304688 966.375 651.335938 C 962.34375 655.367188 958.214844 659.296875 953.992188 663.128906 C 949.765625 666.957031 945.449219 670.679688 941.042969 674.296875 C 936.636719 677.914062 932.140625 681.421875 927.5625 684.816406 C 922.984375 688.210938 918.324219 691.496094 913.582031 694.664062 C 908.839844 697.832031 904.027344 700.878906 899.136719 703.8125 C 894.246094 706.742188 889.285156 709.550781 884.257812 712.238281 C 879.230469 714.925781 874.136719 717.488281 868.984375 719.925781 C 863.828125 722.363281 858.617188 724.675781 853.351562 726.855469 C 848.082031 729.039062 842.765625 731.089844 837.398438 733.011719 C 832.027344 734.933594 826.617188 736.71875 821.160156 738.375 C 815.703125 740.03125 810.210938 741.550781 804.679688 742.933594 C 799.148438 744.320312 793.585938 745.570312 787.996094 746.683594 C 782.402344 747.792969 776.789062 748.769531 771.148438 749.605469 C 765.507812 750.441406 759.851562 751.140625 754.175781 751.699219 C 748.503906 752.257812 742.816406 752.675781 737.125 752.957031 C 731.429688 753.234375 725.730469 753.375 720.027344 753.375 C 714.328125 753.375 708.628906 753.234375 702.933594 752.957031 C 697.238281 752.675781 691.554688 752.257812 685.882812 751.699219 C 680.207031 751.140625 674.550781 750.441406 668.910156 749.605469 C 663.269531 748.769531 657.652344 747.792969 652.0625 746.683594 C 646.46875 745.570312 640.910156 744.320312 635.378906 742.933594 C 629.847656 741.550781 624.355469 740.03125 618.898438 738.375 C 613.441406 736.71875 608.03125 734.933594 602.660156 733.011719 C 597.292969 731.089844 591.976562 729.039062 586.707031 726.855469 C 581.441406 724.675781 576.230469 722.363281 571.074219 719.925781 C 565.921875 717.488281 560.828125 714.925781 555.800781 712.238281 C 550.773438 709.550781 545.8125 706.742188 540.921875 703.8125 C 536.03125 700.878906 531.214844 697.832031 526.476562 694.664062 C 521.734375 691.496094 517.074219 688.214844 512.496094 684.816406 C 507.914062 681.421875 503.421875 677.914062 499.015625 674.296875 C 494.609375 670.679688 490.292969 666.957031 486.066406 663.128906 C 481.84375 659.296875 477.714844 655.367188 473.683594 651.335938 C 469.652344 647.304688 465.722656 643.175781 461.890625 638.953125 C 458.0625 634.726562 454.339844 630.410156 450.722656 626.003906 C 447.105469 621.597656 443.597656 617.101562 440.203125 612.523438 C 436.804688 607.945312 433.523438 603.285156 430.355469 598.542969 C 427.1875 593.800781 424.140625 588.988281 421.207031 584.097656 C 418.277344 579.207031 415.46875 574.246094 412.78125 569.21875 C 410.09375 564.191406 407.527344 559.097656 405.089844 553.945312 C 402.652344 548.789062 400.34375 543.578125 398.160156 538.3125 C 395.980469 533.042969 393.929688 527.726562 392.007812 522.359375 C 390.085938 516.988281 388.300781 511.578125 386.644531 506.121094 C 384.988281 500.664062 383.46875 495.171875 382.082031 489.640625 C 380.699219 484.109375 379.449219 478.546875 378.335938 472.957031 C 377.222656 467.363281 376.25 461.75 375.414062 456.109375 C 374.578125 450.46875 373.878906 444.8125 373.320312 439.136719 C 372.761719 433.464844 372.34375 427.777344 372.0625 422.085938 C 371.78125 416.390625 371.644531 410.691406 371.644531 404.988281 C 371.644531 399.289062 371.78125 393.589844 372.0625 387.894531 C 372.34375 382.199219 372.761719 376.515625 373.320312 370.84375 C 373.878906 365.167969 374.578125 359.511719 375.414062 353.871094 C 376.25 348.230469 377.222656 342.613281 378.335938 337.023438 C 379.449219 331.429688 380.699219 325.871094 382.082031 320.339844 C 383.46875 314.808594 384.988281 309.316406 386.644531 303.859375 C 388.300781 298.402344 390.085938 292.992188 392.007812 287.621094 C 393.929688 282.253906 395.980469 276.9375 398.160156 271.667969 C 400.34375 266.402344 402.652344 261.191406 405.089844 256.035156 C 407.527344 250.882812 410.09375 245.789062 412.78125 240.761719 C 415.46875 235.734375 418.277344 230.773438 421.207031 225.882812 C 424.140625 220.992188 427.1875 216.175781 430.355469 211.4375 C 433.523438 206.695312 436.804688 202.035156 440.203125 197.457031 C 443.597656 192.875 447.105469 188.382812 450.722656 183.976562 C 454.339844 179.570312 458.0625 175.253906 461.890625 171.027344 C 465.722656 166.804688 469.652344 162.675781 473.683594 158.644531 C 477.714844 154.613281 481.84375 150.683594 486.066406 146.851562 C 490.292969 143.023438 494.609375 139.300781 499.015625 135.683594 C 503.421875 132.066406 507.914062 128.558594 512.496094 125.164062 C 517.074219 121.765625 521.734375 118.484375 526.476562 115.316406 C 531.214844 112.148438 536.03125 109.101562 540.921875 106.167969 C 545.8125 103.238281 550.773438 100.429688 555.800781 97.742188 C 560.828125 95.054688 565.921875 92.492188 571.074219 90.050781 C 576.230469 87.613281 581.441406 85.304688 586.707031 83.121094 C 591.976562 80.941406 597.292969 78.890625 602.660156 76.96875 C 608.03125 75.046875 613.441406 73.261719 618.898438 71.605469 C 624.355469 69.949219 629.847656 68.429688 635.378906 67.042969 C 640.910156 65.660156 646.46875 64.410156 652.0625 63.296875 C 657.652344 62.183594 663.269531 61.210938 668.910156 60.375 C 674.550781 59.539062 680.207031 58.839844 685.882812 58.28125 C 691.554688 57.722656 697.238281 57.304688 702.933594 57.023438 C 708.628906 56.742188 714.328125 56.605469 720.027344 56.605469 C 725.730469 56.605469 731.429688 56.742188 737.125 57.023438 C 742.816406 57.304688 748.503906 57.722656 754.175781 58.28125 C 759.851562 58.839844 765.507812 59.539062 771.148438 60.375 C 776.789062 61.210938 782.402344 62.183594 787.996094 63.296875 C 793.585938 64.410156 799.148438 65.660156 804.679688 67.042969 C 810.210938 68.429688 815.703125 69.949219 821.160156 71.605469 C 826.617188 73.261719 832.027344 75.046875 837.398438 76.96875 C 842.765625 78.890625 848.082031 80.941406 853.351562 83.121094 C 858.617188 85.304688 863.828125 87.613281 868.984375 90.050781 C 874.136719 92.492188 879.230469 95.054688 884.257812 97.742188 C 889.285156 100.429688 894.246094 103.238281 899.136719 106.167969 C 904.027344 109.101562 908.839844 112.148438 913.582031 115.316406 C 918.324219 118.484375 922.984375 121.765625 927.5625 125.164062 C 932.140625 128.558594 936.636719 132.066406 941.042969 135.683594 C 945.449219 139.300781 949.765625 143.023438 953.992188 146.851562 C 958.214844 150.683594 962.34375 154.613281 966.375 158.644531 C 970.40625 162.675781 974.335938 166.804688 978.167969 171.027344 C 981.996094 175.253906 985.71875 179.570312 989.335938 183.976562 C 992.953125 188.382812 996.457031 192.875 999.855469 197.457031 C 1003.25 202.035156 1006.535156 206.695312 1009.703125 211.4375 C 1012.867188 216.175781 1015.917969 220.992188 1018.851562 225.882812 C 1021.78125 230.773438 1024.589844 235.734375 1027.277344 240.761719 C 1029.964844 245.789062 1032.527344 250.882812 1034.964844 256.035156 C 1037.402344 261.191406 1039.714844 266.402344 1041.894531 271.667969 C 1044.078125 276.9375 1046.128906 282.253906 1048.050781 287.621094 C 1049.96875 292.992188 1051.757812 298.402344 1053.414062 303.859375 C 1055.070312 309.316406 1056.589844 314.808594 1057.972656 320.339844 C 1059.359375 325.871094 1060.609375 331.429688 1061.722656 337.023438 C 1062.832031 342.613281 1063.808594 348.230469 1064.644531 353.871094 C 1065.480469 359.511719 1066.179688 365.167969 1066.738281 370.84375 C 1067.296875 376.515625 1067.714844 382.199219 1067.996094 387.894531 C 1068.273438 393.589844 1068.414062 399.289062 1068.414062 404.988281 Z M 1068.414062 404.988281 " fill-opacity="1" fill-rule="nonzero"/><g clip-path="url(#f722410dd3)"><path fill="#11151c" d="M 719.996094 795.363281 C 504.738281 795.363281 329.636719 620.265625 329.636719 404.996094 C 329.636719 189.746094 504.738281 14.636719 719.996094 14.636719 C 935.257812 14.636719 1110.386719 189.746094 1110.386719 404.996094 C 1110.386719 620.265625 935.28125 795.363281 719.996094 795.363281 Z M 719.996094 41.394531 C 519.523438 41.394531 356.394531 204.507812 356.394531 404.996094 C 356.394531 605.527344 519.53125 768.609375 719.996094 768.609375 C 920.527344 768.609375 1083.632812 605.519531 1083.632812 404.996094 C 1083.65625 204.507812 920.519531 41.394531 719.996094 41.394531 Z M 719.996094 41.394531 " fill-opacity="1" fill-rule="nonzero"/></g><path fill="#ffffff" d="M 584.007812 228.984375 C 593.023438 229.007812 602.667969 228.148438 613.035156 226.425781 C 623.410156 224.667969 632.789062 221.699219 641.304688 217.4375 C 649.746094 213.175781 656.851562 207.351562 662.527344 199.964844 C 668.195312 192.539062 671.011719 183.007812 671.066406 171.296875 L 816.234375 171.796875 L 815.242188 483.378906 C 815.1875 497.382812 818.527344 506.527344 825.320312 510.8125 C 832.113281 515.152344 840.84375 517.292969 851.507812 517.347656 L 872.84375 517.402344 L 872.398438 633.71875 L 589.316406 632.828125 L 589.707031 516.535156 L 614.792969 516.589844 C 625.871094 516.644531 634.078125 513.1875 639.425781 506.191406 C 644.789062 499.164062 647.472656 491.613281 647.496094 483.433594 L 647.988281 332.652344 L 583.726562 332.441406 Z M 584.007812 228.984375 " fill-opacity="1" fill-rule="nonzero"/></svg>