<svg xmlns="http://www.w3.org/2000/svg" xmlns:xlink="http://www.w3.org/1999/xlink" width="1920" zoomAndPan="magnify" viewBox="0 0 1440 809.999993" height="1080" preserveAspectRatio="xMidYMid meet" version="1.0"><defs><clipPath id="781427c0de"><path d="M 334.539062 19.539062 L 1105.539062 19.539062 L 1105.539062 790.539062 L 334.539062 790.539062 Z M 334.539062 19.539062 " clip-rule="nonzero"/></clipPath></defs><rect x="-144" width="1728" fill="#ffffff" y="-80.999999" height="971.999992" fill-opacity="1"/><rect x="-144" width="1728" fill="#ffffff" y="-80.999999" height="971.999992" fill-opacity="1"/><rect x="-144" width="1728" fill="#ffffff" y="-80.999999" height="971.999992" fill-opacity="1"/><path fill="#11151c" d="M 1064.089844 405.015625 C 1064.089844 410.644531 1063.953125 416.273438 1063.675781 421.898438 C 1063.398438 427.519531 1062.984375 433.132812 1062.433594 438.738281 C 1061.882812 444.339844 1061.191406 449.925781 1060.367188 455.496094 C 1059.539062 461.066406 1058.578125 466.613281 1057.480469 472.132812 C 1056.382812 477.65625 1055.148438 483.148438 1053.78125 488.609375 C 1052.410156 494.070312 1050.910156 499.496094 1049.277344 504.882812 C 1047.640625 510.273438 1045.875 515.617188 1043.980469 520.917969 C 1042.082031 526.21875 1040.054688 531.472656 1037.902344 536.671875 C 1035.746094 541.875 1033.464844 547.019531 1031.058594 552.109375 C 1028.652344 557.199219 1026.121094 562.226562 1023.464844 567.191406 C 1020.8125 572.160156 1018.039062 577.054688 1015.144531 581.886719 C 1012.25 586.714844 1009.238281 591.46875 1006.109375 596.152344 C 1002.980469 600.832031 999.742188 605.433594 996.386719 609.957031 C 993.03125 614.480469 989.570312 618.917969 985.996094 623.269531 C 982.425781 627.621094 978.75 631.882812 974.96875 636.054688 C 971.1875 640.226562 967.304688 644.304688 963.324219 648.285156 C 959.34375 652.265625 955.265625 656.148438 951.09375 659.929688 C 946.921875 663.710938 942.660156 667.386719 938.308594 670.960938 C 933.957031 674.53125 929.519531 677.992188 924.996094 681.347656 C 920.472656 684.703125 915.871094 687.941406 911.191406 691.070312 C 906.507812 694.199219 901.753906 697.210938 896.925781 700.105469 C 892.09375 703 887.195312 705.773438 882.230469 708.429688 C 877.265625 711.082031 872.238281 713.613281 867.148438 716.019531 C 862.058594 718.429688 856.914062 720.707031 851.710938 722.863281 C 846.507812 725.019531 841.257812 727.042969 835.957031 728.941406 C 830.65625 730.835938 825.3125 732.601562 819.921875 734.238281 C 814.535156 735.871094 809.109375 737.375 803.648438 738.742188 C 798.1875 740.109375 792.695312 741.34375 787.171875 742.441406 C 781.648438 743.539062 776.105469 744.5 770.535156 745.328125 C 764.964844 746.152344 759.378906 746.84375 753.777344 747.394531 C 748.171875 747.945312 742.558594 748.359375 736.933594 748.636719 C 731.3125 748.914062 725.683594 749.050781 720.054688 749.050781 C 714.425781 749.050781 708.796875 748.914062 703.171875 748.636719 C 697.550781 748.359375 691.9375 747.945312 686.332031 747.394531 C 680.730469 746.84375 675.144531 746.152344 669.574219 745.328125 C 664.003906 744.5 658.457031 743.539062 652.9375 742.441406 C 647.414062 741.34375 641.921875 740.109375 636.460938 738.742188 C 631 737.375 625.574219 735.871094 620.1875 734.238281 C 614.796875 732.601562 609.453125 730.835938 604.152344 728.941406 C 598.851562 727.042969 593.597656 725.019531 588.398438 722.863281 C 583.195312 720.707031 578.050781 718.429688 572.960938 716.019531 C 567.871094 713.613281 562.84375 711.082031 557.878906 708.429688 C 552.910156 705.773438 548.015625 703 543.183594 700.105469 C 538.355469 697.210938 533.601562 694.199219 528.917969 691.070312 C 524.238281 687.941406 519.636719 684.703125 515.113281 681.347656 C 510.589844 677.992188 506.152344 674.53125 501.800781 670.960938 C 497.449219 667.386719 493.1875 663.710938 489.015625 659.929688 C 484.84375 656.148438 480.765625 652.265625 476.785156 648.285156 C 472.804688 644.304688 468.921875 640.226562 465.140625 636.054688 C 461.359375 631.882812 457.683594 627.621094 454.109375 623.269531 C 450.539062 618.917969 447.078125 614.480469 443.722656 609.957031 C 440.367188 605.433594 437.128906 600.832031 434 596.152344 C 430.871094 591.46875 427.859375 586.714844 424.964844 581.886719 C 422.070312 577.054688 419.296875 572.160156 416.640625 567.191406 C 413.988281 562.226562 411.457031 557.199219 409.050781 552.109375 C 406.640625 547.019531 404.363281 541.875 402.207031 536.671875 C 400.050781 531.472656 398.027344 526.21875 396.128906 520.917969 C 394.234375 515.617188 392.46875 510.273438 390.832031 504.882812 C 389.199219 499.496094 387.695312 494.070312 386.328125 488.609375 C 384.960938 483.148438 383.726562 477.65625 382.628906 472.132812 C 381.53125 466.613281 380.570312 461.066406 379.742188 455.496094 C 378.917969 449.925781 378.226562 444.339844 377.675781 438.738281 C 377.125 433.132812 376.710938 427.519531 376.433594 421.898438 C 376.15625 416.273438 376.019531 410.644531 376.019531 405.015625 C 376.019531 399.386719 376.15625 393.757812 376.433594 388.136719 C 376.710938 382.511719 377.125 376.898438 377.675781 371.292969 C 378.226562 365.691406 378.917969 360.105469 379.742188 354.535156 C 380.570312 348.964844 381.53125 343.421875 382.628906 337.898438 C 383.726562 332.375 384.960938 326.882812 386.328125 321.421875 C 387.695312 315.960938 389.199219 310.535156 390.832031 305.148438 C 392.46875 299.757812 394.234375 294.414062 396.128906 289.113281 C 398.027344 283.8125 400.050781 278.5625 402.207031 273.359375 C 404.363281 268.15625 406.640625 263.011719 409.050781 257.921875 C 411.457031 252.832031 413.988281 247.804688 416.640625 242.839844 C 419.296875 237.875 422.070312 232.976562 424.964844 228.144531 C 427.859375 223.316406 430.871094 218.5625 434 213.878906 C 437.128906 209.199219 440.367188 204.597656 443.722656 200.074219 C 447.078125 195.550781 450.539062 191.113281 454.109375 186.761719 C 457.683594 182.410156 461.359375 178.148438 465.140625 173.976562 C 468.921875 169.804688 472.804688 165.726562 476.785156 161.746094 C 480.765625 157.765625 484.84375 153.882812 489.015625 150.101562 C 493.1875 146.320312 497.449219 142.644531 501.800781 139.074219 C 506.152344 135.5 510.589844 132.039062 515.113281 128.683594 C 519.636719 125.328125 524.238281 122.089844 528.917969 118.960938 C 533.601562 115.832031 538.355469 112.820312 543.183594 109.925781 C 548.015625 107.03125 552.910156 104.257812 557.878906 101.605469 C 562.84375 98.949219 567.871094 96.417969 572.960938 94.011719 C 578.050781 91.605469 583.195312 89.324219 588.398438 87.167969 C 593.597656 85.015625 598.851562 82.988281 604.152344 81.089844 C 609.453125 79.195312 614.796875 77.429688 620.1875 75.792969 C 625.574219 74.160156 631 72.660156 636.460938 71.289062 C 641.921875 69.921875 647.414062 68.6875 652.9375 67.589844 C 658.457031 66.492188 664.003906 65.53125 669.574219 64.703125 C 675.144531 63.878906 680.730469 63.1875 686.332031 62.636719 C 691.9375 62.085938 697.550781 61.671875 703.171875 61.394531 C 708.796875 61.117188 714.425781 60.980469 720.054688 60.980469 C 725.683594 60.980469 731.3125 61.117188 736.933594 61.394531 C 742.558594 61.671875 748.171875 62.085938 753.777344 62.636719 C 759.378906 63.1875 764.964844 63.878906 770.535156 64.703125 C 776.105469 65.53125 781.648438 66.492188 787.171875 67.589844 C 792.695312 68.6875 798.1875 69.921875 803.648438 71.289062 C 809.109375 72.660156 814.535156 74.160156 819.921875 75.792969 C 825.3125 77.429688 830.65625 79.195312 835.957031 81.089844 C 841.257812 82.988281 846.507812 85.015625 851.710938 87.167969 C 856.914062 89.324219 862.058594 91.605469 867.148438 94.011719 C 872.238281 96.417969 877.265625 98.949219 882.230469 101.605469 C 887.195312 104.257812 892.09375 107.03125 896.925781 109.925781 C 901.753906 112.820312 906.507812 115.832031 911.191406 118.960938 C 915.871094 122.089844 920.472656 125.328125 924.996094 128.683594 C 929.519531 132.039062 933.957031 135.5 938.308594 139.074219 C 942.660156 142.644531 946.921875 146.320312 951.09375 150.101562 C 955.265625 153.882812 959.34375 157.765625 963.324219 161.746094 C 967.304688 165.726562 971.1875 169.804688 974.96875 173.976562 C 978.75 178.148438 982.425781 182.410156 985.996094 186.761719 C 989.570312 191.113281 993.03125 195.550781 996.386719 200.074219 C 999.742188 204.597656 1002.980469 209.199219 1006.109375 213.878906 C 1009.238281 218.5625 1012.25 223.316406 1015.144531 228.144531 C 1018.039062 232.976562 1020.8125 237.875 1023.464844 242.839844 C 1026.121094 247.804688 1028.652344 252.832031 1031.058594 257.921875 C 1033.464844 263.011719 1035.746094 268.15625 1037.902344 273.359375 C 1040.054688 278.5625 1042.082031 283.8125 1043.980469 289.113281 C 1045.875 294.414062 1047.640625 299.757812 1049.277344 305.148438 C 1050.910156 310.535156 1052.410156 315.960938 1053.78125 321.421875 C 1055.148438 326.882812 1056.382812 332.375 1057.480469 337.898438 C 1058.578125 343.421875 1059.539062 348.964844 1060.367188 354.535156 C 1061.191406 360.105469 1061.882812 365.691406 1062.433594 371.292969 C 1062.984375 376.898438 1063.398438 382.511719 1063.675781 388.136719 C 1063.953125 393.757812 1064.089844 399.386719 1064.089844 405.015625 Z M 1064.089844 405.015625 " fill-opacity="1" fill-rule="nonzero"/><g clip-path="url(#781427c0de)"><path fill="#11151c" d="M 720.023438 790.515625 C 507.449219 790.515625 334.539062 617.605469 334.539062 405.023438 C 334.539062 192.457031 507.449219 19.539062 720.023438 19.539062 C 932.597656 19.539062 1105.539062 192.457031 1105.539062 405.023438 C 1105.539062 617.605469 932.617188 790.515625 720.023438 790.515625 Z M 720.023438 45.960938 C 522.054688 45.960938 360.960938 207.039062 360.960938 405.023438 C 360.960938 603.046875 522.0625 764.09375 720.023438 764.09375 C 918.046875 764.09375 1079.117188 603.039062 1079.117188 405.023438 C 1079.140625 207.039062 918.039062 45.960938 720.023438 45.960938 Z M 720.023438 45.960938 " fill-opacity="1" fill-rule="nonzero"/></g><path fill="#ffffff" d="M 619.167969 536.226562 C 623.324219 531.066406 628.820312 525.445312 635.660156 519.402344 C 642.476562 513.3125 650.339844 507.636719 659.246094 502.402344 C 668.121094 497.210938 678.160156 492.769531 689.328125 489.1875 C 700.492188 485.625 712.675781 483.851562 725.882812 483.898438 C 739.296875 483.949219 750.65625 484.699219 759.9375 486.164062 C 769.230469 487.660156 777.695312 489.132812 785.328125 490.757812 C 792.96875 492.308594 800.167969 493.851562 806.976562 495.300781 C 813.761719 496.796875 821.269531 497.519531 829.558594 497.574219 C 845.242188 497.628906 857.578125 494.210938 866.421875 487.457031 C 875.371094 480.695312 879.8125 468.007812 879.867188 449.425781 L 940.851562 449.648438 C 940.753906 489.046875 936.9375 520.351562 929.449219 543.574219 C 921.910156 566.742188 911.695312 584.390625 898.75 596.417969 C 885.851562 608.4375 870.46875 616.078125 852.71875 619.324219 C 834.964844 622.578125 815.972656 624.179688 795.75 624.125 C 779.675781 624.074219 764.117188 622.5 749.152344 619.324219 C 734.210938 616.175781 719.871094 612.769531 706.144531 609.085938 C 692.421875 605.414062 679.316406 601.960938 666.871094 598.761719 C 654.386719 595.515625 642.667969 593.832031 631.730469 593.78125 C 622.261719 593.78125 614.75 595.042969 609.285156 597.628906 C 603.789062 600.203125 599.402344 602.894531 596.101562 605.777344 C 592.152344 609.316406 589.160156 613.109375 587.074219 617.257812 L 516.148438 617.003906 C 516.25 586.015625 519.839844 559.238281 526.773438 536.710938 C 533.765625 514.105469 543.023438 494.429688 554.535156 477.628906 C 566.070312 460.859375 579.230469 446.464844 593.988281 434.4375 C 608.800781 422.410156 623.839844 411.855469 639.136719 402.824219 C 654.433594 393.796875 669.453125 385.695312 684.265625 378.523438 C 699.042969 371.324219 712.183594 363.96875 723.65625 356.367188 C 735.136719 348.757812 744.355469 340.523438 751.289062 331.648438 C 758.203125 322.796875 761.71875 312.296875 761.765625 300.113281 C 761.820312 281.933594 754.796875 268.410156 740.6875 259.472656 C 726.578125 250.554688 709.621094 246.058594 689.808594 246.011719 C 675.777344 245.925781 663.175781 246.9375 652.011719 248.980469 C 640.863281 251.015625 630.234375 254.578125 620.09375 259.714844 C 632.683594 263.453125 643.59375 269.496094 652.832031 277.777344 C 662.121094 286.058594 666.6875 298.261719 666.632812 314.363281 C 666.609375 321.5625 664.980469 328.523438 661.78125 335.261719 C 658.558594 341.941406 653.863281 348.054688 647.78125 353.628906 C 641.691406 359.179688 633.972656 363.480469 624.6875 366.558594 C 615.34375 369.625 604.851562 371.128906 593.078125 371.097656 C 584.203125 371.078125 575.066406 369.605469 565.699219 366.6875 C 556.332031 363.796875 547.875 359.109375 540.34375 352.6875 C 532.832031 346.289062 526.671875 337.878906 521.867188 327.554688 C 517.042969 317.207031 514.667969 304.617188 514.722656 289.726562 C 514.796875 269.921875 520.109375 251.78125 530.664062 235.289062 C 541.242188 218.796875 556.054688 204.5625 575.097656 192.535156 C 594.132812 180.507812 616.972656 171.324219 643.625 164.902344 C 670.277344 158.480469 699.484375 155.335938 731.265625 155.425781 C 765.121094 155.535156 794.941406 159.273438 820.691406 166.546875 C 846.5 173.847656 868.117188 183.886719 885.609375 196.652344 C 903.105469 209.398438 916.3125 224.207031 925.140625 241.0625 C 933.914062 257.910156 938.292969 275.941406 938.238281 295.117188 C 938.1875 318.230469 934.371094 337.53125 926.914062 352.988281 C 919.457031 368.441406 909.320312 381.183594 896.597656 391.277344 C 883.851562 401.390625 869.242188 409.617188 852.734375 416.070312 C 836.175781 422.523438 818.84375 428.167969 800.617188 433.074219 C 782.429688 438.007812 764.0625 442.855469 745.511719 447.597656 C 726.910156 452.402344 709.238281 458.40625 692.46875 465.714844 C 675.722656 473.019531 660.472656 482.023438 646.738281 492.808594 C 632.992188 503.574219 622.03125 517.472656 613.949219 534.320312 Z M 619.167969 536.226562 " fill-opacity="1" fill-rule="nonzero"/></svg>