<svg xmlns="http://www.w3.org/2000/svg" xmlns:xlink="http://www.w3.org/1999/xlink" width="1920" zoomAndPan="magnify" viewBox="0 0 1440 809.999993" height="1080" preserveAspectRatio="xMidYMid meet" version="1.0"><defs><clipPath id="935db7a266"><path d="M 318 9.96875 L 747 9.96875 L 747 787 L 318 787 Z M 318 9.96875 " clip-rule="nonzero"/></clipPath><clipPath id="56dc222a8c"><path d="M 719 545 L 1095 545 L 1095 799.71875 L 719 799.71875 Z M 719 545 " clip-rule="nonzero"/></clipPath><clipPath id="0a62e0f7b4"><path d="M 827 121 L 1121.933594 121 L 1121.933594 417 L 827 417 Z M 827 121 " clip-rule="nonzero"/></clipPath></defs><rect x="-144" width="1728" fill="#ffffff" y="-80.999999" height="971.999992" fill-opacity="1"/><rect x="-144" width="1728" fill="#ffffff" y="-80.999999" height="971.999992" fill-opacity="1"/><rect x="-144" width="1728" fill="#ffffff" y="-80.999999" height="971.999992" fill-opacity="1"/><path fill="#1c97c6" d="M 385.246094 227.539062 C 381.070312 227.539062 376.945312 229.492188 374.335938 233.148438 C 370.050781 239.144531 371.441406 247.523438 377.441406 251.820312 C 383.4375 256.117188 391.820312 254.726562 396.117188 248.714844 C 400.414062 242.71875 399.023438 234.339844 393.023438 230.042969 C 390.65625 228.34375 387.9375 227.539062 385.246094 227.539062 Z M 385.246094 227.539062 " fill-opacity="1" fill-rule="nonzero"/><path fill="#1c97c6" d="M 459.296875 290.585938 C 462.777344 291.550781 466.367188 291.066406 469.460938 289.289062 C 472.554688 287.492188 474.773438 284.617188 475.710938 281.175781 C 476.648438 277.734375 476.179688 274.121094 474.402344 271.015625 C 472.621094 267.925781 469.742188 265.703125 466.300781 264.765625 C 465.136719 264.445312 463.945312 264.285156 462.765625 264.285156 C 460.464844 264.285156 458.1875 264.886719 456.125 266.078125 C 453.03125 267.855469 450.808594 270.734375 449.871094 274.175781 C 449.871094 274.1875 449.871094 274.1875 449.871094 274.1875 C 448.933594 277.628906 449.402344 281.230469 451.183594 284.335938 C 452.964844 287.441406 455.84375 289.664062 459.296875 290.585938 Z M 459.296875 290.585938 " fill-opacity="1" fill-rule="nonzero"/><path fill="#1c97c6" d="M 639.601562 250.910156 L 666.378906 210.753906 L 639.601562 143.828125 L 612.824219 210.753906 Z M 639.601562 250.910156 " fill-opacity="1" fill-rule="nonzero"/><g clip-path="url(#935db7a266)"><path fill="#1c97c6" d="M 639.601562 357.996094 L 719.933594 357.996094 C 734.730469 357.996094 746.710938 346.015625 746.710938 331.226562 L 746.710938 36.742188 C 746.710938 21.949219 734.730469 9.96875 719.933594 9.96875 L 345.054688 9.96875 C 330.257812 9.96875 318.277344 21.949219 318.277344 36.742188 L 318.277344 331.226562 C 318.277344 346.015625 330.257812 357.996094 345.054688 357.996094 L 425.386719 357.996094 L 425.386719 384.765625 L 371.832031 384.765625 L 371.832031 438.308594 L 398.609375 438.308594 L 398.609375 786.335938 L 492.328125 786.335938 L 492.328125 706.019531 L 572.660156 706.019531 L 572.660156 786.335938 L 666.378906 786.335938 L 666.378906 438.308594 L 693.15625 438.308594 L 693.15625 384.765625 L 639.601562 384.765625 Z M 572.660156 197.367188 C 572.660156 167.800781 596.636719 143.828125 626.214844 143.828125 L 639.601562 143.828125 C 617.417969 143.828125 599.4375 125.847656 599.4375 103.667969 C 599.4375 81.488281 617.417969 63.511719 639.601562 63.511719 C 661.789062 63.511719 679.769531 81.488281 679.769531 103.667969 C 679.769531 125.847656 661.789062 143.828125 639.601562 143.828125 L 652.992188 143.828125 C 682.566406 143.828125 706.546875 167.800781 706.546875 197.367188 L 706.546875 291.066406 L 572.660156 291.066406 Z M 427.957031 297.667969 C 423.015625 289.046875 421.609375 279.140625 423.632812 269.515625 L 423.605469 269.515625 L 424.621094 257.980469 L 416.347656 266.0625 L 416.292969 266.011719 C 408.433594 275.726562 396.933594 281.070312 385.152344 281.070312 C 377.066406 281.070312 368.910156 278.632812 361.855469 273.585938 C 343.847656 260.710938 339.671875 235.570312 352.539062 217.566406 C 358.777344 208.839844 368.042969 203.058594 378.632812 201.304688 C 389.222656 199.496094 399.851562 202 408.582031 208.25 C 414.339844 212.359375 418.503906 217.796875 421.328125 223.777344 L 428.25 217.019531 L 439.363281 91.289062 L 466.03125 93.644531 L 457.679688 188.28125 L 525.640625 121.886719 L 544.34375 141.027344 L 454.050781 229.226562 L 453.207031 238.835938 C 459.738281 237.203125 466.59375 237.070312 473.300781 238.917969 C 483.652344 241.714844 492.289062 248.382812 497.628906 257.671875 C 502.972656 266.972656 504.363281 277.804688 501.566406 288.148438 C 498.769531 298.496094 492.085938 307.144531 482.796875 312.484375 C 476.636719 316.019531 469.792969 317.824219 462.871094 317.824219 C 459.339844 317.824219 455.804688 317.355469 452.296875 316.40625 C 441.945312 313.648438 433.3125 306.96875 427.957031 297.667969 Z M 505.714844 652.480469 L 452.160156 652.480469 L 452.160156 598.9375 L 505.714844 598.9375 Z M 505.714844 545.394531 L 452.160156 545.394531 L 452.160156 491.851562 L 505.714844 491.851562 Z M 612.824219 652.480469 L 559.269531 652.480469 L 559.269531 598.9375 L 612.824219 598.9375 Z M 612.824219 545.394531 L 559.269531 545.394531 L 559.269531 491.851562 L 612.824219 491.851562 Z M 612.824219 384.765625 L 452.160156 384.765625 L 452.160156 357.996094 L 612.824219 357.996094 Z M 612.824219 384.765625 " fill-opacity="1" fill-rule="nonzero"/></g><path fill="#1c97c6" d="M 920.761719 491.851562 C 920.761719 493.605469 920.675781 495.355469 920.503906 497.101562 C 920.332031 498.84375 920.078125 500.578125 919.734375 502.296875 C 919.390625 504.015625 918.964844 505.714844 918.457031 507.394531 C 917.949219 509.074219 917.359375 510.722656 916.6875 512.339844 C 916.015625 513.960938 915.265625 515.546875 914.441406 517.089844 C 913.613281 518.636719 912.710938 520.140625 911.738281 521.597656 C 910.761719 523.054688 909.71875 524.464844 908.605469 525.820312 C 907.496094 527.175781 906.316406 528.472656 905.078125 529.710938 C 903.835938 530.953125 902.539062 532.128906 901.183594 533.242188 C 899.828125 534.351562 898.421875 535.394531 896.960938 536.371094 C 895.503906 537.34375 894 538.246094 892.453125 539.070312 C 890.90625 539.898438 889.324219 540.648438 887.703125 541.320312 C 886.082031 541.988281 884.433594 542.578125 882.753906 543.089844 C 881.078125 543.597656 879.378906 544.023438 877.65625 544.367188 C 875.9375 544.707031 874.203125 544.964844 872.457031 545.136719 C 870.710938 545.308594 868.964844 545.394531 867.207031 545.394531 C 865.453125 545.394531 863.707031 545.308594 861.960938 545.136719 C 860.214844 544.964844 858.480469 544.707031 856.761719 544.367188 C 855.039062 544.023438 853.339844 543.597656 851.664062 543.089844 C 849.984375 542.578125 848.335938 541.988281 846.714844 541.320312 C 845.09375 540.648438 843.511719 539.898438 841.964844 539.070312 C 840.417969 538.246094 838.914062 537.34375 837.457031 536.371094 C 835.996094 535.394531 834.589844 534.351562 833.234375 533.242188 C 831.878906 532.128906 830.582031 530.953125 829.339844 529.710938 C 828.101562 528.472656 826.921875 527.175781 825.8125 525.820312 C 824.699219 524.464844 823.65625 523.054688 822.679688 521.597656 C 821.707031 520.140625 820.804688 518.636719 819.976562 517.089844 C 819.152344 515.546875 818.402344 513.960938 817.730469 512.339844 C 817.058594 510.722656 816.46875 509.074219 815.960938 507.394531 C 815.453125 505.714844 815.027344 504.015625 814.683594 502.296875 C 814.339844 500.578125 814.085938 498.84375 813.914062 497.101562 C 813.742188 495.355469 813.65625 493.605469 813.65625 491.851562 C 813.65625 490.097656 813.742188 488.347656 813.914062 486.605469 C 814.085938 484.859375 814.339844 483.125 814.683594 481.40625 C 815.027344 479.6875 815.453125 477.988281 815.960938 476.308594 C 816.46875 474.632812 817.058594 472.980469 817.730469 471.363281 C 818.402344 469.742188 819.152344 468.160156 819.976562 466.613281 C 820.804688 465.066406 821.707031 463.5625 822.679688 462.105469 C 823.65625 460.648438 824.699219 459.242188 825.8125 457.886719 C 826.921875 456.527344 828.101562 455.230469 829.339844 453.992188 C 830.582031 452.75 831.878906 451.574219 833.234375 450.464844 C 834.589844 449.351562 835.996094 448.308594 837.457031 447.332031 C 838.914062 446.359375 840.417969 445.457031 841.964844 444.632812 C 843.511719 443.804688 845.09375 443.054688 846.714844 442.386719 C 848.335938 441.714844 849.984375 441.125 851.664062 440.613281 C 853.339844 440.105469 855.039062 439.679688 856.761719 439.339844 C 858.480469 438.996094 860.214844 438.738281 861.960938 438.566406 C 863.707031 438.394531 865.453125 438.308594 867.207031 438.308594 C 868.964844 438.308594 870.710938 438.394531 872.457031 438.566406 C 874.203125 438.738281 875.9375 438.996094 877.65625 439.339844 C 879.378906 439.679688 881.078125 440.105469 882.753906 440.613281 C 884.433594 441.125 886.082031 441.714844 887.703125 442.386719 C 889.324219 443.054688 890.90625 443.804688 892.453125 444.632812 C 894 445.457031 895.503906 446.359375 896.960938 447.332031 C 898.421875 448.308594 899.828125 449.351562 901.183594 450.464844 C 902.539062 451.574219 903.835938 452.75 905.078125 453.992188 C 906.316406 455.230469 907.496094 456.527344 908.605469 457.886719 C 909.71875 459.242188 910.761719 460.648438 911.738281 462.105469 C 912.710938 463.5625 913.613281 465.066406 914.441406 466.613281 C 915.265625 468.160156 916.015625 469.742188 916.6875 471.363281 C 917.359375 472.980469 917.949219 474.632812 918.457031 476.308594 C 918.964844 477.988281 919.390625 479.6875 919.734375 481.40625 C 920.078125 483.125 920.332031 484.859375 920.503906 486.605469 C 920.675781 488.347656 920.761719 490.097656 920.761719 491.851562 Z M 920.761719 491.851562 " fill-opacity="1" fill-rule="nonzero"/><g clip-path="url(#56dc222a8c)"><path fill="#1c97c6" d="M 1001.09375 706.019531 L 947.539062 706.019531 L 947.539062 598.9375 C 947.539062 569.367188 923.5625 545.394531 893.984375 545.394531 L 867.207031 545.394531 L 893.984375 625.707031 L 867.207031 665.863281 L 840.433594 625.707031 L 867.207031 545.394531 L 840.433594 545.394531 C 810.855469 545.394531 786.878906 569.367188 786.878906 598.9375 L 786.878906 706.019531 L 719.933594 706.019531 L 719.933594 759.5625 L 1001.09375 759.5625 L 1001.09375 799.71875 L 1094.816406 732.792969 L 1001.09375 665.863281 Z M 1001.09375 706.019531 " fill-opacity="1" fill-rule="nonzero"/></g><path fill="#1c97c6" d="M 960.609375 438.308594 L 987.386719 438.308594 L 987.386719 465.082031 L 960.609375 465.082031 Z M 960.609375 438.308594 " fill-opacity="1" fill-rule="nonzero"/><path fill="#1c97c6" d="M 960.609375 491.851562 L 987.386719 491.851562 L 987.386719 518.621094 L 960.609375 518.621094 Z M 960.609375 491.851562 " fill-opacity="1" fill-rule="nonzero"/><g clip-path="url(#0a62e0f7b4)"><path fill="#1c97c6" d="M 974.316406 121.550781 C 892.980469 121.550781 827.042969 187.476562 827.042969 268.792969 C 827.042969 350.113281 892.980469 416.035156 974.316406 416.035156 C 1055.652344 416.035156 1121.59375 350.113281 1121.59375 268.792969 C 1121.59375 187.476562 1055.652344 121.550781 974.316406 121.550781 Z M 880.597656 215.265625 L 907.375 215.265625 C 907.375 222.652344 913.371094 228.652344 920.761719 228.652344 C 928.152344 228.652344 934.152344 222.652344 934.152344 215.265625 L 960.929688 215.265625 C 960.929688 237.40625 942.90625 255.421875 920.761719 255.421875 C 898.617188 255.421875 880.597656 237.40625 880.597656 215.265625 Z M 1001.09375 347.007812 C 1001.09375 341.546875 990.664062 333.621094 974.316406 333.621094 C 957.96875 333.621094 947.539062 341.546875 947.539062 347.007812 L 920.761719 347.007812 C 920.761719 324.476562 944.289062 306.847656 974.316406 306.847656 C 1004.347656 306.847656 1027.871094 324.476562 1027.871094 347.007812 Z M 1027.871094 255.421875 C 1005.726562 255.421875 987.707031 237.40625 987.707031 215.265625 L 1014.484375 215.265625 C 1014.484375 222.652344 1020.480469 228.652344 1027.871094 228.652344 C 1035.261719 228.652344 1041.261719 222.652344 1041.261719 215.265625 L 1068.039062 215.265625 C 1068.039062 237.40625 1050.015625 255.421875 1027.871094 255.421875 Z M 1027.871094 255.421875 " fill-opacity="1" fill-rule="nonzero"/></g></svg>